<svg width="476" height="382" viewBox="0 0 476 382" fill="none" xmlns="http://www.w3.org/2000/svg">
<path d="M121.465 291.334C117.717 318.057 143.465 338.897 156.841 345.991C140.386 346.6 106.743 354.584 103.818 381.644C107.231 347.513 94.0666 317.65 0.209351 274.379C39.3027 289.165 118.101 313.181 121.465 291.334ZM121.465 291.334C121.474 291.269 121.483 291.204 121.492 291.139M70.0016 1.99001C72.4389 38.5539 35.0249 55.6613 24.7499 59.5142C75.979 179.746 57.4214 249.009 41.739 268.612C61.4883 259.334 135.525 276.489 170.075 286.227C171.947 281.833 175.693 271.039 175.693 263.015C169.561 254.132 172.654 234.932 173.514 228.342C174.373 221.751 184.976 202.551 175.693 183.013C146.288 186.28 118.191 201.963 94.667 209.15C42.3925 86.3052 76.3709 49.713 83.5587 39.9115C75.1434 35.9514 71.1422 14.0998 70.0016 1.99001ZM70.0016 1.99001C69.959 1.3499 69.9041 0.703828 69.8366 0.0517578C69.8828 0.66404 69.9377 1.31175 70.0016 1.99001ZM371.144 64.0098C374.843 62.643 382.77 60.1987 384.893 61.3565C387.546 62.8037 396.471 66.6633 398.4 72.6935C404.961 76.7457 409.834 80.8843 411.45 82.4471C418.498 86.3461 432.954 96.3934 434.394 105.391C441.592 108.27 443.291 111.289 443.241 112.439C443.441 110.09 444.831 105.391 448.79 105.391C449.51 99.1527 449.09 94.9938 448.79 93.6941C449.49 91.4447 451.669 86.2261 454.788 83.3469C457.907 80.4677 456.888 49.7558 455.988 34.7598C458.487 31.2106 462.976 22.6427 460.937 16.7642C456.018 10.7654 453.888 9.06579 453.439 8.96582C450.789 13.4148 444.231 22.4027 439.192 22.7626C434.154 23.1225 412.399 16.5143 402.152 13.1651L398.4 15.2646C397.002 14.4649 393.964 12.4757 393.005 10.9157C391.805 8.96582 343.818 34.1596 338.869 40.158C335.15 38.7183 333.82 36.7589 333.62 35.9591C330.971 40.208 326.212 50.3853 328.372 57.1035C330.531 63.8217 327.372 74.2989 325.523 78.6977L331.221 86.1957C338.069 86.7956 352.186 87.2755 353.865 84.3962C355.965 80.7972 368.028 64.0098 371.144 64.0098ZM397.337 79.1025V79.2441C397.337 84.4572 396.064 90.0465 394.175 95.8574C392.286 101.668 389.767 107.737 387.26 113.902C382.294 126.115 377.38 138.707 377.261 150.718C377.822 150.873 378.439 151.33 379.003 152.126C379.772 153.212 380.511 155.006 380.985 157.85L381.008 157.986L380.957 158.116C380.681 158.812 380.486 159.971 380.382 161.58C380.279 163.176 380.268 165.171 380.34 167.509C380.483 172.185 380.952 178.205 381.643 185.109C383.024 198.916 385.293 216.223 387.613 233.312C389.933 250.397 392.305 267.266 393.893 280.182C394.686 286.639 395.285 292.116 395.583 296.144C395.732 298.156 395.806 299.817 395.791 301.061C395.784 301.681 395.753 302.209 395.696 302.631C395.642 303.032 395.556 303.408 395.391 303.667C394.995 304.289 394.315 304.796 393.483 305.218C392.643 305.643 391.599 306.006 390.417 306.316C388.052 306.938 385.067 307.366 381.892 307.655C375.537 308.234 368.347 308.257 363.664 308.101L363.467 308.095L359.295 303.923C350.427 305.004 336.373 306.036 322.694 305.649C315.792 305.454 308.974 304.898 302.962 303.803C296.959 302.709 291.716 301.069 287.992 298.683L287.911 298.63L287.856 298.552C282.487 291.036 282.218 281.528 283.24 270.604C284.267 259.635 286.591 247.233 286.594 233.613C285.295 221.989 279.564 212.206 272.898 204.688C266.225 197.162 258.64 191.934 253.712 189.432L253.41 189.278L253.441 188.94C255.133 170.328 264.134 151.761 274.661 136.136C285.192 120.505 297.281 107.771 305.211 100.817L305.265 100.77L305.33 100.739C307.387 99.7841 312.354 95.9483 315.111 88.4121L315.274 87.9697L315.725 88.1055C317.425 88.6156 320.33 89.0499 323.848 89.4111C327.354 89.7712 331.432 90.0557 335.455 90.2744C343.504 90.7118 351.317 90.8867 353.874 90.8867C354.707 90.8865 355.626 90.3913 356.598 89.4443C357.56 88.5073 358.508 87.1918 359.393 85.7021C361.162 82.7252 362.631 79.1401 363.441 76.749L363.49 76.6025L363.614 76.5098C364.586 75.7809 366.238 74.8158 368.068 74.2705C369.889 73.7279 371.98 73.5744 373.741 74.6104C374.354 74.9707 375.334 74.9881 376.647 74.6387C377.935 74.2957 379.431 73.6306 380.978 72.793C384.067 71.1192 387.276 68.8036 389.284 67.1816L389.725 66.8252L397.337 79.1025ZM389.469 68.3096C387.42 69.9273 384.395 72.0791 381.454 73.6719C379.876 74.5266 378.302 75.2334 376.904 75.6055C375.532 75.9709 374.208 76.0459 373.234 75.4727C371.82 74.6411 370.058 74.7208 368.354 75.2285C366.73 75.7123 365.243 76.5624 364.333 77.2236C363.498 79.6562 362.029 83.2219 360.252 86.2129C359.345 87.7389 358.345 89.1378 357.295 90.1611C356.255 91.174 355.096 91.8865 353.874 91.8867C351.295 91.8867 343.463 91.7106 335.401 91.2725C331.369 91.0534 327.274 90.7685 323.746 90.4062C320.508 90.0737 317.715 89.6711 315.886 89.1875C313.04 96.6079 308.113 100.515 305.821 101.611C297.951 108.521 285.949 121.171 275.49 136.694C265.07 152.161 256.214 170.436 254.468 188.699C259.504 191.312 267.02 196.552 273.646 204.024C280.408 211.65 286.27 221.628 287.592 233.528L287.595 233.556V233.584C287.595 247.271 285.252 259.844 284.236 270.697C283.219 281.566 283.53 290.71 288.615 297.893C292.173 300.148 297.233 301.742 303.142 302.818C309.087 303.902 315.851 304.455 322.723 304.649C336.466 305.038 350.602 303.99 359.416 302.902L359.659 302.872L359.831 303.045L363.893 307.106C368.552 307.255 375.588 307.225 381.801 306.659C384.953 306.372 387.876 305.949 390.163 305.349C391.307 305.048 392.276 304.707 393.03 304.325C393.792 303.939 394.289 303.535 394.547 303.13C394.586 303.068 394.653 302.882 394.705 302.497C394.755 302.132 394.784 301.649 394.791 301.048C394.806 299.847 394.734 298.22 394.586 296.218C394.29 292.216 393.694 286.758 392.901 280.304C391.314 267.396 388.943 250.539 386.622 233.446C384.302 216.358 382.031 199.035 380.648 185.209C379.956 178.297 379.485 172.25 379.341 167.54C379.269 165.185 379.278 163.156 379.384 161.516C379.483 159.976 379.671 158.738 379.977 157.889C379.517 155.206 378.829 153.61 378.188 152.705C377.525 151.77 376.974 151.643 376.802 151.658L376.256 151.708V151.16C376.256 138.788 381.32 125.855 386.333 113.526C388.846 107.346 391.348 101.317 393.224 95.5479C395.082 89.8314 396.312 84.405 396.334 79.3828L389.469 68.3096ZM325.026 167.486C325.649 167.286 326.297 167.251 326.835 167.597C327.37 167.94 327.655 168.569 327.77 169.358C327.991 170.875 327.917 173.267 327.667 176.105C327.416 178.958 326.98 182.305 326.46 185.755C325.42 192.655 324.033 199.987 323.073 204.633L323.072 204.641C323.012 204.91 322.804 205.165 322.563 205.389C322.301 205.631 321.924 205.908 321.406 206.209C320.371 206.812 318.732 207.543 316.23 208.337L315.932 208.432L315.717 208.206C314.343 206.768 313.35 204.768 312.638 202.515C311.924 200.256 311.48 197.709 311.227 195.144C310.719 190.014 310.963 184.758 311.345 181.477L311.36 181.344L311.441 181.236C313.843 178 317.51 173.493 320.695 170.518C322.272 169.045 323.797 167.882 325.026 167.486ZM326.294 168.438C326.116 168.324 325.822 168.281 325.333 168.438C324.338 168.759 322.955 169.775 321.378 171.248C318.292 174.13 314.713 178.515 312.323 181.725C311.957 184.958 311.73 190.069 312.222 195.046C312.471 197.568 312.904 200.042 313.591 202.214C314.239 204.263 315.104 206.014 316.229 207.284C318.515 206.543 319.991 205.876 320.902 205.345C321.378 205.067 321.691 204.833 321.883 204.655C322.095 204.459 322.105 204.381 322.096 204.424C323.053 199.79 324.435 192.48 325.472 185.605C325.99 182.166 326.421 178.841 326.67 176.018C326.92 173.18 326.982 170.892 326.779 169.503C326.683 168.84 326.476 168.555 326.294 168.438ZM139.697 286.367C139.019 292.279 138.65 305.034 142.605 308.755C147.548 313.407 179.822 328.818 182.439 338.122C185.056 347.426 229.252 295.671 235.067 275.899C233.966 266.973 231.951 264.907 231.082 264.99L228.1 268.717C222.067 234.64 212.108 159.739 220.541 132.749C188.026 136.416 191.693 132.749 177.513 140.328C184.603 158.419 185.825 149.129 187.048 182.133C190.145 183.029 196.093 205.7 195.116 289.213C185.78 289.213 182.307 288.157 177.329 282.947L173.045 290.357L139.697 286.367ZM97.0685 146.552C102.95 153.151 115.378 172.311 118.044 196.149C139.805 186.936 140.785 184.779 151.959 182.819C147.058 162.039 139.413 153.413 141.765 140.671C121.965 144.592 113.732 137.729 97.0685 146.552ZM175.777 254.86C176.185 256.831 177.449 261.323 179.243 263.524C179.651 267.439 178.122 273.446 177.306 275.961C178.19 277.83 181.098 281.424 185.665 280.854C190.232 280.283 192.325 278.577 192.801 277.796L191.883 256.695C187.704 257.069 178.631 257.226 175.777 254.86ZM123.881 122.851C122.822 126.282 121.339 133.477 123.881 134.809C127.514 133.295 140.984 132.538 144.617 136.473C148.249 140.408 140.379 142.225 152.79 172.344C157.784 159.176 166.26 139.954 175.492 133.749C184.725 127.544 213.936 111.046 226.952 113.922C232.854 129.36 238.909 151.911 246.779 161.597C252.712 165.714 257.222 164.524 258.736 163.414C257.878 160.033 256.677 151.548 258.736 144.646C260.794 137.744 268.472 122.196 272.054 115.284C271.651 109.533 269.179 97.0309 262.519 93.0352C257.313 94.9729 256.314 93.8426 256.465 93.0352C251.925 89.1507 242.329 80.6854 240.271 77.9005C240.271 76.6897 241.885 77.396 242.692 77.9005C241.532 73.5619 237.879 64.0674 232.552 60.7983C227.224 57.5291 204.501 59.4361 193.806 60.7983C178.671 65.3891 147.371 75.5091 143.254 79.2626C138.108 83.9545 124.564 120.282 123.881 122.851ZM230.205 246.469C231.789 247.736 235.375 252.436 237.047 261.103C239.138 271.937 237.237 292.273 230.205 303.676C239.024 306.261 253.012 304.753 258.903 303.676C261.247 296.58 267.114 282.314 271.827 282.01C275.476 282.77 276.895 278.905 277.149 276.878C277.719 270.986 277.263 257.15 270.877 248.94C264.491 240.729 265.048 235.256 266.125 233.545L258.903 227.273C249.907 231.962 231.573 242.365 230.205 246.469ZM382.559 148.841C383.324 150.462 384.828 154.542 384.72 157.893C384.585 162.081 382.964 170.998 385.531 175.726C388.098 180.454 404.445 203.421 408.092 206.394C406.877 211.257 404.445 218.012 404.85 218.958C405.255 219.904 405.796 226.929 403.904 230.982C402.391 234.224 396.609 248.905 393.907 255.84C393.727 258.677 393.718 265.27 395.123 268.945C396.879 273.538 397.42 285.967 397.42 288.399C397.42 290.345 402.553 300.288 405.12 305.016C412.962 300.647 431 292.42 440.425 294.462C452.206 297.014 467.129 302.119 475.376 296.229C475.376 284.605 473.281 279.343 472.234 278.165C470.074 275.003 465.715 267.396 465.558 262.26C465.401 257.124 458.817 248.339 455.544 244.588C454.824 239.287 454.209 227.584 457.508 223.186C461.631 217.688 463.595 211.789 464.576 206.394C465.362 202.077 451.944 186.076 445.138 178.614C443.698 175.538 440.425 169.072 438.854 167.815C437.283 166.558 436.105 170.564 435.713 172.724C430.423 165.9 418.344 151.569 412.347 148.841C406.349 146.113 399.245 139.017 396.442 135.81L392.908 138.166H389.374L385.531 141.896L382.559 148.841Z" stroke="black"/>
</svg>
