<svg width="500" height="500" viewBox="0 0 500 500" fill="none" xmlns="http://www.w3.org/2000/svg">
<g clip-path="url(#clip0_303_2)">
<path d="M297.315 202.864C262.194 222.97 243.26 292.182 257.365 327.565C272.948 366.639 370.392 360.703 381.573 351.176C392.754 341.648 301.345 311.16 313.818 275.207C327.671 235.301 397.233 235.247 395.339 218.207C393.477 201.44 337.911 179.625 297.315 202.864Z" stroke="black" stroke-opacity="0.1" stroke-width="1.7" stroke-miterlimit="10"/>
<path d="M286.32 197.947C245.154 215.469 227.293 299.245 245.439 338.713C266.005 383.416 371.871 366.847 387.586 359.773C401.132 353.684 313.194 312.682 323.707 269.239C335.118 222.039 397.858 214.374 393.171 203.422C388.133 191.683 334.626 177.435 286.32 197.947Z" stroke="black" stroke-opacity="0.1" stroke-width="1.7" stroke-miterlimit="10"/>
<path d="M275.326 193.041C228.181 207.924 211.36 306.298 233.514 349.851C259.107 400.227 372.507 372.849 393.599 368.381C408.93 365.095 325.121 314.26 333.586 263.249C342.621 208.844 399.895 192.888 391.003 188.715C384.367 181.323 331.516 175.289 275.326 193.041Z" stroke="black" stroke-opacity="0.1" stroke-width="1.7" stroke-miterlimit="10"/>
<path d="M264.33 188.091C211.239 200.444 195.458 313.307 221.621 360.966C252.284 416.905 374.641 386.756 399.643 376.955C415.303 370.812 337.123 315.815 343.496 257.27C350.209 195.658 401.253 171.697 388.867 173.964C379.81 171.259 328.395 173.208 264.33 188.091Z" stroke="black" stroke-opacity="0.1" stroke-width="1.7" stroke-miterlimit="10"/>
<path d="M253.334 183.207C194.318 193.063 179.578 320.36 209.661 372.148C245.406 433.694 373.929 393.371 405.622 385.585C423.406 381.205 349.092 317.447 353.352 251.334C357.732 182.517 403.727 153.31 386.665 159.257C375.736 163.057 325.295 171.183 253.334 183.207Z" stroke="black" stroke-opacity="0.1" stroke-width="1.7" stroke-miterlimit="10"/>
<path d="M242.352 178.29C177.4 185.704 163.711 327.39 197.737 383.285C238.595 450.427 373.416 388.257 411.646 394.236C431.457 397.313 361.139 319.089 363.242 245.399C365.432 169.397 405.404 131.605 384.498 144.571C371.488 152.587 322.208 169.189 242.352 178.29Z" stroke="black" stroke-opacity="0.1" stroke-width="1.7" stroke-miterlimit="10"/>
<path d="M231.357 173.384C160.481 178.356 147.855 334.366 185.8 394.434C231.795 467.15 373.887 392.769 417.648 402.789C439.058 407.696 373.175 320.656 373.11 239.387C373.044 156.158 406.73 109.944 382.32 129.787C367.01 142.239 319.12 167.218 231.357 173.384Z" stroke="black" stroke-opacity="0.1" stroke-width="1.7" stroke-miterlimit="10"/>
<path d="M220.36 168.467C143.56 171.029 132.028 341.408 173.872 405.582C224.971 483.872 374.476 397.117 423.658 411.397C446.721 418.088 385.241 322.233 382.996 233.418C380.708 143.005 407.965 88.4574 380.149 115.058C362.452 131.967 316.008 165.28 220.36 168.467Z" stroke="black" stroke-opacity="0.1" stroke-width="1.7" stroke-miterlimit="10"/>
<path d="M209.366 163.549C126.641 163.713 116.15 348.416 161.948 416.73C218.171 500.594 375.167 401.398 429.671 420.015C454.443 428.48 397.322 323.842 392.875 227.46C388.374 129.841 409.182 67.0691 377.982 100.328C357.853 121.759 312.932 163.352 209.366 163.549Z" stroke="black" stroke-opacity="0.1" stroke-width="1.7" stroke-miterlimit="10"/>
<path d="M198.371 158.643C109.666 156.453 100.303 355.414 150.022 427.868C211.348 517.295 375.945 405.56 435.683 428.601C462.207 438.83 409.4 325.419 402.753 221.481C396.051 116.657 410.419 45.7039 375.802 85.5772C353.243 111.586 309.832 161.447 198.371 158.643Z" stroke="black" stroke-opacity="0.1" stroke-width="1.7" stroke-miterlimit="10"/>
<path d="M187.376 153.726C92.7798 149.116 84.435 362.412 138.096 439.016C204.591 534.006 376.832 409.71 441.696 437.209C470.004 449.189 421.502 327.007 412.642 215.513C403.739 103.471 411.613 24.3927 373.634 70.8476C348.621 101.434 306.722 159.552 187.376 153.726Z" stroke="black" stroke-opacity="0.1" stroke-width="1.7" stroke-miterlimit="10"/>
<path d="M176.381 148.809C75.8487 141.822 68.6319 369.41 126.169 450.164C197.812 550.707 377.674 413.828 447.707 445.783C477.812 459.538 433.591 328.606 422.52 209.511C411.426 90.2638 412.828 3.07048 371.465 56.0852C344.01 91.2933 303.612 157.657 176.381 148.809Z" stroke="black" stroke-opacity="0.1" stroke-width="1.7" stroke-miterlimit="10"/>
<path d="M165.387 143.903C58.9084 134.54 52.7977 376.452 114.245 461.301C191.035 567.407 378.607 417.935 453.732 454.413C485.665 469.92 445.704 330.172 432.41 203.565C419.115 76.9585 414.045 -18.1854 369.298 41.3453C339.39 81.1638 300.503 155.785 165.387 143.903Z" stroke="black" stroke-opacity="0.1" stroke-width="1.7" stroke-miterlimit="10"/>
<path d="M154.392 138.986C41.9673 127.257 36.9626 383.394 102.308 472.449C184.256 584.151 379.582 422.074 459.733 463.02C493.518 480.29 457.806 331.749 442.288 197.596C426.814 63.9153 415.271 -39.442 367.119 26.6375C334.769 71.0445 297.393 153.901 154.392 138.986Z" stroke="black" stroke-opacity="0.1" stroke-width="1.7" stroke-miterlimit="10"/>
<path d="M143.395 134.069C25.0238 119.975 21.3004 390.261 90.4133 483.598C177.727 600.645 380.62 426.104 465.776 471.618C501.411 490.662 469.949 333.326 452.197 191.629C434.543 50.7305 416.529 -60.7088 364.982 11.8976C330.146 60.9261 294.259 152.04 143.395 134.069Z" stroke="black" stroke-opacity="0.1" stroke-width="1.7" stroke-miterlimit="10"/>
<path d="M132.402 129.162C8.08364 112.703 5.45535 397.259 78.456 494.724C170.895 617.377 381.596 430.112 471.757 480.203C509.265 501.01 482.029 334.881 462.043 185.616C442.222 37.49 417.724 -81.9984 362.782 -2.88701C325.526 50.8067 291.139 150.167 132.402 129.162Z" stroke="black" stroke-opacity="0.1" stroke-width="1.7" stroke-miterlimit="10"/>
<path d="M121.407 124.246C-8.91254 105.432 -10.4019 404.268 66.5302 505.884C164.094 634.013 382.625 434.252 477.769 488.822C517.194 511.414 494.404 336.447 471.921 179.681C450.183 24.3051 418.95 -103.211 360.613 -17.5723C320.904 40.699 288.007 148.305 121.407 124.246Z" stroke="black" stroke-opacity="0.1" stroke-width="1.7" stroke-miterlimit="10"/>
<path d="M110.412 119.329C-25.8533 98.4011 -26.2584 411.277 54.6051 517.032C157.294 650.79 383.677 438.326 483.793 497.429C525.046 521.785 506.462 338.024 481.811 173.712C457.839 11.1201 420.178 -124.445 358.435 -32.3123C316.284 30.5913 284.832 146.751 110.412 119.329Z" stroke="black" stroke-opacity="0.1" stroke-width="1.7" stroke-miterlimit="10"/>
<path d="M99.4153 114.422C-42.7969 91.0745 -42.096 418.274 42.6772 528.18C150.481 667.501 384.738 442.389 489.803 506.037C532.94 532.166 518.528 339.579 491.687 167.744C465.492 -2.06533 421.413 -145.69 356.264 -47.0419C311.627 20.5379 281.709 144.823 99.4153 114.422Z" stroke="black" stroke-opacity="0.1" stroke-width="1.7" stroke-miterlimit="10"/>
<path d="M88.4209 109.506C-59.7378 83.7484 -57.9637 425.283 30.7519 539.318C143.681 684.18 385.822 446.463 495.816 514.634C540.847 542.548 530.652 341.189 501.565 161.808C473.092 -15.2176 422.465 -167.012 354.097 -61.7492C306.908 10.2987 278.588 142.885 88.4209 109.506Z" stroke="black" stroke-opacity="0.1" stroke-width="1.7" stroke-miterlimit="10"/>
<path d="M77.4271 104.588C-76.678 76.3887 -73.8526 432.302 18.8273 550.466C136.881 700.924 386.908 450.536 501.83 523.197C548.766 552.897 542.666 342.722 511.456 155.763C480.803 -28.4471 423.791 -188.214 351.93 -76.5228C302.354 0.245064 275.49 141.001 77.4271 104.588Z" stroke="black" stroke-opacity="0.1" stroke-width="1.7" stroke-miterlimit="10"/>
<path d="M349.75 -91.2519C297.797 -9.81889 272.336 139.019 66.4314 99.6821C-93.6312 69.0954 -89.6778 439.289 6.88976 561.614C130.08 717.647 387.991 454.61 507.841 531.838C604.759 594.304 501.675 -329.407 349.75 -91.2519Z" stroke="black" stroke-opacity="0.1" stroke-width="1.7" stroke-miterlimit="10"/>
</g>
<defs>
<clipPath id="clip0_303_2">
<rect width="500" height="500" fill="white"/>
</clipPath>
</defs>
</svg>
