<svg width="3093" height="833" viewBox="0 0 3093 833" fill="none" xmlns="http://www.w3.org/2000/svg">
<mask id="path-1-outside-1_383_6" maskUnits="userSpaceOnUse" x="-0.0638428" y="0" width="3093" height="833" fill="black">
<rect fill="white" x="-0.0638428" width="3093" height="833"/>
<path d="M592.216 728.756L679.696 665.763C720.016 675.095 761.416 685.594 803.896 697.26C846.376 708.925 886.696 720.299 924.856 731.381C963.016 741.88 995.776 751.795 1023.14 761.128L908.656 827.62C884.896 818.288 855.736 807.789 821.176 796.124C787.336 785.042 750.616 773.668 711.016 762.003C672.136 750.337 632.536 739.255 592.216 728.756ZM80.2962 59.4549H959.416V138.196H80.2962V59.4549ZM24.1362 274.681H1011.26V363.046H24.1362V274.681ZM447.496 309.677H576.016V648.265H447.496V309.677ZM270.376 571.274V612.394H763.936V571.274H270.376ZM270.376 463.66V505.656H763.936V463.66H270.376ZM145.096 393.668H894.616V683.261H145.096V393.668ZM328.696 665.763L435.616 726.132C406.096 739.547 371.896 752.67 333.016 765.502C294.856 778.334 255.256 790.291 214.216 801.373C173.176 812.455 134.296 821.788 97.5762 829.37C86.7762 818.871 72.7362 806.623 55.4562 792.624C38.1762 779.209 22.3362 767.835 7.93616 758.503C45.3762 751.504 84.6162 743.046 125.656 733.131C166.696 723.215 204.856 712.425 240.136 700.759C276.136 688.511 305.656 676.845 328.696 665.763ZM267.136 5.21084H392.416V176.692H641.896V5.21084H773.656V246.684H267.136V5.21084Z"/>
<path d="M1064.18 112.824L2019.98 110.613V209.477L1064.18 211.688V112.824ZM1134.38 304.842H1956.26V404.581H1134.38V304.842ZM1251.02 698.549H1824.5V794.788H1251.02V698.549ZM1472.42 3H1609.58V354.711H1472.42V3ZM1175.42 476.323H1919.54V827.159H1778.06V569.938H1309.34V827.159H1175.42V476.323Z"/>
<path d="M2608.58 69.4927H2908.82V149.109H2608.58V69.4927ZM2547.02 463.199H3021.14V544.565H2547.02V463.199ZM2423.9 729.17H3067.58V812.286H2423.9V729.17ZM2521.1 598.809H3003.86V677.551H2521.1V598.809ZM2885.06 69.4927H2908.82L2929.34 65.993L3007.1 93.99C2984.78 141.235 2955.98 183.522 2920.7 220.851C2885.42 257.597 2844.74 289.677 2798.66 317.09C2753.3 344.504 2703.62 368.127 2649.62 387.958C2595.62 407.206 2538.74 423.245 2478.98 436.077C2472.5 423.829 2463.14 409.539 2450.9 393.207C2439.38 376.292 2427.86 362.585 2416.34 352.087C2470.34 343.338 2521.82 331.089 2570.78 315.341C2619.74 299.592 2664.74 280.344 2705.78 257.597C2747.54 234.849 2783.54 208.894 2813.78 179.731C2844.74 150.567 2868.5 118.487 2885.06 83.4911V69.4927ZM2637.74 123.737C2664.38 158.733 2699.66 190.521 2743.58 219.101C2788.22 247.681 2839.34 272.179 2896.94 292.593C2955.26 312.424 3017.9 327.589 3084.86 338.088C3071.9 348.004 3057.86 361.419 3042.74 378.334C3028.34 394.665 3016.82 409.247 3008.18 422.079C2938.34 408.08 2873.54 388.541 2813.78 363.46C2754.74 338.38 2701.46 308.341 2653.94 273.345C2607.14 237.766 2567.18 197.812 2534.06 153.483L2637.74 123.737ZM2633.42 3.87489L2754.38 20.4981C2727.74 67.7429 2693.54 113.821 2651.78 158.733C2610.02 203.061 2557.82 243.599 2495.18 280.344C2490.14 273.345 2482.58 265.471 2472.5 256.722C2463.14 247.39 2453.06 238.932 2442.26 231.35C2432.18 223.184 2422.46 217.06 2413.1 212.977C2449.82 193.146 2482.22 171.565 2510.3 148.234C2539.1 124.903 2563.58 100.989 2583.74 76.4919C2604.62 51.4113 2621.18 27.2057 2633.42 3.87489ZM2536.22 394.957L2644.22 415.08C2629.1 453.575 2608.94 491.196 2583.74 527.942C2558.54 564.105 2531.9 594.435 2503.82 618.932C2497.34 613.683 2488.7 607.85 2477.9 601.434C2467.1 594.435 2455.94 587.727 2444.42 581.311C2432.9 574.312 2423.18 568.771 2415.26 564.688C2441.9 543.691 2465.66 518.318 2486.54 488.572C2508.14 458.242 2524.7 427.037 2536.22 394.957ZM2696.06 395.832H2818.1V773.79H2696.06V395.832ZM2104.22 40.6208H2359.1V135.11H2217.62V825.41H2104.22V40.6208ZM2320.22 40.6208H2340.74L2359.1 37.1212L2443.34 76.4919C2434.7 100.989 2424.98 127.528 2414.18 156.108C2403.38 184.688 2392.22 212.685 2380.7 240.099C2369.9 267.513 2359.46 292.593 2349.38 315.341C2382.5 348.587 2404.1 380.084 2414.18 409.83C2424.26 439.577 2429.3 467.282 2429.3 492.946C2429.3 520.943 2425.34 544.274 2417.42 562.938C2410.22 581.603 2397.98 595.893 2380.7 605.809C2372.06 610.475 2362.34 614.266 2351.54 617.182C2341.46 620.099 2330.66 622.432 2319.14 624.182C2298.98 625.932 2275.22 626.515 2247.86 625.932C2247.14 613.683 2244.26 598.809 2239.22 581.311C2234.9 563.813 2228.42 548.94 2219.78 536.691C2229.86 537.275 2238.5 537.566 2245.7 537.566C2253.62 537.566 2260.82 537.566 2267.3 537.566C2280.26 536.983 2290.34 534.358 2297.54 529.692C2304.02 525.609 2308.34 519.485 2310.5 511.319C2313.38 502.57 2314.82 492.071 2314.82 479.823C2314.82 459.408 2309.78 436.077 2299.7 409.83C2290.34 383.583 2270.54 355.878 2240.3 326.714C2247.5 306.883 2254.7 285.302 2261.9 261.971C2269.82 238.057 2277.38 214.143 2284.58 190.229C2292.5 166.315 2299.34 144.151 2305.1 123.737C2311.58 102.739 2316.62 85.241 2320.22 71.2425V40.6208Z"/>
</mask>
<path id="char-1" d="M592.216 728.756L679.696 665.763C720.016 675.095 761.416 685.594 803.896 697.26C846.376 708.925 886.696 720.299 924.856 731.381C963.016 741.88 995.776 751.795 1023.14 761.128L908.656 827.62C884.896 818.288 855.736 807.789 821.176 796.124C787.336 785.042 750.616 773.668 711.016 762.003C672.136 750.337 632.536 739.255 592.216 728.756ZM80.2962 59.4549H959.416V138.196H80.2962V59.4549ZM24.1362 274.681H1011.26V363.046H24.1362V274.681ZM447.496 309.677H576.016V648.265H447.496V309.677ZM270.376 571.274V612.394H763.936V571.274H270.376ZM270.376 463.66V505.656H763.936V463.66H270.376ZM145.096 393.668H894.616V683.261H145.096V393.668ZM328.696 665.763L435.616 726.132C406.096 739.547 371.896 752.67 333.016 765.502C294.856 778.334 255.256 790.291 214.216 801.373C173.176 812.455 134.296 821.788 97.5762 829.37C86.7762 818.871 72.7362 806.623 55.4562 792.624C38.1762 779.209 22.3362 767.835 7.93616 758.503C45.3762 751.504 84.6162 743.046 125.656 733.131C166.696 723.215 204.856 712.425 240.136 700.759C276.136 688.511 305.656 676.845 328.696 665.763ZM267.136 5.21084H392.416V176.692H641.896V5.21084H773.656V246.684H267.136V5.21084Z" fill="#3768FF"/>
<path id="char-2" d="M1064.18 112.824L2019.98 110.613V209.477L1064.18 211.688V112.824ZM1134.38 304.842H1956.26V404.581H1134.38V304.842ZM1251.02 698.549H1824.5V794.788H1251.02V698.549ZM1472.42 3H1609.58V354.711H1472.42V3ZM1175.42 476.323H1919.54V827.159H1778.06V569.938H1309.34V827.159H1175.42V476.323Z" fill="#3768FF"/>
<path id="char-3" d="M2608.58 69.4927H2908.82V149.109H2608.58V69.4927ZM2547.02 463.199H3021.14V544.565H2547.02V463.199ZM2423.9 729.17H3067.58V812.286H2423.9V729.17ZM2521.1 598.809H3003.86V677.551H2521.1V598.809ZM2885.06 69.4927H2908.82L2929.34 65.993L3007.1 93.99C2984.78 141.235 2955.98 183.522 2920.7 220.851C2885.42 257.597 2844.74 289.677 2798.66 317.09C2753.3 344.504 2703.62 368.127 2649.62 387.958C2595.62 407.206 2538.74 423.245 2478.98 436.077C2472.5 423.829 2463.14 409.539 2450.9 393.207C2439.38 376.292 2427.86 362.585 2416.34 352.087C2470.34 343.338 2521.82 331.089 2570.78 315.341C2619.74 299.592 2664.74 280.344 2705.78 257.597C2747.54 234.849 2783.54 208.894 2813.78 179.731C2844.74 150.567 2868.5 118.487 2885.06 83.4911V69.4927ZM2637.74 123.737C2664.38 158.733 2699.66 190.521 2743.58 219.101C2788.22 247.681 2839.34 272.179 2896.94 292.593C2955.26 312.424 3017.9 327.589 3084.86 338.088C3071.9 348.004 3057.86 361.419 3042.74 378.334C3028.34 394.665 3016.82 409.247 3008.18 422.079C2938.34 408.08 2873.54 388.541 2813.78 363.46C2754.74 338.38 2701.46 308.341 2653.94 273.345C2607.14 237.766 2567.18 197.812 2534.06 153.483L2637.74 123.737ZM2633.42 3.87489L2754.38 20.4981C2727.74 67.7429 2693.54 113.821 2651.78 158.733C2610.02 203.061 2557.82 243.599 2495.18 280.344C2490.14 273.345 2482.58 265.471 2472.5 256.722C2463.14 247.39 2453.06 238.932 2442.26 231.35C2432.18 223.184 2422.46 217.06 2413.1 212.977C2449.82 193.146 2482.22 171.565 2510.3 148.234C2539.1 124.903 2563.58 100.989 2583.74 76.4919C2604.62 51.4113 2621.18 27.2057 2633.42 3.87489ZM2536.22 394.957L2644.22 415.08C2629.1 453.575 2608.94 491.196 2583.74 527.942C2558.54 564.105 2531.9 594.435 2503.82 618.932C2497.34 613.683 2488.7 607.85 2477.9 601.434C2467.1 594.435 2455.94 587.727 2444.42 581.311C2432.9 574.312 2423.18 568.771 2415.26 564.688C2441.9 543.691 2465.66 518.318 2486.54 488.572C2508.14 458.242 2524.7 427.037 2536.22 394.957ZM2696.06 395.832H2818.1V773.79H2696.06V395.832ZM2104.22 40.6208H2359.1V135.11H2217.62V825.41H2104.22V40.6208ZM2320.22 40.6208H2340.74L2359.1 37.1212L2443.34 76.4919C2434.7 100.989 2424.98 127.528 2414.18 156.108C2403.38 184.688 2392.22 212.685 2380.7 240.099C2369.9 267.513 2359.46 292.593 2349.38 315.341C2382.5 348.587 2404.1 380.084 2414.18 409.83C2424.26 439.577 2429.3 467.282 2429.3 492.946C2429.3 520.943 2425.34 544.274 2417.42 562.938C2410.22 581.603 2397.98 595.893 2380.7 605.809C2372.06 610.475 2362.34 614.266 2351.54 617.182C2341.46 620.099 2330.66 622.432 2319.14 624.182C2298.98 625.932 2275.22 626.515 2247.86 625.932C2247.14 613.683 2244.26 598.809 2239.22 581.311C2234.9 563.813 2228.42 548.94 2219.78 536.691C2229.86 537.275 2238.5 537.566 2245.7 537.566C2253.62 537.566 2260.82 537.566 2267.3 537.566C2280.26 536.983 2290.34 534.358 2297.54 529.692C2304.02 525.609 2308.34 519.485 2310.5 511.319C2313.38 502.57 2314.82 492.071 2314.82 479.823C2314.82 459.408 2309.78 436.077 2299.7 409.83C2290.34 383.583 2270.54 355.878 2240.3 326.714C2247.5 306.883 2254.7 285.302 2261.9 261.971C2269.82 238.057 2277.38 214.143 2284.58 190.229C2292.5 166.315 2299.34 144.151 2305.1 123.737C2311.58 102.739 2316.62 85.241 2320.22 71.2425V40.6208Z" fill="#3768FF"/>
<path d="M592.216 728.756L590.463 726.322L585.284 730.051L591.46 731.659L592.216 728.756ZM679.696 665.763L680.373 662.84L679.047 662.534L677.943 663.329L679.696 665.763ZM803.896 697.26L804.691 694.367V694.367L803.896 697.26ZM924.856 731.381L924.02 734.262L924.04 734.268L924.06 734.273L924.856 731.381ZM1023.14 761.128L1024.64 763.722L1030.34 760.414L1024.1 758.288L1023.14 761.128ZM908.656 827.62L907.559 830.413L908.909 830.943L910.163 830.215L908.656 827.62ZM821.176 796.124L822.136 793.281L822.123 793.277L822.11 793.273L821.176 796.124ZM711.016 762.003L710.154 764.876L710.161 764.878L710.169 764.88L711.016 762.003ZM80.2962 59.4549V56.4549H77.2962V59.4549H80.2962ZM959.416 59.4549H962.416V56.4549H959.416V59.4549ZM959.416 138.196V141.196H962.416V138.196H959.416ZM80.2962 138.196H77.2962V141.196H80.2962V138.196ZM24.1362 274.681V271.681H21.1362V274.681H24.1362ZM1011.26 274.681H1014.26V271.681H1011.26V274.681ZM1011.26 363.046V366.046H1014.26V363.046H1011.26ZM24.1362 363.046H21.1362V366.046H24.1362V363.046ZM447.496 309.677V306.677H444.496V309.677H447.496ZM576.016 309.677H579.016V306.677H576.016V309.677ZM576.016 648.265V651.265H579.016V648.265H576.016ZM447.496 648.265H444.496V651.265H447.496V648.265ZM270.376 571.274V568.274H267.376V571.274H270.376ZM270.376 612.394H267.376V615.394H270.376V612.394ZM763.936 612.394V615.394H766.936V612.394H763.936ZM763.936 571.274H766.936V568.274H763.936V571.274ZM270.376 463.66V460.66H267.376V463.66H270.376ZM270.376 505.656H267.376V508.656H270.376V505.656ZM763.936 505.656V508.656H766.936V505.656H763.936ZM763.936 463.66H766.936V460.66H763.936V463.66ZM145.096 393.668V390.668H142.096V393.668H145.096ZM894.616 393.668H897.616V390.668H894.616V393.668ZM894.616 683.261V686.261H897.616V683.261H894.616ZM145.096 683.261H142.096V686.261H145.096V683.261ZM328.696 665.763L330.171 663.151L328.807 662.381L327.396 663.06L328.696 665.763ZM435.616 726.132L436.857 728.863L442.231 726.421L437.091 723.519L435.616 726.132ZM333.016 765.502L332.076 762.653L332.068 762.656L332.06 762.659L333.016 765.502ZM97.5762 829.37L95.485 831.521L96.6254 832.63L98.1829 832.308L97.5762 829.37ZM55.4562 792.624L57.3446 790.293L57.3204 790.274L57.2959 790.255L55.4562 792.624ZM7.93616 758.503L7.38487 755.554L-2.71797e-05 756.935L6.3046 761.021L7.93616 758.503ZM125.656 733.131L126.361 736.047V736.047L125.656 733.131ZM240.136 700.759L241.078 703.608L241.09 703.604L241.102 703.599L240.136 700.759ZM267.136 5.21084V2.21084H264.136V5.21084H267.136ZM392.416 5.21084H395.416V2.21084H392.416V5.21084ZM392.416 176.692H389.416V179.692H392.416V176.692ZM641.896 176.692V179.692H644.896V176.692H641.896ZM641.896 5.21084V2.21084H638.896V5.21084H641.896ZM773.656 5.21084H776.656V2.21084H773.656V5.21084ZM773.656 246.684V249.684H776.656V246.684H773.656ZM267.136 246.684H264.136V249.684H267.136V246.684ZM1064.18 112.824L1064.17 109.824L1061.18 109.831V112.824H1064.18ZM2019.98 110.613H2022.98V107.606L2019.97 107.613L2019.98 110.613ZM2019.98 209.477L2019.98 212.477L2022.98 212.47V209.477H2019.98ZM1064.18 211.688H1061.18V214.695L1064.18 214.688L1064.18 211.688ZM1134.38 304.842V301.842H1131.38V304.842H1134.38ZM1956.26 304.842H1959.26V301.842H1956.26V304.842ZM1956.26 404.581V407.581H1959.26V404.581H1956.26ZM1134.38 404.581H1131.38V407.581H1134.38V404.581ZM1251.02 698.549V695.549H1248.02V698.549H1251.02ZM1824.5 698.549H1827.5V695.549H1824.5V698.549ZM1824.5 794.788V797.788H1827.5V794.788H1824.5ZM1251.02 794.788H1248.02V797.788H1251.02V794.788ZM1472.42 3V0H1469.42V3H1472.42ZM1609.58 3H1612.58V0H1609.58V3ZM1609.58 354.711V357.711H1612.58V354.711H1609.58ZM1472.42 354.711H1469.42V357.711H1472.42V354.711ZM1175.42 476.323V473.323H1172.42V476.323H1175.42ZM1919.54 476.323H1922.54V473.323H1919.54V476.323ZM1919.54 827.159V830.159H1922.54V827.159H1919.54ZM1778.06 827.159H1775.06V830.159H1778.06V827.159ZM1778.06 569.938H1781.06V566.938H1778.06V569.938ZM1309.34 569.938V566.938H1306.34V569.938H1309.34ZM1309.34 827.159V830.159H1312.34V827.159H1309.34ZM1175.42 827.159H1172.42V830.159H1175.42V827.159ZM2608.58 69.4927V66.4927H2605.58V69.4927H2608.58ZM2908.82 149.109V152.109H2911.82V149.109H2908.82ZM2608.58 149.109H2605.58V152.109H2608.58V149.109ZM2547.02 463.199V460.199H2544.02V463.199H2547.02ZM3021.14 463.199H3024.14V460.199H3021.14V463.199ZM3021.14 544.565V547.565H3024.14V544.565H3021.14ZM2547.02 544.565H2544.02V547.565H2547.02V544.565ZM2423.9 729.17V726.17H2420.9V729.17H2423.9ZM3067.58 729.17H3070.58V726.17H3067.58V729.17ZM3067.58 812.286V815.286H3070.58V812.286H3067.58ZM2423.9 812.286H2420.9V815.286H2423.9V812.286ZM2521.1 598.809V595.809H2518.1V598.809H2521.1ZM3003.86 598.809H3006.86V595.809H3003.86V598.809ZM3003.86 677.551V680.551H3006.86V677.551H3003.86ZM2521.1 677.551H2518.1V680.551H2521.1V677.551ZM2885.06 69.4927V66.4927H2882.06V69.4927H2885.06ZM2929.34 65.993L2930.35 63.1704L2929.61 62.9031L2928.83 63.0357L2929.34 65.993ZM3007.1 93.99L3009.81 95.2715L3011.22 92.2859L3008.11 91.1673L3007.1 93.99ZM2920.7 220.851L2922.86 222.929L2922.87 222.92L2922.88 222.912L2920.7 220.851ZM2798.66 317.09L2797.12 314.512L2797.11 314.518L2797.1 314.523L2798.66 317.09ZM2649.62 387.958L2650.62 390.784L2650.64 390.779L2650.65 390.774L2649.62 387.958ZM2478.98 436.077L2476.32 437.48L2477.39 439.487L2479.61 439.01L2478.98 436.077ZM2450.9 393.207L2448.42 394.896L2448.45 394.952L2448.5 395.006L2450.9 393.207ZM2416.34 352.087L2415.86 349.125L2409.72 350.119L2414.32 354.304L2416.34 352.087ZM2570.78 315.341L2569.86 312.485V312.485L2570.78 315.341ZM2705.78 257.597L2704.34 254.962L2704.33 254.968L2704.32 254.973L2705.78 257.597ZM2813.78 179.731L2811.72 177.547L2811.71 177.559L2811.69 177.571L2813.78 179.731ZM2885.06 83.4911L2887.77 84.7743L2888.06 84.1651V83.4911H2885.06ZM2637.74 123.737L2640.12 121.92L2638.88 120.287L2636.91 120.853L2637.74 123.737ZM2743.58 219.101L2741.94 221.616L2741.95 221.622L2741.96 221.628L2743.58 219.101ZM2896.94 292.593L2895.93 295.421L2895.95 295.427L2895.97 295.433L2896.94 292.593ZM3084.86 338.088L3086.68 340.471L3092.25 336.21L3085.32 335.124L3084.86 338.088ZM3042.74 378.334L3040.5 376.334L3040.49 376.342L3040.49 376.35L3042.74 378.334ZM3008.18 422.079L3007.59 425.02L3009.55 425.413L3010.66 423.754L3008.18 422.079ZM2813.78 363.46L2812.6 366.222L2812.62 366.227L2813.78 363.46ZM2653.94 273.345L2652.12 275.734L2652.14 275.747L2652.16 275.761L2653.94 273.345ZM2534.06 153.483L2533.23 150.6L2529.05 151.798L2531.65 155.279L2534.06 153.483ZM2633.42 3.87489L2633.82 0.902827L2631.74 0.616077L2630.76 2.48116L2633.42 3.87489ZM2754.38 20.4981L2756.99 21.9716L2759.16 18.1269L2754.78 17.526L2754.38 20.4981ZM2651.78 158.733L2653.96 160.79L2653.97 160.783L2653.97 160.776L2651.78 158.733ZM2495.18 280.344L2492.74 282.098L2494.34 284.314L2496.69 282.932L2495.18 280.344ZM2472.5 256.722L2470.38 258.847L2470.45 258.92L2470.53 258.988L2472.5 256.722ZM2442.26 231.35L2440.37 233.681L2440.45 233.746L2440.53 233.805L2442.26 231.35ZM2413.1 212.977L2411.67 210.337L2406.25 213.264L2411.9 215.727L2413.1 212.977ZM2510.3 148.234L2508.41 145.903L2508.39 145.915L2508.38 145.927L2510.3 148.234ZM2583.74 76.4919L2581.43 74.5725L2581.43 74.579L2581.42 74.5856L2583.74 76.4919ZM2536.22 394.957L2536.77 392.008L2534.26 391.54L2533.39 393.943L2536.22 394.957ZM2644.22 415.08L2647.01 416.176L2648.34 412.796L2644.77 412.13L2644.22 415.08ZM2583.74 527.942L2586.2 529.657L2586.2 529.648L2586.21 529.639L2583.74 527.942ZM2503.82 618.932L2501.93 621.263L2503.89 622.851L2505.79 621.193L2503.82 618.932ZM2477.9 601.434L2476.26 603.952L2476.31 603.984L2476.36 604.013L2477.9 601.434ZM2444.42 581.311L2442.86 583.875L2442.91 583.905L2442.96 583.932L2444.42 581.311ZM2415.26 564.688L2413.4 562.332L2409.74 565.218L2413.88 567.355L2415.26 564.688ZM2486.54 488.572L2484.09 486.831L2484.09 486.84L2484.08 486.848L2486.54 488.572ZM2696.06 395.832V392.832H2693.06V395.832H2696.06ZM2818.1 395.832H2821.1V392.832H2818.1V395.832ZM2818.1 773.79V776.79H2821.1V773.79H2818.1ZM2696.06 773.79H2693.06V776.79H2696.06V773.79ZM2104.22 40.6208V37.6208H2101.22V40.6208H2104.22ZM2359.1 40.6208H2362.1V37.6208H2359.1V40.6208ZM2359.1 135.11V138.11H2362.1V135.11H2359.1ZM2217.62 135.11V132.11H2214.62V135.11H2217.62ZM2217.62 825.41V828.41H2220.62V825.41H2217.62ZM2104.22 825.41H2101.22V828.41H2104.22V825.41ZM2320.22 40.6208V37.6208H2317.22V40.6208H2320.22ZM2340.74 40.6208V43.6208H2341.02L2341.3 43.5678L2340.74 40.6208ZM2359.1 37.1212L2360.37 34.4034L2359.49 33.9926L2358.53 34.1743L2359.1 37.1212ZM2443.34 76.4919L2446.17 77.4897L2447.07 74.9254L2444.61 73.7741L2443.34 76.4919ZM2414.18 156.108L2411.37 155.048V155.048L2414.18 156.108ZM2380.7 240.099L2377.93 238.937L2377.92 238.968L2377.9 238.999L2380.7 240.099ZM2349.38 315.341L2346.63 314.125L2345.8 316.003L2347.25 317.458L2349.38 315.341ZM2417.42 562.938L2414.65 561.767L2414.64 561.812L2414.62 561.859L2417.42 562.938ZM2380.7 605.809L2382.12 608.448L2382.16 608.43L2382.19 608.411L2380.7 605.809ZM2351.54 617.182L2350.75 614.286L2350.73 614.293L2350.7 614.301L2351.54 617.182ZM2319.14 624.182L2319.4 627.17L2319.49 627.162L2319.59 627.148L2319.14 624.182ZM2247.86 625.932L2244.86 626.108L2245.02 628.872L2247.79 628.931L2247.86 625.932ZM2239.22 581.311L2236.3 582.03L2236.32 582.086L2236.33 582.142L2239.22 581.311ZM2219.78 536.691L2219.95 533.696L2213.74 533.337L2217.32 538.421L2219.78 536.691ZM2267.3 537.566V540.566H2267.36L2267.43 540.563L2267.3 537.566ZM2297.54 529.692L2295.94 527.154L2295.92 527.164L2295.9 527.175L2297.54 529.692ZM2310.5 511.319L2307.65 510.381L2307.62 510.466L2307.6 510.552L2310.5 511.319ZM2299.7 409.83L2296.87 410.838L2296.88 410.872L2296.9 410.906L2299.7 409.83ZM2240.3 326.714L2237.48 325.691L2236.81 327.522L2238.21 328.874L2240.3 326.714ZM2261.9 261.971L2259.05 261.028L2259.04 261.057L2259.03 261.087L2261.9 261.971ZM2284.58 190.229L2281.73 189.286L2281.72 189.325L2281.7 189.365L2284.58 190.229ZM2305.1 123.737L2302.23 122.852L2302.22 122.887L2302.21 122.922L2305.1 123.737ZM2320.22 71.2425L2323.12 71.9897L2323.22 71.6221V71.2425H2320.22ZM592.216 728.756L593.969 731.191L681.449 668.198L679.696 665.763L677.943 663.329L590.463 726.322L592.216 728.756ZM679.696 665.763L679.02 668.686C719.298 678.009 760.658 688.497 803.102 700.153L803.896 697.26L804.691 694.367C762.174 682.691 720.735 672.182 680.373 662.84L679.696 665.763ZM803.896 697.26L803.102 700.153C845.569 711.815 885.875 723.184 924.02 734.262L924.856 731.381L925.693 728.5C887.517 717.413 847.183 706.036 804.691 694.367L803.896 697.26ZM924.856 731.381L924.06 734.273C962.182 744.762 994.881 754.66 1022.17 763.967L1023.14 761.128L1024.1 758.288C996.671 748.931 963.851 738.998 925.652 728.488L924.856 731.381ZM1023.14 761.128L1021.63 758.534L907.149 825.026L908.656 827.62L910.163 830.215L1024.64 763.722L1023.14 761.128ZM908.656 827.62L909.753 824.828C885.933 815.472 856.724 804.956 822.136 793.281L821.176 796.124L820.217 798.966C854.748 810.622 883.859 821.104 907.559 830.413L908.656 827.62ZM821.176 796.124L822.11 793.273C788.237 782.18 751.488 770.797 711.864 759.125L711.016 762.003L710.169 764.88C749.744 776.539 786.435 787.903 820.243 798.975L821.176 796.124ZM711.016 762.003L711.878 759.129C672.962 747.453 633.327 736.361 592.972 725.853L592.216 728.756L591.46 731.659C631.746 742.149 671.31 753.221 710.154 764.876L711.016 762.003ZM80.2962 59.4549V62.4549H959.416V59.4549V56.4549H80.2962V59.4549ZM959.416 59.4549H956.416V138.196H959.416H962.416V59.4549H959.416ZM959.416 138.196V135.196H80.2962V138.196V141.196H959.416V138.196ZM80.2962 138.196H83.2962V59.4549H80.2962H77.2962V138.196H80.2962ZM24.1362 274.681V277.681H1011.26V274.681V271.681H24.1362V274.681ZM1011.26 274.681H1008.26V363.046H1011.26H1014.26V274.681H1011.26ZM1011.26 363.046V360.046H24.1362V363.046V366.046H1011.26V363.046ZM24.1362 363.046H27.1362V274.681H24.1362H21.1362V363.046H24.1362ZM447.496 309.677V312.677H576.016V309.677V306.677H447.496V309.677ZM576.016 309.677H573.016V648.265H576.016H579.016V309.677H576.016ZM576.016 648.265V645.265H447.496V648.265V651.265H576.016V648.265ZM447.496 648.265H450.496V309.677H447.496H444.496V648.265H447.496ZM270.376 571.274H267.376V612.394H270.376H273.376V571.274H270.376ZM270.376 612.394V615.394H763.936V612.394V609.394H270.376V612.394ZM763.936 612.394H766.936V571.274H763.936H760.936V612.394H763.936ZM763.936 571.274V568.274H270.376V571.274V574.274H763.936V571.274ZM270.376 463.66H267.376V505.656H270.376H273.376V463.66H270.376ZM270.376 505.656V508.656H763.936V505.656V502.656H270.376V505.656ZM763.936 505.656H766.936V463.66H763.936H760.936V505.656H763.936ZM763.936 463.66V460.66H270.376V463.66V466.66H763.936V463.66ZM145.096 393.668V396.668H894.616V393.668V390.668H145.096V393.668ZM894.616 393.668H891.616V683.261H894.616H897.616V393.668H894.616ZM894.616 683.261V680.261H145.096V683.261V686.261H894.616V683.261ZM145.096 683.261H148.096V393.668H145.096H142.096V683.261H145.096ZM328.696 665.763L327.221 668.376L434.141 728.744L435.616 726.132L437.091 723.519L330.171 663.151L328.696 665.763ZM435.616 726.132L434.375 723.4C404.975 736.761 370.879 749.847 332.076 762.653L333.016 765.502L333.956 768.351C372.914 755.494 407.218 742.332 436.857 728.863L435.616 726.132ZM333.016 765.502L332.06 762.659C293.961 775.47 254.419 787.41 213.434 798.477L214.216 801.373L214.998 804.27C256.094 793.172 295.752 781.198 333.972 768.346L333.016 765.502ZM214.216 801.373L213.434 798.477C172.445 809.545 133.623 818.863 96.9695 826.432L97.5762 829.37L98.1829 832.308C134.969 824.712 173.908 815.365 214.998 804.27L214.216 801.373ZM97.5762 829.37L99.6673 827.219C88.7799 816.635 74.6651 804.324 57.3446 790.293L55.4562 792.624L53.5678 794.955C70.8072 808.921 84.7725 821.107 95.485 831.521L97.5762 829.37ZM55.4562 792.624L57.2959 790.255C39.9659 776.8 24.0554 765.375 9.56772 755.985L7.93616 758.503L6.3046 761.021C20.6169 770.296 36.3865 781.618 53.6165 794.994L55.4562 792.624ZM7.93616 758.503L8.48744 761.452C45.984 754.442 85.2753 745.973 126.361 736.047L125.656 733.131L124.952 730.215C83.957 740.119 44.7684 748.565 7.38487 755.554L7.93616 758.503ZM125.656 733.131L126.361 736.047C167.47 726.115 205.71 715.302 241.078 703.608L240.136 700.759L239.194 697.911C204.002 709.547 165.922 720.316 124.952 730.215L125.656 733.131ZM240.136 700.759L241.102 703.599C277.167 691.329 306.81 679.62 329.997 668.467L328.696 665.763L327.396 663.06C304.503 674.071 275.105 685.693 239.17 697.919L240.136 700.759ZM267.136 5.21084V8.21084H392.416V5.21084V2.21084H267.136V5.21084ZM392.416 5.21084H389.416V176.692H392.416H395.416V5.21084H392.416ZM392.416 176.692V179.692H641.896V176.692V173.692H392.416V176.692ZM641.896 176.692H644.896V5.21084H641.896H638.896V176.692H641.896ZM641.896 5.21084V8.21084H773.656V5.21084V2.21084H641.896V5.21084ZM773.656 5.21084H770.656V246.684H773.656H776.656V5.21084H773.656ZM773.656 246.684V243.684H267.136V246.684V249.684H773.656V246.684ZM267.136 246.684H270.136V5.21084H267.136H264.136V246.684H267.136ZM1064.18 112.824L1064.18 115.824L2019.98 113.613L2019.98 110.613L2019.97 107.613L1064.17 109.824L1064.18 112.824ZM2019.98 110.613H2016.98V209.477H2019.98H2022.98V110.613H2019.98ZM2019.98 209.477L2019.97 206.477L1064.17 208.688L1064.18 211.688L1064.18 214.688L2019.98 212.477L2019.98 209.477ZM1064.18 211.688H1067.18V112.824H1064.18H1061.18V211.688H1064.18ZM1134.38 304.842V307.842H1956.26V304.842V301.842H1134.38V304.842ZM1956.26 304.842H1953.26V404.581H1956.26H1959.26V304.842H1956.26ZM1956.26 404.581V401.581H1134.38V404.581V407.581H1956.26V404.581ZM1134.38 404.581H1137.38V304.842H1134.38H1131.38V404.581H1134.38ZM1251.02 698.549V701.549H1824.5V698.549V695.549H1251.02V698.549ZM1824.5 698.549H1821.5V794.788H1824.5H1827.5V698.549H1824.5ZM1824.5 794.788V791.788H1251.02V794.788V797.788H1824.5V794.788ZM1251.02 794.788H1254.02V698.549H1251.02H1248.02V794.788H1251.02ZM1472.42 3V6H1609.58V3V0H1472.42V3ZM1609.58 3H1606.58V354.711H1609.58H1612.58V3H1609.58ZM1609.58 354.711V351.711H1472.42V354.711V357.711H1609.58V354.711ZM1472.42 354.711H1475.42V3H1472.42H1469.42V354.711H1472.42ZM1175.42 476.323V479.323H1919.54V476.323V473.323H1175.42V476.323ZM1919.54 476.323H1916.54V827.159H1919.54H1922.54V476.323H1919.54ZM1919.54 827.159V824.159H1778.06V827.159V830.159H1919.54V827.159ZM1778.06 827.159H1781.06V569.938H1778.06H1775.06V827.159H1778.06ZM1778.06 569.938V566.938H1309.34V569.938V572.938H1778.06V569.938ZM1309.34 569.938H1306.34V827.159H1309.34H1312.34V569.938H1309.34ZM1309.34 827.159V824.159H1175.42V827.159V830.159H1309.34V827.159ZM1175.42 827.159H1178.42V476.323H1175.42H1172.42V827.159H1175.42ZM2608.58 69.4927V72.4927H2908.82V69.4927V66.4927H2608.58V69.4927ZM2908.82 69.4927H2905.82V149.109H2908.82H2911.82V69.4927H2908.82ZM2908.82 149.109V146.109H2608.58V149.109V152.109H2908.82V149.109ZM2608.58 149.109H2611.58V69.4927H2608.58H2605.58V149.109H2608.58ZM2547.02 463.199V466.199H3021.14V463.199V460.199H2547.02V463.199ZM3021.14 463.199H3018.14V544.565H3021.14H3024.14V463.199H3021.14ZM3021.14 544.565V541.565H2547.02V544.565V547.565H3021.14V544.565ZM2547.02 544.565H2550.02V463.199H2547.02H2544.02V544.565H2547.02ZM2423.9 729.17V732.17H3067.58V729.17V726.17H2423.9V729.17ZM3067.58 729.17H3064.58V812.286H3067.58H3070.58V729.17H3067.58ZM3067.58 812.286V809.286H2423.9V812.286V815.286H3067.58V812.286ZM2423.9 812.286H2426.9V729.17H2423.9H2420.9V812.286H2423.9ZM2521.1 598.809V601.809H3003.86V598.809V595.809H2521.1V598.809ZM3003.86 598.809H3000.86V677.551H3003.86H3006.86V598.809H3003.86ZM3003.86 677.551V674.551H2521.1V677.551V680.551H3003.86V677.551ZM2521.1 677.551H2524.1V598.809H2521.1H2518.1V677.551H2521.1ZM2885.06 69.4927V72.4927H2908.82V69.4927V66.4927H2885.06V69.4927ZM2908.82 69.4927L2909.32 72.45L2929.84 68.9503L2929.34 65.993L2928.83 63.0357L2908.31 66.5354L2908.82 69.4927ZM2929.34 65.993L2928.32 68.8157L3006.08 96.8126L3007.1 93.99L3008.11 91.1673L2930.35 63.1704L2929.34 65.993ZM3007.1 93.99L3004.38 92.7085C2982.2 139.672 2953.57 181.695 2918.52 218.79L2920.7 220.851L2922.88 222.912C2958.38 185.348 2987.36 142.797 3009.81 95.2715L3007.1 93.99ZM2920.7 220.851L2918.53 218.773C2883.45 255.315 2842.98 287.229 2797.12 314.512L2798.66 317.09L2800.19 319.669C2846.49 292.125 2887.38 259.879 2922.86 222.929L2920.7 220.851ZM2798.66 317.09L2797.1 314.523C2751.92 341.829 2702.42 365.371 2648.58 385.142L2649.62 387.958L2650.65 390.774C2704.82 370.882 2754.67 347.179 2800.21 319.658L2798.66 317.09ZM2649.62 387.958L2648.61 385.132C2594.74 404.333 2537.99 420.338 2478.35 433.144L2478.98 436.077L2479.61 439.01C2539.49 426.153 2596.49 410.078 2650.62 390.784L2649.62 387.958ZM2478.98 436.077L2481.63 434.674C2475.05 422.239 2465.59 407.812 2453.3 391.408L2450.9 393.207L2448.5 395.006C2460.68 411.265 2469.94 425.418 2476.32 437.48L2478.98 436.077ZM2450.9 393.207L2453.38 391.518C2441.76 374.467 2430.09 360.566 2418.36 349.869L2416.34 352.087L2414.32 354.304C2425.62 364.605 2436.99 378.118 2448.42 394.896L2450.9 393.207ZM2416.34 352.087L2416.82 355.048C2470.96 346.276 2522.58 333.994 2571.69 318.197L2570.78 315.341L2569.86 312.485C2521.05 328.184 2469.72 340.399 2415.86 349.125L2416.34 352.087ZM2570.78 315.341L2571.69 318.197C2620.82 302.394 2666 283.071 2707.23 260.221L2705.78 257.597L2704.32 254.973C2663.47 277.617 2618.65 296.791 2569.86 312.485L2570.78 315.341ZM2705.78 257.597L2707.21 260.232C2749.18 237.372 2785.4 211.263 2815.86 181.89L2813.78 179.731L2811.69 177.571C2781.67 206.525 2745.9 232.327 2704.34 254.962L2705.78 257.597ZM2813.78 179.731L2815.83 181.914C2847.04 152.519 2871.03 120.141 2887.77 84.7743L2885.06 83.4911L2882.34 82.208C2865.96 116.834 2842.43 148.615 2811.72 177.547L2813.78 179.731ZM2885.06 83.4911H2888.06V69.4927H2885.06H2882.06V83.4911H2885.06ZM2637.74 123.737L2635.35 125.554C2662.23 160.871 2697.79 192.883 2741.94 221.616L2743.58 219.101L2745.21 216.587C2701.53 188.159 2666.52 156.595 2640.12 121.92L2637.74 123.737ZM2743.58 219.101L2741.96 221.628C2786.82 250.349 2838.15 274.941 2895.93 295.421L2896.94 292.593L2897.94 289.765C2840.52 269.416 2789.61 245.014 2745.19 216.575L2743.58 219.101ZM2896.94 292.593L2895.97 295.433C2954.47 315.325 3017.28 330.529 3084.39 341.052L3084.86 338.088L3085.32 335.124C3018.51 324.65 2956.04 309.523 2897.9 289.753L2896.94 292.593ZM3084.86 338.088L3083.03 335.706C3069.88 345.77 3055.7 359.329 3040.5 376.334L3042.74 378.334L3044.97 380.333C3060.01 363.509 3073.91 350.237 3086.68 340.471L3084.86 338.088ZM3042.74 378.334L3040.49 376.35C3026.03 392.743 3014.42 407.43 3005.69 420.403L3008.18 422.079L3010.66 423.754C3019.21 411.064 3030.64 396.588 3044.99 380.318L3042.74 378.334ZM3008.18 422.079L3008.77 419.137C2939.1 405.174 2874.5 385.69 2814.94 360.694L2813.78 363.46L2812.62 366.227C2872.58 391.392 2937.57 410.987 3007.59 425.02L3008.18 422.079ZM2813.78 363.46L2814.95 360.699C2756.11 335.702 2703.03 305.776 2655.72 270.93L2653.94 273.345L2652.16 275.761C2699.88 310.907 2753.37 341.058 2812.6 366.222L2813.78 363.46ZM2653.94 273.345L2655.75 270.957C2609.16 235.536 2569.4 195.779 2536.46 151.688L2534.06 153.483L2531.65 155.279C2564.95 199.845 2605.11 239.995 2652.12 275.734L2653.94 273.345ZM2534.06 153.483L2534.88 156.367L2638.56 126.62L2637.74 123.737L2636.91 120.853L2533.23 150.6L2534.06 153.483ZM2633.42 3.87489L2633.01 6.84696L2753.97 23.4701L2754.38 20.4981L2754.78 17.526L2633.82 0.902827L2633.42 3.87489ZM2754.38 20.4981L2751.76 19.0246C2725.25 66.0392 2691.2 111.929 2649.58 156.69L2651.78 158.733L2653.97 160.776C2695.87 115.713 2730.22 69.4465 2756.99 21.9716L2754.38 20.4981ZM2651.78 158.733L2649.59 156.676C2608.06 200.761 2556.1 241.128 2493.66 277.757L2495.18 280.344L2496.69 282.932C2559.53 246.069 2611.97 205.361 2653.96 160.79L2651.78 158.733ZM2495.18 280.344L2497.61 278.591C2492.38 271.331 2484.63 263.285 2474.46 254.456L2472.5 256.722L2470.53 258.988C2480.52 267.658 2487.89 275.36 2492.74 282.098L2495.18 280.344ZM2472.5 256.722L2474.61 254.598C2465.13 245.144 2454.92 236.576 2443.98 228.895L2442.26 231.35L2440.53 233.805C2451.19 241.289 2461.14 249.635 2470.38 258.847L2472.5 256.722ZM2442.26 231.35L2444.14 229.019C2433.91 220.727 2423.96 214.442 2414.3 210.227L2413.1 212.977L2411.9 215.727C2420.95 219.677 2430.44 225.642 2440.37 233.681L2442.26 231.35ZM2413.1 212.977L2414.52 215.617C2451.39 195.704 2483.96 174.015 2512.21 150.542L2510.3 148.234L2508.38 145.927C2480.47 169.114 2448.24 190.587 2411.67 210.337L2413.1 212.977ZM2510.3 148.234L2512.18 150.565C2541.12 127.128 2565.75 103.075 2586.05 78.3982L2583.74 76.4919L2581.42 74.5856C2561.41 98.9039 2537.08 122.678 2508.41 145.903L2510.3 148.234ZM2583.74 76.4919L2586.04 78.4114C2607.03 53.2052 2623.71 28.8246 2636.07 5.26862L2633.42 3.87489L2630.76 2.48116C2618.64 25.5868 2602.21 49.6175 2581.43 74.5725L2583.74 76.4919ZM2536.22 394.957L2535.67 397.906L2643.67 418.029L2644.22 415.08L2644.77 412.13L2536.77 392.008L2536.22 394.957ZM2644.22 415.08L2641.42 413.983C2626.39 452.252 2606.34 489.673 2581.26 526.246L2583.74 527.942L2586.21 529.639C2611.53 492.72 2631.8 454.899 2647.01 416.176L2644.22 415.08ZM2583.74 527.942L2581.27 526.227C2556.19 562.224 2529.71 592.362 2501.84 616.672L2503.82 618.932L2505.79 621.193C2534.08 596.508 2560.88 565.986 2586.2 529.657L2583.74 527.942ZM2503.82 618.932L2505.7 616.601C2499.07 611.227 2490.3 605.312 2479.43 598.855L2477.9 601.434L2476.36 604.013C2487.09 610.388 2495.6 616.138 2501.93 621.263L2503.82 618.932ZM2477.9 601.434L2479.53 598.917C2468.67 591.88 2457.45 585.138 2445.88 578.69L2444.42 581.311L2442.96 583.932C2454.42 590.317 2465.52 596.99 2476.26 603.952L2477.9 601.434ZM2444.42 581.311L2445.97 578.747C2434.42 571.728 2424.64 566.148 2416.63 562.022L2415.26 564.688L2413.88 567.355C2421.72 571.394 2431.37 576.896 2442.86 583.875L2444.42 581.311ZM2415.26 564.688L2417.11 567.044C2444 545.854 2467.96 520.264 2488.99 490.295L2486.54 488.572L2484.08 486.848C2463.36 516.373 2439.79 541.527 2413.4 562.332L2415.26 564.688ZM2486.54 488.572L2488.98 490.312C2510.72 459.779 2527.42 428.332 2539.04 395.971L2536.22 394.957L2533.39 393.943C2521.97 425.742 2505.55 456.704 2484.09 486.831L2486.54 488.572ZM2696.06 395.832V398.832H2818.1V395.832V392.832H2696.06V395.832ZM2818.1 395.832H2815.1V773.79H2818.1H2821.1V395.832H2818.1ZM2818.1 773.79V770.79H2696.06V773.79V776.79H2818.1V773.79ZM2696.06 773.79H2699.06V395.832H2696.06H2693.06V773.79H2696.06ZM2104.22 40.6208V43.6208H2359.1V40.6208V37.6208H2104.22V40.6208ZM2359.1 40.6208H2356.1V135.11H2359.1H2362.1V40.6208H2359.1ZM2359.1 135.11V132.11H2217.62V135.11V138.11H2359.1V135.11ZM2217.62 135.11H2214.62V825.41H2217.62H2220.62V135.11H2217.62ZM2217.62 825.41V822.41H2104.22V825.41V828.41H2217.62V825.41ZM2104.22 825.41H2107.22V40.6208H2104.22H2101.22V825.41H2104.22ZM2320.22 40.6208V43.6208H2340.74V40.6208V37.6208H2320.22V40.6208ZM2340.74 40.6208L2341.3 43.5678L2359.66 40.0682L2359.1 37.1212L2358.53 34.1743L2340.17 37.6739L2340.74 40.6208ZM2359.1 37.1212L2357.83 39.839L2442.07 79.2097L2443.34 76.4919L2444.61 73.7741L2360.37 34.4034L2359.1 37.1212ZM2443.34 76.4919L2440.51 75.4941C2431.88 99.9672 2422.16 126.485 2411.37 155.048L2414.18 156.108L2416.98 157.169C2427.79 128.571 2437.52 102.011 2446.17 77.4897L2443.34 76.4919ZM2414.18 156.108L2411.37 155.048C2400.58 183.595 2389.44 211.558 2377.93 238.937L2380.7 240.099L2383.46 241.261C2395 213.813 2406.17 185.782 2416.98 157.169L2414.18 156.108ZM2380.7 240.099L2377.9 238.999C2367.12 266.381 2356.69 291.422 2346.63 314.125L2349.38 315.341L2352.12 316.556C2362.22 293.764 2372.67 268.644 2383.49 241.199L2380.7 240.099ZM2349.38 315.341L2347.25 317.458C2380.19 350.526 2401.46 381.642 2411.33 410.793L2414.18 409.83L2417.02 408.867C2406.74 378.525 2384.8 346.648 2351.5 313.223L2349.38 315.341ZM2414.18 409.83L2411.33 410.793C2421.33 440.297 2426.3 467.674 2426.3 492.946H2429.3H2432.3C2432.3 466.891 2427.18 438.857 2417.02 408.867L2414.18 409.83ZM2429.3 492.946H2426.3C2426.3 520.684 2422.37 543.585 2414.65 561.767L2417.42 562.938L2420.18 564.11C2428.3 544.963 2432.3 521.202 2432.3 492.946H2429.3ZM2417.42 562.938L2414.62 561.859C2407.66 579.884 2395.88 593.635 2379.2 603.207L2380.7 605.809L2382.19 608.411C2400.07 598.151 2412.77 583.322 2420.22 564.018L2417.42 562.938ZM2380.7 605.809L2379.27 603.169C2370.86 607.711 2361.36 611.422 2350.75 614.286L2351.54 617.182L2352.32 620.079C2363.31 617.11 2373.25 613.239 2382.12 608.448L2380.7 605.809ZM2351.54 617.182L2350.7 614.301C2340.76 617.177 2330.09 619.483 2318.69 621.216L2319.14 624.182L2319.59 627.148C2331.22 625.38 2342.15 623.021 2352.37 620.064L2351.54 617.182ZM2319.14 624.182L2318.88 621.193C2298.85 622.931 2275.21 623.514 2247.92 622.932L2247.86 625.932L2247.79 628.931C2275.23 629.516 2299.1 628.932 2319.4 627.17L2319.14 624.182ZM2247.86 625.932L2250.85 625.755C2250.11 613.207 2247.17 598.1 2242.1 580.481L2239.22 581.311L2236.33 582.142C2241.34 599.519 2244.16 614.159 2244.86 626.108L2247.86 625.932ZM2239.22 581.311L2242.13 580.592C2237.74 562.803 2231.12 547.571 2222.23 534.962L2219.78 536.691L2217.32 538.421C2225.71 550.309 2232.06 564.823 2236.3 582.03L2239.22 581.311ZM2219.78 536.691L2219.6 539.686C2229.72 540.272 2238.42 540.566 2245.7 540.566V537.566V534.566C2238.57 534.566 2229.99 534.277 2219.95 533.696L2219.78 536.691ZM2245.7 537.566V540.566C2245.71 540.566 2245.73 540.566 2245.74 540.566C2245.76 540.566 2245.77 540.566 2245.79 540.566C2245.8 540.566 2245.82 540.566 2245.84 540.566C2245.85 540.566 2245.87 540.566 2245.88 540.566C2245.9 540.566 2245.91 540.566 2245.93 540.566C2245.94 540.566 2245.96 540.566 2245.97 540.566C2245.99 540.566 2246.01 540.566 2246.02 540.566C2246.04 540.566 2246.05 540.566 2246.07 540.566C2246.08 540.566 2246.1 540.566 2246.11 540.566C2246.13 540.566 2246.14 540.566 2246.16 540.566C2246.17 540.566 2246.19 540.566 2246.21 540.566C2246.22 540.566 2246.24 540.566 2246.25 540.566C2246.27 540.566 2246.28 540.566 2246.3 540.566C2246.31 540.566 2246.33 540.566 2246.34 540.566C2246.36 540.566 2246.38 540.566 2246.39 540.566C2246.41 540.566 2246.42 540.566 2246.44 540.566C2246.45 540.566 2246.47 540.566 2246.48 540.566C2246.5 540.566 2246.51 540.566 2246.53 540.566C2246.54 540.566 2246.56 540.566 2246.57 540.566C2246.59 540.566 2246.61 540.566 2246.62 540.566C2246.64 540.566 2246.65 540.566 2246.67 540.566C2246.68 540.566 2246.7 540.566 2246.71 540.566C2246.73 540.566 2246.74 540.566 2246.76 540.566C2246.77 540.566 2246.79 540.566 2246.81 540.566C2246.82 540.566 2246.84 540.566 2246.85 540.566C2246.87 540.566 2246.88 540.566 2246.9 540.566C2246.91 540.566 2246.93 540.566 2246.94 540.566C2246.96 540.566 2246.97 540.566 2246.99 540.566C2247 540.566 2247.02 540.566 2247.04 540.566C2247.05 540.566 2247.07 540.566 2247.08 540.566C2247.1 540.566 2247.11 540.566 2247.13 540.566C2247.14 540.566 2247.16 540.566 2247.17 540.566C2247.19 540.566 2247.2 540.566 2247.22 540.566C2247.23 540.566 2247.25 540.566 2247.26 540.566C2247.28 540.566 2247.3 540.566 2247.31 540.566C2247.33 540.566 2247.34 540.566 2247.36 540.566C2247.37 540.566 2247.39 540.566 2247.4 540.566C2247.42 540.566 2247.43 540.566 2247.45 540.566C2247.46 540.566 2247.48 540.566 2247.49 540.566C2247.51 540.566 2247.52 540.566 2247.54 540.566C2247.55 540.566 2247.57 540.566 2247.59 540.566C2247.6 540.566 2247.62 540.566 2247.63 540.566C2247.65 540.566 2247.66 540.566 2247.68 540.566C2247.69 540.566 2247.71 540.566 2247.72 540.566C2247.74 540.566 2247.75 540.566 2247.77 540.566C2247.78 540.566 2247.8 540.566 2247.81 540.566C2247.83 540.566 2247.84 540.566 2247.86 540.566C2247.87 540.566 2247.89 540.566 2247.9 540.566C2247.92 540.566 2247.94 540.566 2247.95 540.566C2247.97 540.566 2247.98 540.566 2248 540.566C2248.01 540.566 2248.03 540.566 2248.04 540.566C2248.06 540.566 2248.07 540.566 2248.09 540.566C2248.1 540.566 2248.12 540.566 2248.13 540.566C2248.15 540.566 2248.16 540.566 2248.18 540.566C2248.19 540.566 2248.21 540.566 2248.22 540.566C2248.24 540.566 2248.25 540.566 2248.27 540.566C2248.28 540.566 2248.3 540.566 2248.31 540.566C2248.33 540.566 2248.34 540.566 2248.36 540.566C2248.38 540.566 2248.39 540.566 2248.41 540.566C2248.42 540.566 2248.44 540.566 2248.45 540.566C2248.47 540.566 2248.48 540.566 2248.5 540.566C2248.51 540.566 2248.53 540.566 2248.54 540.566C2248.56 540.566 2248.57 540.566 2248.59 540.566C2248.6 540.566 2248.62 540.566 2248.63 540.566C2248.65 540.566 2248.66 540.566 2248.68 540.566C2248.69 540.566 2248.71 540.566 2248.72 540.566C2248.74 540.566 2248.75 540.566 2248.77 540.566C2248.78 540.566 2248.8 540.566 2248.81 540.566C2248.83 540.566 2248.84 540.566 2248.86 540.566C2248.87 540.566 2248.89 540.566 2248.9 540.566C2248.92 540.566 2248.93 540.566 2248.95 540.566C2248.96 540.566 2248.98 540.566 2248.99 540.566C2249.01 540.566 2249.02 540.566 2249.04 540.566C2249.06 540.566 2249.07 540.566 2249.09 540.566C2249.1 540.566 2249.12 540.566 2249.13 540.566C2249.15 540.566 2249.16 540.566 2249.18 540.566C2249.19 540.566 2249.21 540.566 2249.22 540.566C2249.24 540.566 2249.25 540.566 2249.27 540.566C2249.28 540.566 2249.3 540.566 2249.31 540.566C2249.33 540.566 2249.34 540.566 2249.36 540.566C2249.37 540.566 2249.39 540.566 2249.4 540.566C2249.42 540.566 2249.43 540.566 2249.45 540.566C2249.46 540.566 2249.48 540.566 2249.49 540.566C2249.51 540.566 2249.52 540.566 2249.54 540.566C2249.55 540.566 2249.57 540.566 2249.58 540.566C2249.6 540.566 2249.61 540.566 2249.63 540.566C2249.64 540.566 2249.66 540.566 2249.67 540.566C2249.69 540.566 2249.7 540.566 2249.72 540.566C2249.73 540.566 2249.75 540.566 2249.76 540.566C2249.78 540.566 2249.79 540.566 2249.81 540.566C2249.82 540.566 2249.84 540.566 2249.85 540.566C2249.87 540.566 2249.88 540.566 2249.9 540.566C2249.91 540.566 2249.93 540.566 2249.94 540.566C2249.96 540.566 2249.97 540.566 2249.99 540.566C2250 540.566 2250.02 540.566 2250.03 540.566C2250.05 540.566 2250.06 540.566 2250.08 540.566C2250.09 540.566 2250.11 540.566 2250.12 540.566C2250.13 540.566 2250.15 540.566 2250.16 540.566C2250.18 540.566 2250.19 540.566 2250.21 540.566C2250.22 540.566 2250.24 540.566 2250.25 540.566C2250.27 540.566 2250.28 540.566 2250.3 540.566C2250.31 540.566 2250.33 540.566 2250.34 540.566C2250.36 540.566 2250.37 540.566 2250.39 540.566C2250.4 540.566 2250.42 540.566 2250.43 540.566C2250.45 540.566 2250.46 540.566 2250.48 540.566C2250.49 540.566 2250.51 540.566 2250.52 540.566C2250.54 540.566 2250.55 540.566 2250.57 540.566C2250.58 540.566 2250.6 540.566 2250.61 540.566C2250.63 540.566 2250.64 540.566 2250.66 540.566C2250.67 540.566 2250.69 540.566 2250.7 540.566C2250.72 540.566 2250.73 540.566 2250.75 540.566C2250.76 540.566 2250.78 540.566 2250.79 540.566C2250.81 540.566 2250.82 540.566 2250.83 540.566C2250.85 540.566 2250.86 540.566 2250.88 540.566C2250.89 540.566 2250.91 540.566 2250.92 540.566C2250.94 540.566 2250.95 540.566 2250.97 540.566C2250.98 540.566 2251 540.566 2251.01 540.566C2251.03 540.566 2251.04 540.566 2251.06 540.566C2251.07 540.566 2251.09 540.566 2251.1 540.566C2251.12 540.566 2251.13 540.566 2251.15 540.566C2251.16 540.566 2251.18 540.566 2251.19 540.566C2251.21 540.566 2251.22 540.566 2251.23 540.566C2251.25 540.566 2251.26 540.566 2251.28 540.566C2251.29 540.566 2251.31 540.566 2251.32 540.566C2251.34 540.566 2251.35 540.566 2251.37 540.566C2251.38 540.566 2251.4 540.566 2251.41 540.566C2251.43 540.566 2251.44 540.566 2251.46 540.566C2251.47 540.566 2251.49 540.566 2251.5 540.566C2251.52 540.566 2251.53 540.566 2251.55 540.566C2251.56 540.566 2251.58 540.566 2251.59 540.566C2251.6 540.566 2251.62 540.566 2251.63 540.566C2251.65 540.566 2251.66 540.566 2251.68 540.566C2251.69 540.566 2251.71 540.566 2251.72 540.566C2251.74 540.566 2251.75 540.566 2251.77 540.566C2251.78 540.566 2251.8 540.566 2251.81 540.566C2251.83 540.566 2251.84 540.566 2251.86 540.566C2251.87 540.566 2251.88 540.566 2251.9 540.566C2251.91 540.566 2251.93 540.566 2251.94 540.566C2251.96 540.566 2251.97 540.566 2251.99 540.566C2252 540.566 2252.02 540.566 2252.03 540.566C2252.05 540.566 2252.06 540.566 2252.08 540.566C2252.09 540.566 2252.11 540.566 2252.12 540.566C2252.13 540.566 2252.15 540.566 2252.16 540.566C2252.18 540.566 2252.19 540.566 2252.21 540.566C2252.22 540.566 2252.24 540.566 2252.25 540.566C2252.27 540.566 2252.28 540.566 2252.3 540.566C2252.31 540.566 2252.33 540.566 2252.34 540.566C2252.35 540.566 2252.37 540.566 2252.38 540.566C2252.4 540.566 2252.41 540.566 2252.43 540.566C2252.44 540.566 2252.46 540.566 2252.47 540.566C2252.49 540.566 2252.5 540.566 2252.52 540.566C2252.53 540.566 2252.55 540.566 2252.56 540.566C2252.57 540.566 2252.59 540.566 2252.6 540.566C2252.62 540.566 2252.63 540.566 2252.65 540.566C2252.66 540.566 2252.68 540.566 2252.69 540.566C2252.71 540.566 2252.72 540.566 2252.73 540.566C2252.75 540.566 2252.76 540.566 2252.78 540.566C2252.79 540.566 2252.81 540.566 2252.82 540.566C2252.84 540.566 2252.85 540.566 2252.87 540.566C2252.88 540.566 2252.9 540.566 2252.91 540.566C2252.92 540.566 2252.94 540.566 2252.95 540.566C2252.97 540.566 2252.98 540.566 2253 540.566C2253.01 540.566 2253.03 540.566 2253.04 540.566C2253.06 540.566 2253.07 540.566 2253.09 540.566C2253.1 540.566 2253.11 540.566 2253.13 540.566C2253.14 540.566 2253.16 540.566 2253.17 540.566C2253.19 540.566 2253.2 540.566 2253.22 540.566C2253.23 540.566 2253.25 540.566 2253.26 540.566C2253.27 540.566 2253.29 540.566 2253.3 540.566C2253.32 540.566 2253.33 540.566 2253.35 540.566C2253.36 540.566 2253.38 540.566 2253.39 540.566C2253.41 540.566 2253.42 540.566 2253.43 540.566C2253.45 540.566 2253.46 540.566 2253.48 540.566C2253.49 540.566 2253.51 540.566 2253.52 540.566C2253.54 540.566 2253.55 540.566 2253.57 540.566C2253.58 540.566 2253.59 540.566 2253.61 540.566C2253.62 540.566 2253.64 540.566 2253.65 540.566C2253.67 540.566 2253.68 540.566 2253.7 540.566C2253.71 540.566 2253.72 540.566 2253.74 540.566C2253.75 540.566 2253.77 540.566 2253.78 540.566C2253.8 540.566 2253.81 540.566 2253.83 540.566C2253.84 540.566 2253.85 540.566 2253.87 540.566C2253.88 540.566 2253.9 540.566 2253.91 540.566C2253.93 540.566 2253.94 540.566 2253.96 540.566C2253.97 540.566 2253.98 540.566 2254 540.566C2254.01 540.566 2254.03 540.566 2254.04 540.566C2254.06 540.566 2254.07 540.566 2254.09 540.566C2254.1 540.566 2254.11 540.566 2254.13 540.566C2254.14 540.566 2254.16 540.566 2254.17 540.566C2254.19 540.566 2254.2 540.566 2254.22 540.566C2254.23 540.566 2254.24 540.566 2254.26 540.566C2254.27 540.566 2254.29 540.566 2254.3 540.566C2254.32 540.566 2254.33 540.566 2254.35 540.566C2254.36 540.566 2254.37 540.566 2254.39 540.566C2254.4 540.566 2254.42 540.566 2254.43 540.566C2254.45 540.566 2254.46 540.566 2254.48 540.566C2254.49 540.566 2254.5 540.566 2254.52 540.566C2254.53 540.566 2254.55 540.566 2254.56 540.566C2254.58 540.566 2254.59 540.566 2254.6 540.566C2254.62 540.566 2254.63 540.566 2254.65 540.566C2254.66 540.566 2254.68 540.566 2254.69 540.566C2254.71 540.566 2254.72 540.566 2254.73 540.566C2254.75 540.566 2254.76 540.566 2254.78 540.566C2254.79 540.566 2254.81 540.566 2254.82 540.566C2254.83 540.566 2254.85 540.566 2254.86 540.566C2254.88 540.566 2254.89 540.566 2254.91 540.566C2254.92 540.566 2254.93 540.566 2254.95 540.566C2254.96 540.566 2254.98 540.566 2254.99 540.566C2255.01 540.566 2255.02 540.566 2255.04 540.566C2255.05 540.566 2255.06 540.566 2255.08 540.566C2255.09 540.566 2255.11 540.566 2255.12 540.566C2255.14 540.566 2255.15 540.566 2255.16 540.566C2255.18 540.566 2255.19 540.566 2255.21 540.566C2255.22 540.566 2255.24 540.566 2255.25 540.566C2255.26 540.566 2255.28 540.566 2255.29 540.566C2255.31 540.566 2255.32 540.566 2255.34 540.566C2255.35 540.566 2255.36 540.566 2255.38 540.566C2255.39 540.566 2255.41 540.566 2255.42 540.566C2255.44 540.566 2255.45 540.566 2255.46 540.566C2255.48 540.566 2255.49 540.566 2255.51 540.566C2255.52 540.566 2255.54 540.566 2255.55 540.566C2255.56 540.566 2255.58 540.566 2255.59 540.566C2255.61 540.566 2255.62 540.566 2255.64 540.566C2255.65 540.566 2255.66 540.566 2255.68 540.566C2255.69 540.566 2255.71 540.566 2255.72 540.566C2255.73 540.566 2255.75 540.566 2255.76 540.566C2255.78 540.566 2255.79 540.566 2255.81 540.566C2255.82 540.566 2255.83 540.566 2255.85 540.566C2255.86 540.566 2255.88 540.566 2255.89 540.566C2255.91 540.566 2255.92 540.566 2255.93 540.566C2255.95 540.566 2255.96 540.566 2255.98 540.566C2255.99 540.566 2256 540.566 2256.02 540.566C2256.03 540.566 2256.05 540.566 2256.06 540.566C2256.08 540.566 2256.09 540.566 2256.1 540.566C2256.12 540.566 2256.13 540.566 2256.15 540.566C2256.16 540.566 2256.17 540.566 2256.19 540.566C2256.2 540.566 2256.22 540.566 2256.23 540.566C2256.25 540.566 2256.26 540.566 2256.27 540.566C2256.29 540.566 2256.3 540.566 2256.32 540.566C2256.33 540.566 2256.34 540.566 2256.36 540.566C2256.37 540.566 2256.39 540.566 2256.4 540.566C2256.42 540.566 2256.43 540.566 2256.44 540.566C2256.46 540.566 2256.47 540.566 2256.49 540.566C2256.5 540.566 2256.51 540.566 2256.53 540.566C2256.54 540.566 2256.56 540.566 2256.57 540.566C2256.59 540.566 2256.6 540.566 2256.61 540.566C2256.63 540.566 2256.64 540.566 2256.66 540.566C2256.67 540.566 2256.68 540.566 2256.7 540.566C2256.71 540.566 2256.73 540.566 2256.74 540.566C2256.75 540.566 2256.77 540.566 2256.78 540.566C2256.8 540.566 2256.81 540.566 2256.83 540.566C2256.84 540.566 2256.85 540.566 2256.87 540.566C2256.88 540.566 2256.9 540.566 2256.91 540.566C2256.92 540.566 2256.94 540.566 2256.95 540.566C2256.97 540.566 2256.98 540.566 2256.99 540.566C2257.01 540.566 2257.02 540.566 2257.04 540.566C2257.05 540.566 2257.06 540.566 2257.08 540.566C2257.09 540.566 2257.11 540.566 2257.12 540.566C2257.13 540.566 2257.15 540.566 2257.16 540.566C2257.18 540.566 2257.19 540.566 2257.2 540.566C2257.22 540.566 2257.23 540.566 2257.25 540.566C2257.26 540.566 2257.28 540.566 2257.29 540.566C2257.3 540.566 2257.32 540.566 2257.33 540.566C2257.35 540.566 2257.36 540.566 2257.37 540.566C2257.39 540.566 2257.4 540.566 2257.42 540.566C2257.43 540.566 2257.44 540.566 2257.46 540.566C2257.47 540.566 2257.49 540.566 2257.5 540.566C2257.51 540.566 2257.53 540.566 2257.54 540.566C2257.56 540.566 2257.57 540.566 2257.58 540.566C2257.6 540.566 2257.61 540.566 2257.63 540.566C2257.64 540.566 2257.65 540.566 2257.67 540.566C2257.68 540.566 2257.7 540.566 2257.71 540.566C2257.72 540.566 2257.74 540.566 2257.75 540.566C2257.77 540.566 2257.78 540.566 2257.79 540.566C2257.81 540.566 2257.82 540.566 2257.83 540.566C2257.85 540.566 2257.86 540.566 2257.88 540.566C2257.89 540.566 2257.9 540.566 2257.92 540.566C2257.93 540.566 2257.95 540.566 2257.96 540.566C2257.97 540.566 2257.99 540.566 2258 540.566C2258.02 540.566 2258.03 540.566 2258.04 540.566C2258.06 540.566 2258.07 540.566 2258.09 540.566C2258.1 540.566 2258.11 540.566 2258.13 540.566C2258.14 540.566 2258.16 540.566 2258.17 540.566C2258.18 540.566 2258.2 540.566 2258.21 540.566C2258.22 540.566 2258.24 540.566 2258.25 540.566C2258.27 540.566 2258.28 540.566 2258.29 540.566C2258.31 540.566 2258.32 540.566 2258.34 540.566C2258.35 540.566 2258.36 540.566 2258.38 540.566C2258.39 540.566 2258.41 540.566 2258.42 540.566C2258.43 540.566 2258.45 540.566 2258.46 540.566C2258.47 540.566 2258.49 540.566 2258.5 540.566C2258.52 540.566 2258.53 540.566 2258.54 540.566C2258.56 540.566 2258.57 540.566 2258.59 540.566C2258.6 540.566 2258.61 540.566 2258.63 540.566C2258.64 540.566 2258.66 540.566 2258.67 540.566C2258.68 540.566 2258.7 540.566 2258.71 540.566C2258.72 540.566 2258.74 540.566 2258.75 540.566C2258.77 540.566 2258.78 540.566 2258.79 540.566C2258.81 540.566 2258.82 540.566 2258.84 540.566C2258.85 540.566 2258.86 540.566 2258.88 540.566C2258.89 540.566 2258.9 540.566 2258.92 540.566C2258.93 540.566 2258.95 540.566 2258.96 540.566C2258.97 540.566 2258.99 540.566 2259 540.566C2259.01 540.566 2259.03 540.566 2259.04 540.566C2259.06 540.566 2259.07 540.566 2259.08 540.566C2259.1 540.566 2259.11 540.566 2259.13 540.566C2259.14 540.566 2259.15 540.566 2259.17 540.566C2259.18 540.566 2259.19 540.566 2259.21 540.566C2259.22 540.566 2259.24 540.566 2259.25 540.566C2259.26 540.566 2259.28 540.566 2259.29 540.566C2259.3 540.566 2259.32 540.566 2259.33 540.566C2259.35 540.566 2259.36 540.566 2259.37 540.566C2259.39 540.566 2259.4 540.566 2259.41 540.566C2259.43 540.566 2259.44 540.566 2259.46 540.566C2259.47 540.566 2259.48 540.566 2259.5 540.566C2259.51 540.566 2259.52 540.566 2259.54 540.566C2259.55 540.566 2259.57 540.566 2259.58 540.566C2259.59 540.566 2259.61 540.566 2259.62 540.566C2259.63 540.566 2259.65 540.566 2259.66 540.566C2259.68 540.566 2259.69 540.566 2259.7 540.566C2259.72 540.566 2259.73 540.566 2259.74 540.566C2259.76 540.566 2259.77 540.566 2259.78 540.566C2259.8 540.566 2259.81 540.566 2259.83 540.566C2259.84 540.566 2259.85 540.566 2259.87 540.566C2259.88 540.566 2259.89 540.566 2259.91 540.566C2259.92 540.566 2259.94 540.566 2259.95 540.566C2259.96 540.566 2259.98 540.566 2259.99 540.566C2260 540.566 2260.02 540.566 2260.03 540.566C2260.04 540.566 2260.06 540.566 2260.07 540.566C2260.09 540.566 2260.1 540.566 2260.11 540.566C2260.13 540.566 2260.14 540.566 2260.15 540.566C2260.17 540.566 2260.18 540.566 2260.19 540.566C2260.21 540.566 2260.22 540.566 2260.24 540.566C2260.25 540.566 2260.26 540.566 2260.28 540.566C2260.29 540.566 2260.3 540.566 2260.32 540.566C2260.33 540.566 2260.34 540.566 2260.36 540.566C2260.37 540.566 2260.39 540.566 2260.4 540.566C2260.41 540.566 2260.43 540.566 2260.44 540.566C2260.45 540.566 2260.47 540.566 2260.48 540.566C2260.49 540.566 2260.51 540.566 2260.52 540.566C2260.54 540.566 2260.55 540.566 2260.56 540.566C2260.58 540.566 2260.59 540.566 2260.6 540.566C2260.62 540.566 2260.63 540.566 2260.64 540.566C2260.66 540.566 2260.67 540.566 2260.68 540.566C2260.7 540.566 2260.71 540.566 2260.73 540.566C2260.74 540.566 2260.75 540.566 2260.77 540.566C2260.78 540.566 2260.79 540.566 2260.81 540.566C2260.82 540.566 2260.83 540.566 2260.85 540.566C2260.86 540.566 2260.87 540.566 2260.89 540.566C2260.9 540.566 2260.92 540.566 2260.93 540.566C2260.94 540.566 2260.96 540.566 2260.97 540.566C2260.98 540.566 2261 540.566 2261.01 540.566C2261.02 540.566 2261.04 540.566 2261.05 540.566C2261.06 540.566 2261.08 540.566 2261.09 540.566C2261.11 540.566 2261.12 540.566 2261.13 540.566C2261.15 540.566 2261.16 540.566 2261.17 540.566C2261.19 540.566 2261.2 540.566 2261.21 540.566C2261.23 540.566 2261.24 540.566 2261.25 540.566C2261.27 540.566 2261.28 540.566 2261.29 540.566C2261.31 540.566 2261.32 540.566 2261.33 540.566C2261.35 540.566 2261.36 540.566 2261.38 540.566C2261.39 540.566 2261.4 540.566 2261.42 540.566C2261.43 540.566 2261.44 540.566 2261.46 540.566C2261.47 540.566 2261.48 540.566 2261.5 540.566C2261.51 540.566 2261.52 540.566 2261.54 540.566C2261.55 540.566 2261.56 540.566 2261.58 540.566C2261.59 540.566 2261.6 540.566 2261.62 540.566C2261.63 540.566 2261.64 540.566 2261.66 540.566C2261.67 540.566 2261.68 540.566 2261.7 540.566C2261.71 540.566 2261.73 540.566 2261.74 540.566C2261.75 540.566 2261.77 540.566 2261.78 540.566C2261.79 540.566 2261.81 540.566 2261.82 540.566C2261.83 540.566 2261.85 540.566 2261.86 540.566C2261.87 540.566 2261.89 540.566 2261.9 540.566C2261.91 540.566 2261.93 540.566 2261.94 540.566C2261.95 540.566 2261.97 540.566 2261.98 540.566C2261.99 540.566 2262.01 540.566 2262.02 540.566C2262.03 540.566 2262.05 540.566 2262.06 540.566C2262.07 540.566 2262.09 540.566 2262.1 540.566C2262.11 540.566 2262.13 540.566 2262.14 540.566C2262.15 540.566 2262.17 540.566 2262.18 540.566C2262.19 540.566 2262.21 540.566 2262.22 540.566C2262.23 540.566 2262.25 540.566 2262.26 540.566C2262.27 540.566 2262.29 540.566 2262.3 540.566C2262.31 540.566 2262.33 540.566 2262.34 540.566C2262.35 540.566 2262.37 540.566 2262.38 540.566C2262.39 540.566 2262.41 540.566 2262.42 540.566C2262.43 540.566 2262.45 540.566 2262.46 540.566C2262.47 540.566 2262.49 540.566 2262.5 540.566C2262.51 540.566 2262.53 540.566 2262.54 540.566C2262.55 540.566 2262.57 540.566 2262.58 540.566C2262.59 540.566 2262.61 540.566 2262.62 540.566C2262.63 540.566 2262.65 540.566 2262.66 540.566C2262.67 540.566 2262.69 540.566 2262.7 540.566C2262.71 540.566 2262.73 540.566 2262.74 540.566C2262.75 540.566 2262.77 540.566 2262.78 540.566C2262.79 540.566 2262.81 540.566 2262.82 540.566C2262.83 540.566 2262.85 540.566 2262.86 540.566C2262.87 540.566 2262.89 540.566 2262.9 540.566C2262.91 540.566 2262.93 540.566 2262.94 540.566C2262.95 540.566 2262.97 540.566 2262.98 540.566C2262.99 540.566 2263.01 540.566 2263.02 540.566C2263.03 540.566 2263.05 540.566 2263.06 540.566C2263.07 540.566 2263.09 540.566 2263.1 540.566C2263.11 540.566 2263.13 540.566 2263.14 540.566C2263.15 540.566 2263.17 540.566 2263.18 540.566C2263.19 540.566 2263.21 540.566 2263.22 540.566C2263.23 540.566 2263.25 540.566 2263.26 540.566C2263.27 540.566 2263.28 540.566 2263.3 540.566C2263.31 540.566 2263.32 540.566 2263.34 540.566C2263.35 540.566 2263.36 540.566 2263.38 540.566C2263.39 540.566 2263.4 540.566 2263.42 540.566C2263.43 540.566 2263.44 540.566 2263.46 540.566C2263.47 540.566 2263.48 540.566 2263.5 540.566C2263.51 540.566 2263.52 540.566 2263.54 540.566C2263.55 540.566 2263.56 540.566 2263.58 540.566C2263.59 540.566 2263.6 540.566 2263.61 540.566C2263.63 540.566 2263.64 540.566 2263.65 540.566C2263.67 540.566 2263.68 540.566 2263.69 540.566C2263.71 540.566 2263.72 540.566 2263.73 540.566C2263.75 540.566 2263.76 540.566 2263.77 540.566C2263.79 540.566 2263.8 540.566 2263.81 540.566C2263.83 540.566 2263.84 540.566 2263.85 540.566C2263.86 540.566 2263.88 540.566 2263.89 540.566C2263.9 540.566 2263.92 540.566 2263.93 540.566C2263.94 540.566 2263.96 540.566 2263.97 540.566C2263.98 540.566 2264 540.566 2264.01 540.566C2264.02 540.566 2264.04 540.566 2264.05 540.566C2264.06 540.566 2264.08 540.566 2264.09 540.566C2264.1 540.566 2264.11 540.566 2264.13 540.566C2264.14 540.566 2264.15 540.566 2264.17 540.566C2264.18 540.566 2264.19 540.566 2264.21 540.566C2264.22 540.566 2264.23 540.566 2264.25 540.566C2264.26 540.566 2264.27 540.566 2264.28 540.566C2264.3 540.566 2264.31 540.566 2264.32 540.566C2264.34 540.566 2264.35 540.566 2264.36 540.566C2264.38 540.566 2264.39 540.566 2264.4 540.566C2264.42 540.566 2264.43 540.566 2264.44 540.566C2264.45 540.566 2264.47 540.566 2264.48 540.566C2264.49 540.566 2264.51 540.566 2264.52 540.566C2264.53 540.566 2264.55 540.566 2264.56 540.566C2264.57 540.566 2264.59 540.566 2264.6 540.566C2264.61 540.566 2264.62 540.566 2264.64 540.566C2264.65 540.566 2264.66 540.566 2264.68 540.566C2264.69 540.566 2264.7 540.566 2264.72 540.566C2264.73 540.566 2264.74 540.566 2264.75 540.566C2264.77 540.566 2264.78 540.566 2264.79 540.566C2264.81 540.566 2264.82 540.566 2264.83 540.566C2264.85 540.566 2264.86 540.566 2264.87 540.566C2264.88 540.566 2264.9 540.566 2264.91 540.566C2264.92 540.566 2264.94 540.566 2264.95 540.566C2264.96 540.566 2264.98 540.566 2264.99 540.566C2265 540.566 2265.01 540.566 2265.03 540.566C2265.04 540.566 2265.05 540.566 2265.07 540.566C2265.08 540.566 2265.09 540.566 2265.11 540.566C2265.12 540.566 2265.13 540.566 2265.14 540.566C2265.16 540.566 2265.17 540.566 2265.18 540.566C2265.2 540.566 2265.21 540.566 2265.22 540.566C2265.23 540.566 2265.25 540.566 2265.26 540.566C2265.27 540.566 2265.29 540.566 2265.3 540.566C2265.31 540.566 2265.33 540.566 2265.34 540.566C2265.35 540.566 2265.36 540.566 2265.38 540.566C2265.39 540.566 2265.4 540.566 2265.42 540.566C2265.43 540.566 2265.44 540.566 2265.45 540.566C2265.47 540.566 2265.48 540.566 2265.49 540.566C2265.51 540.566 2265.52 540.566 2265.53 540.566C2265.55 540.566 2265.56 540.566 2265.57 540.566C2265.58 540.566 2265.6 540.566 2265.61 540.566C2265.62 540.566 2265.64 540.566 2265.65 540.566C2265.66 540.566 2265.67 540.566 2265.69 540.566C2265.7 540.566 2265.71 540.566 2265.73 540.566C2265.74 540.566 2265.75 540.566 2265.76 540.566C2265.78 540.566 2265.79 540.566 2265.8 540.566C2265.82 540.566 2265.83 540.566 2265.84 540.566C2265.85 540.566 2265.87 540.566 2265.88 540.566C2265.89 540.566 2265.91 540.566 2265.92 540.566C2265.93 540.566 2265.94 540.566 2265.96 540.566C2265.97 540.566 2265.98 540.566 2266 540.566C2266.01 540.566 2266.02 540.566 2266.03 540.566C2266.05 540.566 2266.06 540.566 2266.07 540.566C2266.09 540.566 2266.1 540.566 2266.11 540.566C2266.12 540.566 2266.14 540.566 2266.15 540.566C2266.16 540.566 2266.18 540.566 2266.19 540.566C2266.2 540.566 2266.21 540.566 2266.23 540.566C2266.24 540.566 2266.25 540.566 2266.27 540.566C2266.28 540.566 2266.29 540.566 2266.3 540.566C2266.32 540.566 2266.33 540.566 2266.34 540.566C2266.35 540.566 2266.37 540.566 2266.38 540.566C2266.39 540.566 2266.41 540.566 2266.42 540.566C2266.43 540.566 2266.44 540.566 2266.46 540.566C2266.47 540.566 2266.48 540.566 2266.5 540.566C2266.51 540.566 2266.52 540.566 2266.53 540.566C2266.55 540.566 2266.56 540.566 2266.57 540.566C2266.58 540.566 2266.6 540.566 2266.61 540.566C2266.62 540.566 2266.64 540.566 2266.65 540.566C2266.66 540.566 2266.67 540.566 2266.69 540.566C2266.7 540.566 2266.71 540.566 2266.72 540.566C2266.74 540.566 2266.75 540.566 2266.76 540.566C2266.78 540.566 2266.79 540.566 2266.8 540.566C2266.81 540.566 2266.83 540.566 2266.84 540.566C2266.85 540.566 2266.86 540.566 2266.88 540.566C2266.89 540.566 2266.9 540.566 2266.92 540.566C2266.93 540.566 2266.94 540.566 2266.95 540.566C2266.97 540.566 2266.98 540.566 2266.99 540.566C2267 540.566 2267.02 540.566 2267.03 540.566C2267.04 540.566 2267.06 540.566 2267.07 540.566C2267.08 540.566 2267.09 540.566 2267.11 540.566C2267.12 540.566 2267.13 540.566 2267.14 540.566C2267.16 540.566 2267.17 540.566 2267.18 540.566C2267.19 540.566 2267.21 540.566 2267.22 540.566C2267.23 540.566 2267.25 540.566 2267.26 540.566C2267.27 540.566 2267.28 540.566 2267.3 540.566V537.566V534.566C2267.28 534.566 2267.27 534.566 2267.26 534.566C2267.25 534.566 2267.23 534.566 2267.22 534.566C2267.21 534.566 2267.19 534.566 2267.18 534.566C2267.17 534.566 2267.16 534.566 2267.14 534.566C2267.13 534.566 2267.12 534.566 2267.11 534.566C2267.09 534.566 2267.08 534.566 2267.07 534.566C2267.06 534.566 2267.04 534.566 2267.03 534.566C2267.02 534.566 2267 534.566 2266.99 534.566C2266.98 534.566 2266.97 534.566 2266.95 534.566C2266.94 534.566 2266.93 534.566 2266.92 534.566C2266.9 534.566 2266.89 534.566 2266.88 534.566C2266.86 534.566 2266.85 534.566 2266.84 534.566C2266.83 534.566 2266.81 534.566 2266.8 534.566C2266.79 534.566 2266.78 534.566 2266.76 534.566C2266.75 534.566 2266.74 534.566 2266.72 534.566C2266.71 534.566 2266.7 534.566 2266.69 534.566C2266.67 534.566 2266.66 534.566 2266.65 534.566C2266.64 534.566 2266.62 534.566 2266.61 534.566C2266.6 534.566 2266.58 534.566 2266.57 534.566C2266.56 534.566 2266.55 534.566 2266.53 534.566C2266.52 534.566 2266.51 534.566 2266.5 534.566C2266.48 534.566 2266.47 534.566 2266.46 534.566C2266.44 534.566 2266.43 534.566 2266.42 534.566C2266.41 534.566 2266.39 534.566 2266.38 534.566C2266.37 534.566 2266.35 534.566 2266.34 534.566C2266.33 534.566 2266.32 534.566 2266.3 534.566C2266.29 534.566 2266.28 534.566 2266.27 534.566C2266.25 534.566 2266.24 534.566 2266.23 534.566C2266.21 534.566 2266.2 534.566 2266.19 534.566C2266.18 534.566 2266.16 534.566 2266.15 534.566C2266.14 534.566 2266.12 534.566 2266.11 534.566C2266.1 534.566 2266.09 534.566 2266.07 534.566C2266.06 534.566 2266.05 534.566 2266.03 534.566C2266.02 534.566 2266.01 534.566 2266 534.566C2265.98 534.566 2265.97 534.566 2265.96 534.566C2265.94 534.566 2265.93 534.566 2265.92 534.566C2265.91 534.566 2265.89 534.566 2265.88 534.566C2265.87 534.566 2265.85 534.566 2265.84 534.566C2265.83 534.566 2265.82 534.566 2265.8 534.566C2265.79 534.566 2265.78 534.566 2265.76 534.566C2265.75 534.566 2265.74 534.566 2265.73 534.566C2265.71 534.566 2265.7 534.566 2265.69 534.566C2265.67 534.566 2265.66 534.566 2265.65 534.566C2265.64 534.566 2265.62 534.566 2265.61 534.566C2265.6 534.566 2265.58 534.566 2265.57 534.566C2265.56 534.566 2265.55 534.566 2265.53 534.566C2265.52 534.566 2265.51 534.566 2265.49 534.566C2265.48 534.566 2265.47 534.566 2265.45 534.566C2265.44 534.566 2265.43 534.566 2265.42 534.566C2265.4 534.566 2265.39 534.566 2265.38 534.566C2265.36 534.566 2265.35 534.566 2265.34 534.566C2265.33 534.566 2265.31 534.566 2265.3 534.566C2265.29 534.566 2265.27 534.566 2265.26 534.566C2265.25 534.566 2265.23 534.566 2265.22 534.566C2265.21 534.566 2265.2 534.566 2265.18 534.566C2265.17 534.566 2265.16 534.566 2265.14 534.566C2265.13 534.566 2265.12 534.566 2265.11 534.566C2265.09 534.566 2265.08 534.566 2265.07 534.566C2265.05 534.566 2265.04 534.566 2265.03 534.566C2265.01 534.566 2265 534.566 2264.99 534.566C2264.98 534.566 2264.96 534.566 2264.95 534.566C2264.94 534.566 2264.92 534.566 2264.91 534.566C2264.9 534.566 2264.88 534.566 2264.87 534.566C2264.86 534.566 2264.85 534.566 2264.83 534.566C2264.82 534.566 2264.81 534.566 2264.79 534.566C2264.78 534.566 2264.77 534.566 2264.75 534.566C2264.74 534.566 2264.73 534.566 2264.72 534.566C2264.7 534.566 2264.69 534.566 2264.68 534.566C2264.66 534.566 2264.65 534.566 2264.64 534.566C2264.62 534.566 2264.61 534.566 2264.6 534.566C2264.59 534.566 2264.57 534.566 2264.56 534.566C2264.55 534.566 2264.53 534.566 2264.52 534.566C2264.51 534.566 2264.49 534.566 2264.48 534.566C2264.47 534.566 2264.45 534.566 2264.44 534.566C2264.43 534.566 2264.42 534.566 2264.4 534.566C2264.39 534.566 2264.38 534.566 2264.36 534.566C2264.35 534.566 2264.34 534.566 2264.32 534.566C2264.31 534.566 2264.3 534.566 2264.28 534.566C2264.27 534.566 2264.26 534.566 2264.25 534.566C2264.23 534.566 2264.22 534.566 2264.21 534.566C2264.19 534.566 2264.18 534.566 2264.17 534.566C2264.15 534.566 2264.14 534.566 2264.13 534.566C2264.11 534.566 2264.1 534.566 2264.09 534.566C2264.08 534.566 2264.06 534.566 2264.05 534.566C2264.04 534.566 2264.02 534.566 2264.01 534.566C2264 534.566 2263.98 534.566 2263.97 534.566C2263.96 534.566 2263.94 534.566 2263.93 534.566C2263.92 534.566 2263.9 534.566 2263.89 534.566C2263.88 534.566 2263.86 534.566 2263.85 534.566C2263.84 534.566 2263.83 534.566 2263.81 534.566C2263.8 534.566 2263.79 534.566 2263.77 534.566C2263.76 534.566 2263.75 534.566 2263.73 534.566C2263.72 534.566 2263.71 534.566 2263.69 534.566C2263.68 534.566 2263.67 534.566 2263.65 534.566C2263.64 534.566 2263.63 534.566 2263.61 534.566C2263.6 534.566 2263.59 534.566 2263.58 534.566C2263.56 534.566 2263.55 534.566 2263.54 534.566C2263.52 534.566 2263.51 534.566 2263.5 534.566C2263.48 534.566 2263.47 534.566 2263.46 534.566C2263.44 534.566 2263.43 534.566 2263.42 534.566C2263.4 534.566 2263.39 534.566 2263.38 534.566C2263.36 534.566 2263.35 534.566 2263.34 534.566C2263.32 534.566 2263.31 534.566 2263.3 534.566C2263.28 534.566 2263.27 534.566 2263.26 534.566C2263.25 534.566 2263.23 534.566 2263.22 534.566C2263.21 534.566 2263.19 534.566 2263.18 534.566C2263.17 534.566 2263.15 534.566 2263.14 534.566C2263.13 534.566 2263.11 534.566 2263.1 534.566C2263.09 534.566 2263.07 534.566 2263.06 534.566C2263.05 534.566 2263.03 534.566 2263.02 534.566C2263.01 534.566 2262.99 534.566 2262.98 534.566C2262.97 534.566 2262.95 534.566 2262.94 534.566C2262.93 534.566 2262.91 534.566 2262.9 534.566C2262.89 534.566 2262.87 534.566 2262.86 534.566C2262.85 534.566 2262.83 534.566 2262.82 534.566C2262.81 534.566 2262.79 534.566 2262.78 534.566C2262.77 534.566 2262.75 534.566 2262.74 534.566C2262.73 534.566 2262.71 534.566 2262.7 534.566C2262.69 534.566 2262.67 534.566 2262.66 534.566C2262.65 534.566 2262.63 534.566 2262.62 534.566C2262.61 534.566 2262.59 534.566 2262.58 534.566C2262.57 534.566 2262.55 534.566 2262.54 534.566C2262.53 534.566 2262.51 534.566 2262.5 534.566C2262.49 534.566 2262.47 534.566 2262.46 534.566C2262.45 534.566 2262.43 534.566 2262.42 534.566C2262.41 534.566 2262.39 534.566 2262.38 534.566C2262.37 534.566 2262.35 534.566 2262.34 534.566C2262.33 534.566 2262.31 534.566 2262.3 534.566C2262.29 534.566 2262.27 534.566 2262.26 534.566C2262.25 534.566 2262.23 534.566 2262.22 534.566C2262.21 534.566 2262.19 534.566 2262.18 534.566C2262.17 534.566 2262.15 534.566 2262.14 534.566C2262.13 534.566 2262.11 534.566 2262.1 534.566C2262.09 534.566 2262.07 534.566 2262.06 534.566C2262.05 534.566 2262.03 534.566 2262.02 534.566C2262.01 534.566 2261.99 534.566 2261.98 534.566C2261.97 534.566 2261.95 534.566 2261.94 534.566C2261.93 534.566 2261.91 534.566 2261.9 534.566C2261.89 534.566 2261.87 534.566 2261.86 534.566C2261.85 534.566 2261.83 534.566 2261.82 534.566C2261.81 534.566 2261.79 534.566 2261.78 534.566C2261.77 534.566 2261.75 534.566 2261.74 534.566C2261.73 534.566 2261.71 534.566 2261.7 534.566C2261.68 534.566 2261.67 534.566 2261.66 534.566C2261.64 534.566 2261.63 534.566 2261.62 534.566C2261.6 534.566 2261.59 534.566 2261.58 534.566C2261.56 534.566 2261.55 534.566 2261.54 534.566C2261.52 534.566 2261.51 534.566 2261.5 534.566C2261.48 534.566 2261.47 534.566 2261.46 534.566C2261.44 534.566 2261.43 534.566 2261.42 534.566C2261.4 534.566 2261.39 534.566 2261.38 534.566C2261.36 534.566 2261.35 534.566 2261.33 534.566C2261.32 534.566 2261.31 534.566 2261.29 534.566C2261.28 534.566 2261.27 534.566 2261.25 534.566C2261.24 534.566 2261.23 534.566 2261.21 534.566C2261.2 534.566 2261.19 534.566 2261.17 534.566C2261.16 534.566 2261.15 534.566 2261.13 534.566C2261.12 534.566 2261.11 534.566 2261.09 534.566C2261.08 534.566 2261.06 534.566 2261.05 534.566C2261.04 534.566 2261.02 534.566 2261.01 534.566C2261 534.566 2260.98 534.566 2260.97 534.566C2260.96 534.566 2260.94 534.566 2260.93 534.566C2260.92 534.566 2260.9 534.566 2260.89 534.566C2260.87 534.566 2260.86 534.566 2260.85 534.566C2260.83 534.566 2260.82 534.566 2260.81 534.566C2260.79 534.566 2260.78 534.566 2260.77 534.566C2260.75 534.566 2260.74 534.566 2260.73 534.566C2260.71 534.566 2260.7 534.566 2260.68 534.566C2260.67 534.566 2260.66 534.566 2260.64 534.566C2260.63 534.566 2260.62 534.566 2260.6 534.566C2260.59 534.566 2260.58 534.566 2260.56 534.566C2260.55 534.566 2260.54 534.566 2260.52 534.566C2260.51 534.566 2260.49 534.566 2260.48 534.566C2260.47 534.566 2260.45 534.566 2260.44 534.566C2260.43 534.566 2260.41 534.566 2260.4 534.566C2260.39 534.566 2260.37 534.566 2260.36 534.566C2260.34 534.566 2260.33 534.566 2260.32 534.566C2260.3 534.566 2260.29 534.566 2260.28 534.566C2260.26 534.566 2260.25 534.566 2260.24 534.566C2260.22 534.566 2260.21 534.566 2260.19 534.566C2260.18 534.566 2260.17 534.566 2260.15 534.566C2260.14 534.566 2260.13 534.566 2260.11 534.566C2260.1 534.566 2260.09 534.566 2260.07 534.566C2260.06 534.566 2260.04 534.566 2260.03 534.566C2260.02 534.566 2260 534.566 2259.99 534.566C2259.98 534.566 2259.96 534.566 2259.95 534.566C2259.94 534.566 2259.92 534.566 2259.91 534.566C2259.89 534.566 2259.88 534.566 2259.87 534.566C2259.85 534.566 2259.84 534.566 2259.83 534.566C2259.81 534.566 2259.8 534.566 2259.78 534.566C2259.77 534.566 2259.76 534.566 2259.74 534.566C2259.73 534.566 2259.72 534.566 2259.7 534.566C2259.69 534.566 2259.68 534.566 2259.66 534.566C2259.65 534.566 2259.63 534.566 2259.62 534.566C2259.61 534.566 2259.59 534.566 2259.58 534.566C2259.57 534.566 2259.55 534.566 2259.54 534.566C2259.52 534.566 2259.51 534.566 2259.5 534.566C2259.48 534.566 2259.47 534.566 2259.46 534.566C2259.44 534.566 2259.43 534.566 2259.41 534.566C2259.4 534.566 2259.39 534.566 2259.37 534.566C2259.36 534.566 2259.35 534.566 2259.33 534.566C2259.32 534.566 2259.3 534.566 2259.29 534.566C2259.28 534.566 2259.26 534.566 2259.25 534.566C2259.24 534.566 2259.22 534.566 2259.21 534.566C2259.19 534.566 2259.18 534.566 2259.17 534.566C2259.15 534.566 2259.14 534.566 2259.13 534.566C2259.11 534.566 2259.1 534.566 2259.08 534.566C2259.07 534.566 2259.06 534.566 2259.04 534.566C2259.03 534.566 2259.01 534.566 2259 534.566C2258.99 534.566 2258.97 534.566 2258.96 534.566C2258.95 534.566 2258.93 534.566 2258.92 534.566C2258.9 534.566 2258.89 534.566 2258.88 534.566C2258.86 534.566 2258.85 534.566 2258.84 534.566C2258.82 534.566 2258.81 534.566 2258.79 534.566C2258.78 534.566 2258.77 534.566 2258.75 534.566C2258.74 534.566 2258.72 534.566 2258.71 534.566C2258.7 534.566 2258.68 534.566 2258.67 534.566C2258.66 534.566 2258.64 534.566 2258.63 534.566C2258.61 534.566 2258.6 534.566 2258.59 534.566C2258.57 534.566 2258.56 534.566 2258.54 534.566C2258.53 534.566 2258.52 534.566 2258.5 534.566C2258.49 534.566 2258.47 534.566 2258.46 534.566C2258.45 534.566 2258.43 534.566 2258.42 534.566C2258.41 534.566 2258.39 534.566 2258.38 534.566C2258.36 534.566 2258.35 534.566 2258.34 534.566C2258.32 534.566 2258.31 534.566 2258.29 534.566C2258.28 534.566 2258.27 534.566 2258.25 534.566C2258.24 534.566 2258.22 534.566 2258.21 534.566C2258.2 534.566 2258.18 534.566 2258.17 534.566C2258.16 534.566 2258.14 534.566 2258.13 534.566C2258.11 534.566 2258.1 534.566 2258.09 534.566C2258.07 534.566 2258.06 534.566 2258.04 534.566C2258.03 534.566 2258.02 534.566 2258 534.566C2257.99 534.566 2257.97 534.566 2257.96 534.566C2257.95 534.566 2257.93 534.566 2257.92 534.566C2257.9 534.566 2257.89 534.566 2257.88 534.566C2257.86 534.566 2257.85 534.566 2257.83 534.566C2257.82 534.566 2257.81 534.566 2257.79 534.566C2257.78 534.566 2257.77 534.566 2257.75 534.566C2257.74 534.566 2257.72 534.566 2257.71 534.566C2257.7 534.566 2257.68 534.566 2257.67 534.566C2257.65 534.566 2257.64 534.566 2257.63 534.566C2257.61 534.566 2257.6 534.566 2257.58 534.566C2257.57 534.566 2257.56 534.566 2257.54 534.566C2257.53 534.566 2257.51 534.566 2257.5 534.566C2257.49 534.566 2257.47 534.566 2257.46 534.566C2257.44 534.566 2257.43 534.566 2257.42 534.566C2257.4 534.566 2257.39 534.566 2257.37 534.566C2257.36 534.566 2257.35 534.566 2257.33 534.566C2257.32 534.566 2257.3 534.566 2257.29 534.566C2257.28 534.566 2257.26 534.566 2257.25 534.566C2257.23 534.566 2257.22 534.566 2257.2 534.566C2257.19 534.566 2257.18 534.566 2257.16 534.566C2257.15 534.566 2257.13 534.566 2257.12 534.566C2257.11 534.566 2257.09 534.566 2257.08 534.566C2257.06 534.566 2257.05 534.566 2257.04 534.566C2257.02 534.566 2257.01 534.566 2256.99 534.566C2256.98 534.566 2256.97 534.566 2256.95 534.566C2256.94 534.566 2256.92 534.566 2256.91 534.566C2256.9 534.566 2256.88 534.566 2256.87 534.566C2256.85 534.566 2256.84 534.566 2256.83 534.566C2256.81 534.566 2256.8 534.566 2256.78 534.566C2256.77 534.566 2256.75 534.566 2256.74 534.566C2256.73 534.566 2256.71 534.566 2256.7 534.566C2256.68 534.566 2256.67 534.566 2256.66 534.566C2256.64 534.566 2256.63 534.566 2256.61 534.566C2256.6 534.566 2256.59 534.566 2256.57 534.566C2256.56 534.566 2256.54 534.566 2256.53 534.566C2256.51 534.566 2256.5 534.566 2256.49 534.566C2256.47 534.566 2256.46 534.566 2256.44 534.566C2256.43 534.566 2256.42 534.566 2256.4 534.566C2256.39 534.566 2256.37 534.566 2256.36 534.566C2256.34 534.566 2256.33 534.566 2256.32 534.566C2256.3 534.566 2256.29 534.566 2256.27 534.566C2256.26 534.566 2256.25 534.566 2256.23 534.566C2256.22 534.566 2256.2 534.566 2256.19 534.566C2256.17 534.566 2256.16 534.566 2256.15 534.566C2256.13 534.566 2256.12 534.566 2256.1 534.566C2256.09 534.566 2256.08 534.566 2256.06 534.566C2256.05 534.566 2256.03 534.566 2256.02 534.566C2256 534.566 2255.99 534.566 2255.98 534.566C2255.96 534.566 2255.95 534.566 2255.93 534.566C2255.92 534.566 2255.91 534.566 2255.89 534.566C2255.88 534.566 2255.86 534.566 2255.85 534.566C2255.83 534.566 2255.82 534.566 2255.81 534.566C2255.79 534.566 2255.78 534.566 2255.76 534.566C2255.75 534.566 2255.73 534.566 2255.72 534.566C2255.71 534.566 2255.69 534.566 2255.68 534.566C2255.66 534.566 2255.65 534.566 2255.64 534.566C2255.62 534.566 2255.61 534.566 2255.59 534.566C2255.58 534.566 2255.56 534.566 2255.55 534.566C2255.54 534.566 2255.52 534.566 2255.51 534.566C2255.49 534.566 2255.48 534.566 2255.46 534.566C2255.45 534.566 2255.44 534.566 2255.42 534.566C2255.41 534.566 2255.39 534.566 2255.38 534.566C2255.36 534.566 2255.35 534.566 2255.34 534.566C2255.32 534.566 2255.31 534.566 2255.29 534.566C2255.28 534.566 2255.26 534.566 2255.25 534.566C2255.24 534.566 2255.22 534.566 2255.21 534.566C2255.19 534.566 2255.18 534.566 2255.16 534.566C2255.15 534.566 2255.14 534.566 2255.12 534.566C2255.11 534.566 2255.09 534.566 2255.08 534.566C2255.06 534.566 2255.05 534.566 2255.04 534.566C2255.02 534.566 2255.01 534.566 2254.99 534.566C2254.98 534.566 2254.96 534.566 2254.95 534.566C2254.93 534.566 2254.92 534.566 2254.91 534.566C2254.89 534.566 2254.88 534.566 2254.86 534.566C2254.85 534.566 2254.83 534.566 2254.82 534.566C2254.81 534.566 2254.79 534.566 2254.78 534.566C2254.76 534.566 2254.75 534.566 2254.73 534.566C2254.72 534.566 2254.71 534.566 2254.69 534.566C2254.68 534.566 2254.66 534.566 2254.65 534.566C2254.63 534.566 2254.62 534.566 2254.6 534.566C2254.59 534.566 2254.58 534.566 2254.56 534.566C2254.55 534.566 2254.53 534.566 2254.52 534.566C2254.5 534.566 2254.49 534.566 2254.48 534.566C2254.46 534.566 2254.45 534.566 2254.43 534.566C2254.42 534.566 2254.4 534.566 2254.39 534.566C2254.37 534.566 2254.36 534.566 2254.35 534.566C2254.33 534.566 2254.32 534.566 2254.3 534.566C2254.29 534.566 2254.27 534.566 2254.26 534.566C2254.24 534.566 2254.23 534.566 2254.22 534.566C2254.2 534.566 2254.19 534.566 2254.17 534.566C2254.16 534.566 2254.14 534.566 2254.13 534.566C2254.11 534.566 2254.1 534.566 2254.09 534.566C2254.07 534.566 2254.06 534.566 2254.04 534.566C2254.03 534.566 2254.01 534.566 2254 534.566C2253.98 534.566 2253.97 534.566 2253.96 534.566C2253.94 534.566 2253.93 534.566 2253.91 534.566C2253.9 534.566 2253.88 534.566 2253.87 534.566C2253.85 534.566 2253.84 534.566 2253.83 534.566C2253.81 534.566 2253.8 534.566 2253.78 534.566C2253.77 534.566 2253.75 534.566 2253.74 534.566C2253.72 534.566 2253.71 534.566 2253.7 534.566C2253.68 534.566 2253.67 534.566 2253.65 534.566C2253.64 534.566 2253.62 534.566 2253.61 534.566C2253.59 534.566 2253.58 534.566 2253.57 534.566C2253.55 534.566 2253.54 534.566 2253.52 534.566C2253.51 534.566 2253.49 534.566 2253.48 534.566C2253.46 534.566 2253.45 534.566 2253.43 534.566C2253.42 534.566 2253.41 534.566 2253.39 534.566C2253.38 534.566 2253.36 534.566 2253.35 534.566C2253.33 534.566 2253.32 534.566 2253.3 534.566C2253.29 534.566 2253.27 534.566 2253.26 534.566C2253.25 534.566 2253.23 534.566 2253.22 534.566C2253.2 534.566 2253.19 534.566 2253.17 534.566C2253.16 534.566 2253.14 534.566 2253.13 534.566C2253.11 534.566 2253.1 534.566 2253.09 534.566C2253.07 534.566 2253.06 534.566 2253.04 534.566C2253.03 534.566 2253.01 534.566 2253 534.566C2252.98 534.566 2252.97 534.566 2252.95 534.566C2252.94 534.566 2252.92 534.566 2252.91 534.566C2252.9 534.566 2252.88 534.566 2252.87 534.566C2252.85 534.566 2252.84 534.566 2252.82 534.566C2252.81 534.566 2252.79 534.566 2252.78 534.566C2252.76 534.566 2252.75 534.566 2252.73 534.566C2252.72 534.566 2252.71 534.566 2252.69 534.566C2252.68 534.566 2252.66 534.566 2252.65 534.566C2252.63 534.566 2252.62 534.566 2252.6 534.566C2252.59 534.566 2252.57 534.566 2252.56 534.566C2252.55 534.566 2252.53 534.566 2252.52 534.566C2252.5 534.566 2252.49 534.566 2252.47 534.566C2252.46 534.566 2252.44 534.566 2252.43 534.566C2252.41 534.566 2252.4 534.566 2252.38 534.566C2252.37 534.566 2252.35 534.566 2252.34 534.566C2252.33 534.566 2252.31 534.566 2252.3 534.566C2252.28 534.566 2252.27 534.566 2252.25 534.566C2252.24 534.566 2252.22 534.566 2252.21 534.566C2252.19 534.566 2252.18 534.566 2252.16 534.566C2252.15 534.566 2252.13 534.566 2252.12 534.566C2252.11 534.566 2252.09 534.566 2252.08 534.566C2252.06 534.566 2252.05 534.566 2252.03 534.566C2252.02 534.566 2252 534.566 2251.99 534.566C2251.97 534.566 2251.96 534.566 2251.94 534.566C2251.93 534.566 2251.91 534.566 2251.9 534.566C2251.88 534.566 2251.87 534.566 2251.86 534.566C2251.84 534.566 2251.83 534.566 2251.81 534.566C2251.8 534.566 2251.78 534.566 2251.77 534.566C2251.75 534.566 2251.74 534.566 2251.72 534.566C2251.71 534.566 2251.69 534.566 2251.68 534.566C2251.66 534.566 2251.65 534.566 2251.63 534.566C2251.62 534.566 2251.6 534.566 2251.59 534.566C2251.58 534.566 2251.56 534.566 2251.55 534.566C2251.53 534.566 2251.52 534.566 2251.5 534.566C2251.49 534.566 2251.47 534.566 2251.46 534.566C2251.44 534.566 2251.43 534.566 2251.41 534.566C2251.4 534.566 2251.38 534.566 2251.37 534.566C2251.35 534.566 2251.34 534.566 2251.32 534.566C2251.31 534.566 2251.29 534.566 2251.28 534.566C2251.26 534.566 2251.25 534.566 2251.23 534.566C2251.22 534.566 2251.21 534.566 2251.19 534.566C2251.18 534.566 2251.16 534.566 2251.15 534.566C2251.13 534.566 2251.12 534.566 2251.1 534.566C2251.09 534.566 2251.07 534.566 2251.06 534.566C2251.04 534.566 2251.03 534.566 2251.01 534.566C2251 534.566 2250.98 534.566 2250.97 534.566C2250.95 534.566 2250.94 534.566 2250.92 534.566C2250.91 534.566 2250.89 534.566 2250.88 534.566C2250.86 534.566 2250.85 534.566 2250.83 534.566C2250.82 534.566 2250.81 534.566 2250.79 534.566C2250.78 534.566 2250.76 534.566 2250.75 534.566C2250.73 534.566 2250.72 534.566 2250.7 534.566C2250.69 534.566 2250.67 534.566 2250.66 534.566C2250.64 534.566 2250.63 534.566 2250.61 534.566C2250.6 534.566 2250.58 534.566 2250.57 534.566C2250.55 534.566 2250.54 534.566 2250.52 534.566C2250.51 534.566 2250.49 534.566 2250.48 534.566C2250.46 534.566 2250.45 534.566 2250.43 534.566C2250.42 534.566 2250.4 534.566 2250.39 534.566C2250.37 534.566 2250.36 534.566 2250.34 534.566C2250.33 534.566 2250.31 534.566 2250.3 534.566C2250.28 534.566 2250.27 534.566 2250.25 534.566C2250.24 534.566 2250.22 534.566 2250.21 534.566C2250.19 534.566 2250.18 534.566 2250.16 534.566C2250.15 534.566 2250.13 534.566 2250.12 534.566C2250.11 534.566 2250.09 534.566 2250.08 534.566C2250.06 534.566 2250.05 534.566 2250.03 534.566C2250.02 534.566 2250 534.566 2249.99 534.566C2249.97 534.566 2249.96 534.566 2249.94 534.566C2249.93 534.566 2249.91 534.566 2249.9 534.566C2249.88 534.566 2249.87 534.566 2249.85 534.566C2249.84 534.566 2249.82 534.566 2249.81 534.566C2249.79 534.566 2249.78 534.566 2249.76 534.566C2249.75 534.566 2249.73 534.566 2249.72 534.566C2249.7 534.566 2249.69 534.566 2249.67 534.566C2249.66 534.566 2249.64 534.566 2249.63 534.566C2249.61 534.566 2249.6 534.566 2249.58 534.566C2249.57 534.566 2249.55 534.566 2249.54 534.566C2249.52 534.566 2249.51 534.566 2249.49 534.566C2249.48 534.566 2249.46 534.566 2249.45 534.566C2249.43 534.566 2249.42 534.566 2249.4 534.566C2249.39 534.566 2249.37 534.566 2249.36 534.566C2249.34 534.566 2249.33 534.566 2249.31 534.566C2249.3 534.566 2249.28 534.566 2249.27 534.566C2249.25 534.566 2249.24 534.566 2249.22 534.566C2249.21 534.566 2249.19 534.566 2249.18 534.566C2249.16 534.566 2249.15 534.566 2249.13 534.566C2249.12 534.566 2249.1 534.566 2249.09 534.566C2249.07 534.566 2249.06 534.566 2249.04 534.566C2249.02 534.566 2249.01 534.566 2248.99 534.566C2248.98 534.566 2248.96 534.566 2248.95 534.566C2248.93 534.566 2248.92 534.566 2248.9 534.566C2248.89 534.566 2248.87 534.566 2248.86 534.566C2248.84 534.566 2248.83 534.566 2248.81 534.566C2248.8 534.566 2248.78 534.566 2248.77 534.566C2248.75 534.566 2248.74 534.566 2248.72 534.566C2248.71 534.566 2248.69 534.566 2248.68 534.566C2248.66 534.566 2248.65 534.566 2248.63 534.566C2248.62 534.566 2248.6 534.566 2248.59 534.566C2248.57 534.566 2248.56 534.566 2248.54 534.566C2248.53 534.566 2248.51 534.566 2248.5 534.566C2248.48 534.566 2248.47 534.566 2248.45 534.566C2248.44 534.566 2248.42 534.566 2248.41 534.566C2248.39 534.566 2248.38 534.566 2248.36 534.566C2248.34 534.566 2248.33 534.566 2248.31 534.566C2248.3 534.566 2248.28 534.566 2248.27 534.566C2248.25 534.566 2248.24 534.566 2248.22 534.566C2248.21 534.566 2248.19 534.566 2248.18 534.566C2248.16 534.566 2248.15 534.566 2248.13 534.566C2248.12 534.566 2248.1 534.566 2248.09 534.566C2248.07 534.566 2248.06 534.566 2248.04 534.566C2248.03 534.566 2248.01 534.566 2248 534.566C2247.98 534.566 2247.97 534.566 2247.95 534.566C2247.94 534.566 2247.92 534.566 2247.9 534.566C2247.89 534.566 2247.87 534.566 2247.86 534.566C2247.84 534.566 2247.83 534.566 2247.81 534.566C2247.8 534.566 2247.78 534.566 2247.77 534.566C2247.75 534.566 2247.74 534.566 2247.72 534.566C2247.71 534.566 2247.69 534.566 2247.68 534.566C2247.66 534.566 2247.65 534.566 2247.63 534.566C2247.62 534.566 2247.6 534.566 2247.59 534.566C2247.57 534.566 2247.55 534.566 2247.54 534.566C2247.52 534.566 2247.51 534.566 2247.49 534.566C2247.48 534.566 2247.46 534.566 2247.45 534.566C2247.43 534.566 2247.42 534.566 2247.4 534.566C2247.39 534.566 2247.37 534.566 2247.36 534.566C2247.34 534.566 2247.33 534.566 2247.31 534.566C2247.3 534.566 2247.28 534.566 2247.26 534.566C2247.25 534.566 2247.23 534.566 2247.22 534.566C2247.2 534.566 2247.19 534.566 2247.17 534.566C2247.16 534.566 2247.14 534.566 2247.13 534.566C2247.11 534.566 2247.1 534.566 2247.08 534.566C2247.07 534.566 2247.05 534.566 2247.04 534.566C2247.02 534.566 2247 534.566 2246.99 534.566C2246.97 534.566 2246.96 534.566 2246.94 534.566C2246.93 534.566 2246.91 534.566 2246.9 534.566C2246.88 534.566 2246.87 534.566 2246.85 534.566C2246.84 534.566 2246.82 534.566 2246.81 534.566C2246.79 534.566 2246.77 534.566 2246.76 534.566C2246.74 534.566 2246.73 534.566 2246.71 534.566C2246.7 534.566 2246.68 534.566 2246.67 534.566C2246.65 534.566 2246.64 534.566 2246.62 534.566C2246.61 534.566 2246.59 534.566 2246.57 534.566C2246.56 534.566 2246.54 534.566 2246.53 534.566C2246.51 534.566 2246.5 534.566 2246.48 534.566C2246.47 534.566 2246.45 534.566 2246.44 534.566C2246.42 534.566 2246.41 534.566 2246.39 534.566C2246.38 534.566 2246.36 534.566 2246.34 534.566C2246.33 534.566 2246.31 534.566 2246.3 534.566C2246.28 534.566 2246.27 534.566 2246.25 534.566C2246.24 534.566 2246.22 534.566 2246.21 534.566C2246.19 534.566 2246.17 534.566 2246.16 534.566C2246.14 534.566 2246.13 534.566 2246.11 534.566C2246.1 534.566 2246.08 534.566 2246.07 534.566C2246.05 534.566 2246.04 534.566 2246.02 534.566C2246.01 534.566 2245.99 534.566 2245.97 534.566C2245.96 534.566 2245.94 534.566 2245.93 534.566C2245.91 534.566 2245.9 534.566 2245.88 534.566C2245.87 534.566 2245.85 534.566 2245.84 534.566C2245.82 534.566 2245.8 534.566 2245.79 534.566C2245.77 534.566 2245.76 534.566 2245.74 534.566C2245.73 534.566 2245.71 534.566 2245.7 534.566V537.566ZM2267.3 537.566L2267.43 540.563C2280.67 539.967 2291.35 537.278 2299.17 532.21L2297.54 529.692L2295.9 527.175C2289.32 531.439 2279.84 533.999 2267.16 534.569L2267.3 537.566ZM2297.54 529.692L2299.14 532.23C2306.33 527.7 2311.06 520.904 2313.4 512.086L2310.5 511.319L2307.6 510.552C2305.61 518.066 2301.71 523.519 2295.94 527.154L2297.54 529.692ZM2310.5 511.319L2313.35 512.257C2316.35 503.124 2317.82 492.291 2317.82 479.823H2314.82H2311.82C2311.82 491.851 2310.4 502.016 2307.65 510.381L2310.5 511.319ZM2314.82 479.823H2317.82C2317.82 458.93 2312.66 435.225 2302.5 408.755L2299.7 409.83L2296.9 410.906C2306.89 436.93 2311.82 459.886 2311.82 479.823H2314.82ZM2299.7 409.83L2302.52 408.823C2292.95 381.974 2272.8 353.891 2242.38 324.555L2240.3 326.714L2238.21 328.874C2268.28 357.865 2287.72 385.192 2296.87 410.838L2299.7 409.83ZM2240.3 326.714L2243.12 327.738C2250.34 307.855 2257.55 286.227 2264.76 262.856L2261.9 261.971L2259.03 261.087C2251.84 284.378 2244.66 305.912 2237.48 325.691L2240.3 326.714ZM2261.9 261.971L2264.74 262.915C2272.67 238.975 2280.24 215.035 2287.45 191.094L2284.58 190.229L2281.7 189.365C2274.51 213.252 2266.96 237.14 2259.05 261.028L2261.9 261.971ZM2284.58 190.229L2287.42 191.173C2295.36 167.224 2302.21 145.016 2307.98 124.551L2305.1 123.737L2302.21 122.922C2296.46 143.286 2289.64 165.407 2281.73 189.286L2284.58 190.229ZM2305.1 123.737L2307.96 124.621C2314.45 103.599 2319.51 86.0514 2323.12 71.9897L2320.22 71.2425L2317.31 70.4953C2313.73 84.4305 2308.7 101.879 2302.23 122.852L2305.1 123.737ZM2320.22 71.2425H2323.22V40.6208H2320.22H2317.22V71.2425H2320.22Z" fill="#3768FF" mask="url(#path-1-outside-1_383_6)"/>
</svg>
