<svg width="149" height="200" viewBox="0 0 149 200" fill="none" xmlns="http://www.w3.org/2000/svg">
<g clip-path="url(#clip0_418_2)">
<mask id="mask0_418_2" style="mask-type:alpha" maskUnits="userSpaceOnUse" x="0" y="0" width="149" height="201">
<path fill-rule="evenodd" clip-rule="evenodd" d="M7.45024 0C8.49426 2.7268 9.99806 4.61538 12.7022 6.01564C13.2108 6.27892 14.3294 6.63501 14.9075 6.42452C18.1873 4.98315 18.9967 3.15228 20.593 0.269059C22.089 0.145102 23.542 0.255725 25.1329 0.0787204C25.6028 2.66723 26.83 4.98146 29.4778 5.90168C30.8455 6.38411 32.3523 6.28107 33.6418 5.61734C35.9322 4.46076 36.8729 2.48771 37.6013 0.212662C39.1475 0.262547 40.6952 0.237291 42.2388 0.136292C44.0998 8.18177 52.977 8.26561 54.5591 0.260835C56.1765 0.251549 57.7943 0.233383 59.4116 0.205613C59.7822 1.39739 60.1935 2.28007 60.8884 3.31918C64.3584 8.50794 71.0795 6.05612 71.894 0.26201L76.8499 0.239686C76.983 1.47139 77.0524 2.03544 77.7287 3.14646C78.6261 4.60973 80.0714 5.65516 81.7423 6.04854C85.6747 6.95695 88.1225 3.56956 88.8788 0.144516C90.4724 0.260996 91.9501 0.122716 93.5045 0.236161C93.9382 0.574851 94.6368 2.86204 95.1647 3.51892C99.3204 8.68973 105 5.93894 106.255 0.219712C107.838 0.257677 109.538 0.216225 111.131 0.205613C111.31 1.26811 111.706 2.28306 112.292 3.18759C115.844 8.59845 122.299 6.34532 123.436 0.0998691C124.76 0.189627 126.771 0.257599 128.066 0.0646212C128.286 0.919875 128.473 1.67529 128.893 2.465C129.777 4.14543 131.294 5.40432 133.108 5.96395C136.749 7.06241 139.951 3.55603 140.868 0.365403C142.029 0.127897 147.122 0.334116 148.583 0.350129C148.745 0.457077 148.885 0.549045 149 0.625063V7.42086C148.007 8.61844 144.899 7.75736 142.942 11.1466C142.399 12.0876 142.144 13.137 142.25 14.2214C142.392 15.6717 143.26 17.6086 144.413 18.5616C145.338 19.3259 148.51 19.9917 148.785 20.3745C148.805 20.4029 148.827 20.4315 148.847 20.4602C148.901 20.536 148.951 20.6139 149 20.6929V24.6571C148.984 24.6789 148.968 24.7021 148.951 24.7229C148.09 25.734 144.936 24.8633 143.068 28.2359C142.546 29.1637 142.287 30.2163 142.319 31.2802C142.434 34.6978 145.425 37.2316 148.581 37.156C148.619 37.1554 148.959 37.7536 149 37.8257V40.1932C148.792 40.8981 148.702 41.7223 148.25 42.1871C148.025 42.1652 147.781 42.1458 147.558 42.113C143.871 43.1855 142.038 45.6575 142.291 49.5362C142.852 52.5699 145.889 53.9536 148.564 54.5591C148.694 55.8938 148.595 58.0485 148.57 59.4456C147.721 59.4922 146.88 59.4968 146.08 59.8216C141.746 61.5835 141.046 67.4705 144.656 70.3866C146.063 71.5223 146.959 71.5438 148.658 71.5533C148.584 73.2484 148.561 74.9454 148.589 76.6419C146.316 76.9353 145.12 77.1475 143.554 79.0693C141.409 81.7028 142.253 85.5368 144.797 87.5664C145.994 88.521 147.158 88.6274 148.612 88.7895C148.622 90.446 148.567 92.207 148.617 93.8452C146.695 94.0356 145.225 94.1245 143.889 95.7803C140.38 100.128 143.244 105.632 148.531 106.419C148.681 107.927 148.61 109.489 148.653 111.006C146.583 111.081 145.516 111.332 143.985 112.912C141.562 115.414 141.764 119.19 144.271 121.547C145.632 122.826 146.881 122.997 148.625 123.181C148.627 124.889 148.606 126.598 148.561 128.306C146.507 128.588 144.983 128.861 143.598 130.669C142.562 132.018 142.13 133.735 142.404 135.414C142.95 138.975 145.325 140.208 148.642 140.19C148.592 141.968 148.574 143.747 148.588 145.526C146.812 145.59 145.437 145.671 144.145 147.122C140.38 151.352 142.994 157.325 148.57 157.879C148.609 159.415 148.61 160.952 148.572 162.488C146.694 162.669 145.139 162.939 143.908 164.55C140.458 169.065 142.986 174.488 148.659 174.619C148.602 176.403 148.556 177.959 148.618 179.744C146.418 180.13 144.828 180.477 143.404 182.474C142.482 183.757 142.114 185.359 142.382 186.917C142.793 189.348 144.708 191.252 147.159 191.577C147.884 191.629 148.42 191.548 148.904 192.068L149 192.18V199.328C148.687 199.72 148.719 199.803 148.143 199.845C146.948 199.932 145.482 199.788 144.314 199.938C142.165 199.98 141.07 201 140.267 198.118C138.96 193.434 133.731 192.563 130.23 195.255C129.222 196.044 128.485 198.675 127.763 200.035C126.292 200.086 124.888 200.149 123.414 200.09C122.978 197.781 122.876 196.214 120.751 194.714C119.418 193.772 117.634 193.487 116.037 193.787C114.585 194.057 113.303 194.901 112.481 196.129C111.692 197.292 111.461 198.637 111.375 200.013C109.602 200.035 107.829 200.044 106.055 200.038C105.9 198.072 105.564 196.217 103.97 194.92C101.709 193.079 97.3328 193.242 95.516 195.656C94.3631 197.19 94.1811 198.313 93.837 200.045C92.367 200.052 90.6318 200.099 89.1819 200.06C88.4402 197.743 88.0149 195.545 85.6184 194.298C83.1199 192.998 79.0718 193.79 77.657 196.361C77.2337 197.13 76.9089 198.978 76.7488 199.9C76.0106 199.943 73.2518 200.053 72.7188 200.168C71.1685 199.61 71.9144 196.777 69.872 195.132C68.45 193.988 66.3196 193.59 64.7164 193.718C61.0902 194.009 60.743 197.015 59.6254 199.502C59.3354 200.145 55.5736 200.036 54.5673 200.044C54.3886 197.676 53.5161 194.688 50.9979 194.076C45.0875 192.642 43.7388 195.326 42.1553 199.92C40.7298 199.907 39.1563 200.01 37.7211 200.074C36.6244 195.331 33.2202 191.824 27.8494 194.626C26.0343 195.574 25.5137 197.978 25.1482 199.876C23.7137 199.991 22.2758 200.071 20.8374 200.113C20.2983 199.204 19.813 198.018 19.3817 197.014C17.982 193.752 13.9062 192.969 10.921 194.487C8.82809 195.553 8.26499 197.9 7.6441 200.014C5.5689 200.306 2.20689 200.225 0 200.235C0.139397 197.515 0.0726455 194.475 0.179764 191.663C1.37199 191.587 2.49263 191.425 3.55417 190.853C4.75785 190.213 5.65016 189.109 6.02504 187.799C7.37017 183.176 4.08467 180.603 0.122193 179.478L0.180939 174.769C5.68441 174.058 8.17462 169.06 4.54228 164.406C3.39836 162.939 1.95716 162.589 0.170365 162.481C0.117838 161.031 0.09385 159.58 0.0963443 158.128C0.505948 158.003 0.909568 157.857 1.30535 157.692C4.90907 156.215 7.22954 153.297 5.78301 149.148C5.45489 148.207 4.15156 146.887 3.20521 146.517C0.948142 145.076 0.773001 146.209 0.566317 143.99L0.469972 142.818L0.623888 140.247C1.60783 140.376 2.70625 139.974 3.49659 139.48C7.61655 136.901 7.03881 130.193 2.27937 128.65C1.63277 128.441 1.02151 128.313 0.384202 128.172C0.472825 126.636 0.463143 124.767 0.494646 123.204C8.3207 121.681 8.2503 112.416 0.441774 110.78L0.452348 106.609C1.38907 106.116 2.31658 105.591 3.21696 105.09C7.11362 102.926 7.26249 97.0733 3.49307 94.71C2.46664 94.0665 1.73637 93.9526 0.585116 93.6784C0.420868 92.0035 0.415331 90.8038 0.59569 89.1361C2.71054 88.2959 5.0679 87.5212 5.73836 85.0814C7.06227 80.261 5.16797 77.8734 0.532244 76.535C0.378537 75.1633 0.441844 73.1848 0.465273 71.7718C3.07095 71.0924 5.53413 69.8706 6.06852 67.0039C6.91255 62.4759 4.47863 60.1897 0.452348 59.2987L0.397127 54.6178C1.60624 54.1898 3.1038 53.6438 4.11461 52.8637C7.74784 50.059 6.56191 43.8353 2.20769 42.4632C1.75565 42.3208 1.05653 42.2609 0.578066 42.2047C0.521657 40.2527 0.486527 39.2067 0.629763 37.2383C4.58202 36.2638 7.21823 33.4647 5.9099 29.0361C5.33895 27.1046 3.53928 26.0856 1.80469 25.2904C0.759773 25.0026 1.0279 25.013 0.0980968 25.013C0.0980968 24.1243 0.0704817 21.2531 0.116318 20.1877C8.80275 18.6793 7.82183 8.48671 0.146866 7.75924C0.0862919 6.23597 0.0566195 4.71087 0.0563967 3.18641C0.160413 2.32912 0.16422 1.24472 0.190339 0.359529C1.96191 0.265459 6.03226 0.475086 7.45024 0ZM135.742 12.7257C129.712 12.858 123.199 12.7425 117.144 12.7456L83.4706 12.775L13.5646 12.7633L13.527 95.8555C13.5591 108.737 13.1909 122.168 13.5223 134.954C23.9106 134.697 34.5981 135.204 45.0292 134.812L45.6167 134.857C48.6315 135.068 52.6955 134.952 55.6823 134.949L73.4637 134.945C91.0443 134.957 109.069 135.151 126.615 134.916C128.502 135.09 133.753 134.905 135.697 134.823C135.572 133.584 135.632 131.057 135.628 129.756L135.572 120.704C135.498 108.606 135.504 96.5066 135.588 84.4082L135.568 39.4154C135.512 33.45 135.504 27.4843 135.544 21.5189C135.57 18.6738 135.547 15.536 135.742 12.7257Z" fill="#FDFCFC"/>
</mask>
<g mask="url(#mask0_418_2)">
<path d="M184.214 71.4572C144.613 83.4429 130.484 162.668 149.093 197.744C170.59 238.313 265.843 216.265 283.56 212.666C296.438 210.02 226.04 169.08 233.151 127.999C240.74 84.1838 288.849 71.3338 281.38 67.9735C275.806 62.0204 231.412 57.1608 184.214 71.4572Z" stroke="black" stroke-opacity="0.05" stroke-width="1.7" stroke-miterlimit="10"/>
<path d="M174.978 67.4708C130.382 77.4192 117.127 168.313 139.103 206.695C164.859 251.745 267.637 227.465 288.637 219.572C301.792 214.624 236.122 170.333 241.476 123.184C247.114 73.5651 289.99 54.2681 279.586 56.0937C271.979 53.9153 228.79 55.4851 174.978 67.4708Z" stroke="black" stroke-opacity="0.05" stroke-width="1.7" stroke-miterlimit="10"/>
<path d="M165.742 63.5376C116.17 71.4752 103.788 173.993 129.057 215.7C159.082 265.266 267.038 232.793 293.659 226.522C308.598 222.994 246.175 171.647 249.754 118.404C253.433 62.982 292.068 39.4604 277.736 44.2494C268.556 47.3097 226.187 53.8538 165.742 63.5376Z" stroke="black" stroke-opacity="0.05" stroke-width="1.7" stroke-miterlimit="10"/>
<path d="M156.516 59.5775C101.959 65.5483 90.4603 179.655 119.041 224.67C153.361 278.742 266.607 228.674 298.72 233.489C315.36 235.967 256.295 172.97 258.061 113.623C259.901 52.416 293.476 21.98 275.916 32.4223C264.988 38.8781 223.594 52.2485 156.516 59.5775Z" stroke="black" stroke-opacity="0.05" stroke-width="1.7" stroke-miterlimit="10"/>
<path d="M147.281 55.6265C87.7472 59.6306 77.1411 185.273 109.015 233.648C147.649 292.21 267.003 232.308 303.761 240.377C321.745 244.328 266.405 174.231 266.35 108.782C266.295 41.7534 294.59 4.53516 274.086 20.5161C261.226 30.5439 221 50.6611 147.281 55.6265Z" stroke="black" stroke-opacity="0.05" stroke-width="1.7" stroke-miterlimit="10"/>
<path d="M138.044 51.6664C73.5334 53.7302 63.8471 190.944 98.9955 242.626C141.917 305.677 267.498 235.809 308.809 247.309C328.182 252.698 276.54 175.501 274.655 103.975C272.732 31.1611 295.628 -12.7688 272.263 8.65372C257.398 22.271 218.386 49.0999 138.044 51.6664Z" stroke="black" stroke-opacity="0.05" stroke-width="1.7" stroke-miterlimit="10"/>
<path d="M128.81 47.7062C59.3223 47.8385 50.5099 196.588 88.979 251.604C136.205 319.144 268.078 239.257 313.861 254.25C334.668 261.068 286.687 176.797 282.953 99.1768C279.172 20.5598 296.65 -29.9936 270.442 -3.2088C253.535 14.051 215.802 47.5474 128.81 47.7062Z" stroke="black" stroke-opacity="0.05" stroke-width="1.7" stroke-miterlimit="10"/>
<path d="M119.574 43.7554C45.0639 41.9915 37.199 202.224 78.9613 260.574C130.474 332.594 268.731 242.609 318.91 261.165C341.19 269.402 296.833 178.068 291.25 94.3617C285.62 9.94144 297.689 -47.2001 268.612 -15.0883C249.662 5.85801 213.198 46.0132 119.574 43.7554Z" stroke="black" stroke-opacity="0.05" stroke-width="1.7" stroke-miterlimit="10"/>
<path d="M110.338 39.7951C30.8795 36.0821 23.8701 207.86 68.9439 269.552C124.799 346.052 269.476 245.951 323.961 268.097C347.739 277.745 306.998 179.346 299.556 89.5548C292.078 -0.677521 298.692 -64.3631 266.79 -26.9508C245.78 -2.31796 210.586 44.4871 110.338 39.7951Z" stroke="black" stroke-opacity="0.05" stroke-width="1.7" stroke-miterlimit="10"/>
<path d="M101.102 35.8351C16.6579 30.2082 10.5959 213.495 58.9261 278.53C119.104 359.502 270.184 249.267 329.01 275.002C354.298 286.08 317.153 180.634 307.853 84.7215C298.535 -11.314 299.712 -81.5348 264.969 -38.8396C241.907 -10.4849 207.973 42.9612 101.102 35.8351Z" stroke="black" stroke-opacity="0.05" stroke-width="1.7" stroke-miterlimit="10"/>
<path d="M91.8678 31.8842C2.42851 24.3435 -2.70439 219.166 48.9097 287.5C113.411 372.952 270.967 252.574 334.071 281.952C360.894 294.441 327.328 181.895 316.161 79.9328C304.993 -22.0294 300.734 -98.6532 263.148 -50.7104C238.027 -18.6427 205.362 41.4533 91.8678 31.8842Z" stroke="black" stroke-opacity="0.05" stroke-width="1.7" stroke-miterlimit="10"/>
<path d="M82.6326 27.9242C-11.8017 18.4785 -16.0055 224.758 38.8834 296.478C107.718 386.437 271.786 255.908 339.112 288.884C367.49 302.793 337.493 183.165 324.458 75.1261C311.46 -32.5335 301.765 -115.772 261.318 -62.5551C234.145 -26.792 202.75 39.9363 82.6326 27.9242Z" stroke="black" stroke-opacity="0.05" stroke-width="1.7" stroke-miterlimit="10"/>
<path d="M73.3954 23.9643C-26.0338 12.6136 -29.1614 230.288 28.8919 305.456C102.233 399.719 272.658 259.154 344.188 295.808C374.12 311.145 347.692 184.435 332.781 70.3196C317.953 -43.152 302.821 -132.899 259.523 -74.426C230.261 -34.9411 200.117 38.4371 73.3954 23.9643Z" stroke="black" stroke-opacity="0.05" stroke-width="1.7" stroke-miterlimit="10"/>
<path d="M64.161 20.0131C-40.263 6.7574 -42.4707 235.923 18.848 314.417C96.4946 413.195 273.478 262.382 349.212 302.722C380.717 319.479 357.84 185.687 341.052 65.4776C324.403 -53.8149 303.825 -150.044 257.675 -86.3324C226.381 -43.0904 197.497 36.9289 64.161 20.0131Z" stroke="black" stroke-opacity="0.05" stroke-width="1.7" stroke-miterlimit="10"/>
<path d="M54.9255 16.0532C-54.5395 0.901309 -55.7905 241.568 8.83062 323.404C90.7822 426.592 274.343 265.716 354.262 309.663C387.377 327.858 368.234 186.949 349.349 60.6975C331.09 -64.4335 304.855 -167.128 255.854 -98.1593C222.499 -51.2307 194.866 35.4296 54.9255 16.0532Z" stroke="black" stroke-opacity="0.05" stroke-width="1.7" stroke-miterlimit="10"/>
<path d="M45.6906 12.0933C-68.7693 -4.76072 -69.1096 247.212 -1.18616 332.382C85.0704 440.104 275.227 268.996 359.322 316.595C393.973 336.21 378.363 188.219 357.657 55.891C337.521 -75.0521 305.886 -184.229 254.024 -110.03C218.618 -59.3711 192.199 34.1774 45.6906 12.0933Z" stroke="black" stroke-opacity="0.05" stroke-width="1.7" stroke-miterlimit="10"/>
<path d="M36.4533 8.14216C-83.0015 -10.661 -82.4128 252.848 -11.2054 341.36C79.347 453.562 276.117 272.268 364.37 323.527C400.604 344.571 388.498 189.471 365.952 51.0843C343.949 -85.6708 306.924 -201.339 252.2 -121.893C214.706 -67.4674 189.575 32.6251 36.4533 8.14216Z" stroke="black" stroke-opacity="0.05" stroke-width="1.7" stroke-miterlimit="10"/>
<path d="M27.2181 4.18226C-97.2316 -16.5612 -95.7414 258.492 -21.2224 350.33C73.635 466.994 277.028 275.549 369.42 330.451C407.246 352.932 398.682 190.768 374.25 46.3042C350.333 -96.263 307.807 -218.51 250.38 -133.737C210.742 -75.7136 186.954 31.0641 27.2181 4.18226Z" stroke="black" stroke-opacity="0.05" stroke-width="1.7" stroke-miterlimit="10"/>
<path d="M17.9837 0.222033C-111.461 -22.4882 -109.088 264.146 -31.2387 359.308C67.9237 480.479 277.94 278.83 374.472 337.347C413.897 361.266 408.774 192.002 382.557 41.4356C356.81 -106.917 308.921 -235.585 248.559 -145.635C206.917 -83.8101 184.352 29.5469 17.9837 0.222033Z" stroke="black" stroke-opacity="0.05" stroke-width="1.7" stroke-miterlimit="10"/>
<path d="M246.728 -157.497C203.089 -91.9152 181.702 27.9506 8.74757 -3.72907C-125.701 -28.3619 -122.38 269.772 -41.266 368.286C62.2106 493.946 278.85 282.111 379.521 344.306C460.93 394.612 374.342 -349.295 246.728 -157.497Z" stroke="black" stroke-opacity="0.05" stroke-width="1.7" stroke-miterlimit="10"/>
</g>
</g>
<defs>
<clipPath id="clip0_418_2">
<rect width="149" height="200" fill="white"/>
</clipPath>
</defs>
</svg>
