<svg width="200" height="200" viewBox="0 0 200 200" fill="none" xmlns="http://www.w3.org/2000/svg">
<path d="M96.6787 76.6313C97.5841 77.3235 98.2654 77.9576 99.3669 78.2667C101.229 79.0656 103.248 82.0572 104.849 83.4304C106.292 84.6689 107.593 85.3752 109.233 86.3116C112.633 88.2526 115.164 89.8504 119.066 90.59C118.856 91.3292 118.967 91.6215 118.229 91.9183C115.35 91.6048 114.218 90.8396 111.677 89.4615C109.879 88.4862 106.483 86.8352 105.031 85.5831C101.968 82.9419 99.3926 79.6936 96.3381 76.8442L96.6787 76.6313Z" fill="#8A4A4A"/>
<path d="M79.1378 63.6461L78.9486 63.6049L78.8826 63.3736C78.9879 63.1278 79.3187 62.1602 79.5702 62.1442C82.017 61.9888 84.5003 62.9141 86.9167 63.1604C87.4008 63.2098 87.724 63.2267 88.1645 63.2891C88.8445 63.833 89.2175 64.1379 89.4708 65.006C90.172 69.5954 93.146 73.7379 96.6787 76.6313L96.3381 76.8442C90.1419 71.4959 90.9817 70.8016 87.7089 63.804C84.6935 63.0899 82.7857 62.692 79.6784 62.3224L79.1378 63.6461Z" fill="#7E403C"/>
<path d="M149.291 111.618L150.423 111.639C150.941 111.663 151.319 111.641 151.783 111.893C150.979 112.087 148.375 112.66 147.777 112.064C148.207 111.703 148.713 111.703 149.291 111.618Z" fill="#945D58"/>
<path d="M76.3465 85.6196C78.8835 85.4367 83.4514 85.3797 85.0276 88.343C85.1245 88.5251 84.9722 88.6965 84.8735 88.882C83.6353 89.5193 79.3791 88.7317 77.1981 88.8393C75.5879 89.0932 70.1794 90.4025 69.1702 89.4136C69.534 87.0455 74.2565 85.8616 76.3465 85.6196Z" fill="#8A4A4A"/>
<path d="M70.5456 36.5703C72.9611 35.4243 75.2046 34.5341 77.7704 33.8316C79.5843 31.4413 80.6268 27.4089 84.118 27.129C86.4973 26.9381 89.6127 26.1876 91.943 26.5642C94.2003 26.9295 96.5933 27.8584 98.8085 28.4624C103.793 29.9808 108.758 31.2197 113.582 33.233C115.174 33.7513 116.928 33.9212 118.531 34.3686C120.728 34.9822 122.981 35.6918 125.143 36.414C128.623 37.5761 132.248 38.4014 135.245 40.5981C134.925 41.3541 134.906 41.4634 134.871 42.2847L134.918 42.4127C133.202 46.4217 119.176 89.2046 119.207 90.5472L119.066 90.59C115.164 89.8504 112.633 88.2526 109.233 86.3116C107.593 85.3752 106.292 84.6689 104.849 83.4304C103.248 82.0572 101.229 79.0656 99.3669 78.2667C98.2654 77.9576 97.5841 77.3235 96.6787 76.6313C93.146 73.7379 90.172 69.5954 89.4708 65.006C89.2175 64.1379 88.8445 63.833 88.1645 63.2891C87.724 63.2267 87.4008 63.2098 86.9167 63.1604C84.5003 62.9141 82.017 61.9888 79.5702 62.1442C79.3187 62.1602 78.9879 63.1278 78.8826 63.3736L78.9486 63.6049L79.1378 63.6461C77.7252 68.1156 73.6599 74.3522 70.9767 78.3436C69.8919 79.9575 67.4416 82.5953 66.15 84.3019C64.7695 86.1264 62.6634 89.1079 61.1459 90.6025C57.3547 94.3365 54.2075 94.2767 51.9097 99.4921L46.0745 102.552C46.128 101.282 44.8613 97.0001 44.1451 95.8944C42.585 95.117 41.8723 94.5211 40.53 93.4396C41.0237 90.7312 40.8608 89.8608 41.7739 86.8875C41.7254 86.7373 41.6799 86.5862 41.6377 86.4341C41.1621 84.7153 40.8952 80.8821 40.8605 79.0195C40.8049 76.0371 40.0209 70.5587 41.5221 68.069C44.1264 63.7497 46.7969 59.5283 49.465 55.2593C50.344 53.8525 51.04 52.3496 52.0773 51.0448C55.7327 46.9072 59.6463 42.7158 64.2796 39.6719C66.2797 38.358 68.43 37.5742 70.5456 36.5703Z" fill="#B57961"/>
<path d="M70.5456 36.5703C72.9611 35.4243 75.2046 34.5341 77.7704 33.8316C79.5843 31.4413 80.6268 27.4089 84.118 27.129C86.4973 26.9381 89.6127 26.1876 91.943 26.5642C94.2003 26.9295 96.5933 27.8584 98.8085 28.4624C103.793 29.9808 108.758 31.2197 113.582 33.233C115.174 33.7513 116.928 33.9212 118.531 34.3686C120.728 34.9822 122.981 35.6918 125.143 36.414C128.623 37.5761 132.248 38.4014 135.245 40.5981C134.925 41.3541 134.906 41.4634 134.871 42.2847C133.451 41.2631 130.866 39.6306 129.166 39.3679C127.651 39.1341 120.723 36.2819 119.749 36.4106L119.673 36.644C120.184 37.2901 128.88 41.0664 129.738 42.3195C129.146 42.3617 127.753 41.5983 127.068 41.3753C121.048 39.4157 115.574 36.1943 109.866 33.525C106.996 32.1831 103.352 31.6284 100.331 30.6294C95.3885 29.2334 92.2627 27.3685 86.9967 28.0884C84.9271 28.1869 82.9731 28.6592 81.5655 30.3695C80.1512 32.088 78.9593 34.8247 78.1829 36.9527C77.8461 37.8761 77.427 42.356 76.4122 42.4685C75.8952 41.3297 76.2095 36.956 76.3169 35.5598C73.3768 37.1874 69.2478 38.4308 66.6475 39.9928C61.9549 42.9215 55.9564 48.3632 52.7734 52.749C51.7374 54.1765 46.714 63.2856 46.4683 64.6437C45.1601 71.8807 46.7016 79.4638 43.4479 86.673C39.9128 94.5058 44.3188 94.1078 50.1864 96.1466C51.6182 96.6804 52.5155 95.0266 53.774 94.2281C58.1599 91.4456 61.4753 88.5583 64.4319 84.2453C65.6937 82.4688 67.7227 80.5203 69.1406 78.6261C73.1367 73.3212 76.4029 67.5042 78.8518 61.3306C81.8914 61.9171 84.1545 61.8147 87.193 62.8733L87.2578 62.8964L87.9985 62.8041L88.1645 63.2891C87.724 63.2267 87.4008 63.2098 86.9167 63.1604C84.5003 62.9141 82.017 61.9888 79.5702 62.1442C79.3187 62.1602 78.9879 63.1278 78.8826 63.3736L78.9486 63.6049L79.1378 63.6461C77.7252 68.1156 73.6599 74.3522 70.9767 78.3436C69.8919 79.9575 67.4416 82.5953 66.15 84.3019C64.7695 86.1264 62.6634 89.1079 61.1459 90.6025C57.3547 94.3365 54.2075 94.2767 51.9097 99.4921L46.0745 102.552C46.128 101.282 44.8613 97.0001 44.1451 95.8944C42.585 95.117 41.8723 94.5211 40.53 93.4396C41.0237 90.7312 40.8608 89.8608 41.7739 86.8875C41.7254 86.7373 41.6799 86.5862 41.6377 86.4341C41.1621 84.7153 40.8952 80.8821 40.8605 79.0195C40.8049 76.0371 40.0209 70.5587 41.5221 68.069C44.1264 63.7497 46.7969 59.5283 49.465 55.2593C50.344 53.8525 51.04 52.3496 52.0773 51.0448C55.7327 46.9072 59.6463 42.7158 64.2796 39.6719C66.2797 38.358 68.43 37.5742 70.5456 36.5703Z" fill="#8A4A4A"/>
<path d="M46.4082 96.7023C47.6751 96.8636 50.1342 97.108 50.849 98.2515C51.2704 98.9256 51.1275 99.1126 51.9097 99.4921C51.9137 101.609 52.9539 102.605 53.1985 104.403C53.7488 108.451 54.3692 112.359 55.2361 116.358C55.4354 117.277 55.1665 117.813 54.2986 118.094C54.287 118.384 54.2524 118.445 54.4057 118.689L54.1997 118.969L54.0568 118.933C53.7502 118.971 53.556 118.937 53.3592 119.1C53.3073 119.004 52.3823 117.972 52.0839 117.532C49.9381 114.813 49.6327 109.379 47.6704 106.078C47.0368 105.037 47.4885 104.41 48.2555 103.677C48.3688 103.178 46.7046 97.803 46.4082 96.7023Z" fill="#B57961"/>
<path d="M48.2555 103.677C48.4517 104.139 48.7448 105.677 49.0555 106.558C50.2495 109.939 51.3566 113.412 52.6007 116.773L52.0839 117.532C49.9381 114.813 49.6327 109.379 47.6704 106.078C47.0368 105.037 47.4885 104.41 48.2555 103.677Z" fill="#B57961"/>
<path d="M52.6007 116.773C53.1182 117.413 53.7797 118.165 54.0568 118.933C53.7502 118.971 53.556 118.937 53.3592 119.1C53.3073 119.004 52.3823 117.972 52.0839 117.532L52.6007 116.773Z" fill="#B57961"/>
<path d="M47.6704 106.078C49.6327 109.379 49.9381 114.813 52.0839 117.532C52.3823 117.972 53.3073 119.004 53.3592 119.1L52.5744 119.103C50.8056 118.361 48.6958 109.461 47.7702 107.457C47.7086 107.324 47.4936 107.324 47.2986 107.281C47.3259 107.103 47.6008 106.296 47.6704 106.078Z" fill="#945D58"/>
<path d="M44.2621 66.7454L44.4539 67.0395C44.5702 69.3691 44.5051 83.1327 42.6422 83.8725C42.139 80.0109 42.5061 74.4588 42.0457 70.2223C42.6834 69.0468 43.5122 67.8633 44.2621 66.7454Z" fill="#B57961"/>
<path d="M89.4708 65.006C90.2807 65.4774 91.8097 69.4347 92.3609 70.5498C93.2874 72.4247 99.2432 76.8155 99.3669 78.2667C98.2654 77.9576 97.5841 77.3235 96.6787 76.6313C93.146 73.7379 90.172 69.5954 89.4708 65.006Z" fill="#8A4A4A"/>
<path d="M87.2578 62.8964C86.4911 60.7787 84.3757 55.7683 84.1724 53.9311C85.3942 56.8036 86.6783 60.0013 87.9985 62.8041L87.2578 62.8964Z" fill="#945D58"/>
<path d="M134.918 42.4127C136.586 43.4242 137.898 44.3891 139.384 45.6614C141.97 47.8754 145.038 49.1479 147.758 51.3045C150.146 53.1967 150.351 54.852 151.681 57.2335C154.258 61.8509 154.29 65.7801 155.184 70.8623C154.529 69.9775 151.706 65.6579 151.233 65.2906C150.816 65.5506 150.848 65.7067 150.605 66.2162C150.531 67.8187 157.453 75.2452 157.225 76.5294C156.187 82.3701 148.167 88.3602 143.303 91.4131C142.618 91.8428 141.296 91.7396 140.848 91.9191C137.396 92.9599 128.956 92.6967 125.439 91.7387C123.368 91.3069 121.291 90.9097 119.207 90.5472C119.176 89.2046 133.202 46.4217 134.918 42.4127Z" fill="#B57961"/>
<path d="M125.439 91.7387C127.01 91.1115 138.022 91.492 140.395 91.6035C140.501 91.6083 140.754 91.8272 140.848 91.9191C137.396 92.9599 128.956 92.6967 125.439 91.7387Z" fill="#8A4A4A"/>
<path d="M141.798 48.2745C141.9 48.2957 141.997 48.3194 142.094 48.3578C143.654 48.9772 150.613 61.3961 151.825 63.8963C151.57 63.8275 151.298 63.6303 151.167 63.4009C148.209 58.2502 144.974 53.2928 141.798 48.2745Z" fill="#945D58"/>
<path d="M134.871 42.2847C134.906 41.4634 134.925 41.3541 135.245 40.5981C137.635 42.0892 140.669 44.4799 143.066 46.1241C144.634 47.2003 149.402 50.3268 150.376 51.4563C152.125 54.2113 154.509 58.9099 155.436 61.9413C156.464 65.3016 155.879 71.187 157.556 74.1607C159.153 76.9925 159.998 76.1886 157.586 79.6507C157.711 81.6165 158.089 83.5544 158.316 85.5025C159.044 91.7603 159.568 98.0139 158.684 104.284L156.478 105.696C155.228 106.095 152.952 111.451 151.783 111.893C151.319 111.641 150.941 111.663 150.423 111.639L149.291 111.618L149.555 111.35C149.244 111 148.22 110.864 147.549 110.621C147.38 110.327 147.24 110.051 147.331 109.691C148.154 106.964 148.235 103.662 148.972 101.016C149.769 98.1561 150.301 97.6444 150.402 94.4744C150.056 92.3108 149.96 90.7093 149.478 88.4622C148.754 89.2535 144.405 92.2381 143.172 93.1452C139.461 93.4063 135.576 93.1193 131.847 93.0609C128.901 93.0148 125.814 93.2025 122.909 92.7542C121.346 92.513 119.81 92.1392 118.229 91.9183C118.967 91.6215 118.856 91.3292 119.066 90.59L119.207 90.5472C121.291 90.9097 123.368 91.3069 125.439 91.7387C128.956 92.6967 137.396 92.9599 140.848 91.9191C141.296 91.7396 142.618 91.8428 143.303 91.4131C148.167 88.3602 156.187 82.3701 157.225 76.5294C157.453 75.2452 150.531 67.8187 150.605 66.2162C150.848 65.7067 150.816 65.5506 151.233 65.2906C151.706 65.6579 154.529 69.9775 155.184 70.8623C154.29 65.7801 154.258 61.8509 151.681 57.2335C150.351 54.852 150.146 53.1967 147.758 51.3045C145.038 49.1479 141.97 47.8754 139.384 45.6614C137.898 44.3891 136.586 43.4242 134.918 42.4127L134.871 42.2847Z" fill="#8A4A4A"/>
<path d="M150.826 87.7558C153.993 85.0395 154.331 85.2758 156.476 81.6005C156.939 86.3891 158.238 98.7188 156.945 103.092C156.718 103.994 155.824 104.722 155.103 105.374C153.652 106.894 151.08 111.183 150.423 111.639L149.291 111.618L149.555 111.35C149.244 111 148.22 110.864 147.549 110.621C147.38 110.327 147.24 110.051 147.331 109.691C148.154 106.964 148.235 103.662 148.972 101.016C149.769 98.1561 150.301 97.6444 150.402 94.4744C151.416 92.7674 151.249 89.6745 150.826 87.7558Z" fill="#B57961"/>
<path d="M155.103 105.374C155.089 104.247 155.584 102.838 156.945 103.092C156.718 103.994 155.824 104.722 155.103 105.374Z" fill="#B57961"/>
</svg>
