<svg width="200" height="200" viewBox="0 0 200 200" fill="none" xmlns="http://www.w3.org/2000/svg">
<path d="M113.758 68.0099C118.381 68.061 123.003 68.0657 127.626 68.0243C130.75 68.0194 136.069 67.9748 139.064 68.6623C139.415 69.064 142.045 71.9521 142.146 72.1832C143.904 76.2179 145.345 81.8153 146.252 86.1476C146.534 87.4969 146.153 89.6218 146.652 91.1162C147.087 92.4195 149.04 94.1764 149.1 95.089C148.941 95.579 148.623 97.2222 148.502 97.7892C148.07 95.7683 145.811 93.6127 145.541 91.8993C144.864 87.6097 144.786 84.5324 143.403 80.3195C141.761 75.3214 142.012 73.9185 138.21 70.1231C132.04 68.5117 129.661 69.1643 123.53 69.3793C120.361 69.4902 116.54 69.4278 113.289 69.4879L113.669 68.0453L113.758 68.0099Z" fill="#1E1E1E"/>
<path d="M51.5652 97.5459C52.4536 98.455 52.5784 103.007 52.8762 104.642C52.9014 105.497 52.7171 106.309 53.4493 106.824C53.5173 107.04 53.527 107.436 53.5425 107.68C53.2202 108.206 53.4053 108.054 52.8593 108.273C52.1567 108.108 52.411 108.247 51.8923 107.754C51.6591 107.175 51.6573 107.101 51.7397 106.496C51.2725 104.537 50.906 102.444 50.5247 100.46C50.5413 100.106 50.5408 99.0891 50.7044 98.8421C50.8349 99.364 50.8681 99.4926 51.1112 99.9769L51.165 100.082C51.1421 99.0771 51.0453 98.3931 51.5652 97.5459Z" fill="#1E1E1E"/>
<path d="M50.5247 100.46C50.5413 100.106 50.5408 99.0891 50.7044 98.8421C50.8349 99.364 50.8681 99.4926 51.1112 99.9769L51.165 100.082C51.3039 101.474 52.0674 105.543 51.7397 106.496C51.2725 104.537 50.906 102.444 50.5247 100.46Z" fill="#1E1E1E"/>
<path d="M52.8762 104.642C52.9464 104.074 52.9755 103.585 53.3611 103.246L53.6613 103.582C53.6658 104.615 53.7469 105.857 53.4493 106.824C52.7171 106.309 52.9014 105.497 52.8762 104.642Z" fill="#1E1E1E"/>
<path d="M117.629 86.3596C117.736 86.3462 117.842 86.3364 117.949 86.3305C120.62 86.1737 128.888 87.4769 128.988 91.0381L128.748 91.2659C127.918 91.3206 125.553 90.7021 124.434 90.5247C122.216 89.9875 119.948 89.6845 117.667 89.6206C116.219 89.5834 113.802 89.6595 112.464 89.3859L112.235 89.0174C112.608 87.0745 116 86.5412 117.629 86.3596Z" fill="#1E1E1E"/>
<path d="M78.2432 85.1459C80.3372 84.97 83.3564 85.1874 85.3123 86.074C86.1284 86.4437 88.06 87.9244 87.5504 88.9167C86.6774 89.2774 82.5594 88.5668 81.325 88.4328C79.3578 88.2513 72.4377 88.895 71.4971 88.4476C71.4758 88.001 71.538 87.868 71.8956 87.4814C73.8496 85.3694 75.6127 85.3188 78.2432 85.1459Z" fill="#1E1E1E"/>
<path d="M51.5652 97.5459C51.6592 97.423 51.413 92.4501 51.4217 91.5163C51.489 84.194 53.0924 76.8875 54.4597 69.7185C54.9437 67.1802 56.088 65.2758 57.1452 63.0118C61.0217 54.7107 67.8605 47.1227 75.6064 42.2176C80.6859 39.0011 88.7527 36.8531 94.77 36.2006C96.935 35.9659 101.263 36.1343 103.61 36.1345C105.925 36.1347 109.859 36.3702 112.095 36.7566C115.666 37.3739 119.367 38.8061 122.977 39.6069C122.211 41.4797 120.79 46.4606 120.028 48.7358L115.43 62.4363C115.095 63.4634 113.862 67.0544 113.758 68.0099L113.669 68.0453L113.289 69.4879C101.489 70.0423 90.1957 68.7087 78.485 68.2503C73.788 68.0664 65.216 65.5014 61.971 69.4252C59.8079 72.0406 58.48 79.6317 57.5161 83.074C56.9821 84.9814 56.9027 87.7957 55.9592 89.5656C55.6374 90.3166 55.1286 90.7284 54.8543 91.3849C54.2835 92.7522 54.2289 94.4104 53.8732 95.8215L53.2302 95.8419C52.3743 96.9865 53.7171 101.971 53.6613 103.582L53.3611 103.246C52.9755 103.585 52.9464 104.074 52.8762 104.642C52.5784 103.007 52.4536 98.455 51.5652 97.5459Z" fill="#272727"/>
<path d="M55.339 88.3501C56.1982 86.4642 56.1235 84.0645 56.5926 82.0903C57.4849 78.3363 58.4988 73.8363 59.8514 70.2408C60.242 69.2025 61.4127 68.0318 62.09 67.2923C63.1993 66.0808 66.7831 65.8444 68.4128 65.873C71.1746 65.9215 74.7516 66.3318 77.6086 66.5727C80.9613 66.8553 84.2341 66.8489 87.5747 67.0627C90.0573 67.2216 92.6679 67.7613 95.2426 67.8983C101.29 68.2199 107.646 67.713 113.669 68.0453L113.289 69.4879C101.489 70.0423 90.1957 68.7087 78.485 68.2503C73.788 68.0664 65.216 65.5014 61.971 69.4252C59.8079 72.0406 58.48 79.6317 57.5161 83.074C56.9821 84.9814 56.9027 87.7957 55.9592 89.5656C55.554 89.0061 56.1723 89.1982 55.339 88.3501Z" fill="#1E1E1E"/>
<path d="M55.339 88.3501C56.1723 89.1982 55.554 89.0061 55.9592 89.5656C55.6374 90.3166 55.1286 90.7284 54.8543 91.3849C54.2835 92.7522 54.2289 94.4104 53.8732 95.8215L53.2913 95.6465C51.9403 94.2734 54.1121 89.5719 55.339 88.3501Z" fill="#1E1E1E"/>
<path d="M122.977 39.6069C125.323 41.2444 128.314 42.2242 130.573 43.9003C133.406 46.002 136.892 48.3684 139.447 50.7778C146.212 57.155 148.768 66.5791 150.767 75.3395C151.265 77.5605 151.381 80.5914 151.702 82.9071C152.482 88.5357 154.065 94.9339 152.234 100.476C152.063 100.991 151.556 101.972 151.72 102.409C152.159 103.95 150.876 108.212 150.209 109.619C150.173 110.271 150.257 110.021 149.882 110.564L149.406 110.793C149.459 109.821 148.656 110.119 148.749 108.468C148.979 104.376 149.761 100.28 149.651 96.1753C149.632 95.5057 149.509 95.4447 149.1 95.089C149.04 94.1764 147.087 92.4195 146.652 91.1162C146.153 89.6218 146.534 87.4969 146.252 86.1476C145.345 81.8153 143.904 76.2179 142.146 72.1832C142.045 71.9521 139.415 69.064 139.064 68.6623C136.069 67.9748 130.75 68.0194 127.626 68.0243C123.003 68.0657 118.381 68.061 113.758 68.0099C113.862 67.0544 115.095 63.4634 115.43 62.4363L120.028 48.7358C120.79 46.4606 122.211 41.4797 122.977 39.6069Z" fill="#272727"/>
<path d="M151.72 102.409C152.159 103.95 150.876 108.212 150.209 109.619C149.609 108.62 150.74 103.238 151.72 102.409Z" fill="#1E1E1E"/>
<path d="M122.977 39.6069L123.678 38.3776C125.936 39.4562 128.23 40.5176 130.388 41.7731C132.437 42.9653 134.295 44.6912 136.148 45.9944C142.783 50.6599 146.661 56.2341 149.318 63.8278C150.581 67.441 151.793 72.0267 152.55 75.8176C152.902 77.5795 153.055 80.1134 153.316 81.9904C153.584 83.9148 154.016 86.3105 154.164 88.2063C154.441 91.7366 154.328 95.5537 154.08 99.1181L153.236 101.409C152.617 103.399 151.47 110.391 150.216 111.329C149.62 111.441 149.825 111.489 149.395 111.228L149.406 110.793L149.882 110.564C150.257 110.021 150.173 110.271 150.209 109.619C150.876 108.212 152.159 103.95 151.72 102.409C151.556 101.972 152.063 100.991 152.234 100.476C154.065 94.9339 152.482 88.5357 151.702 82.9071C151.381 80.5914 151.265 77.5605 150.767 75.3395C148.768 66.5791 146.212 57.155 139.447 50.7778C136.892 48.3684 133.406 46.002 130.573 43.9003C128.314 42.2242 125.323 41.2444 122.977 39.6069Z" fill="#1E1E1E"/>
<path d="M51.4217 91.5163C51.413 92.4501 51.6592 97.423 51.5652 97.5459L49.8791 95.7387C49.8929 95.3894 49.8935 95.0408 49.8791 94.7049C49.5654 87.3622 50.5254 80.2875 52.2022 73.1484C52.5745 71.5635 52.7191 68.9484 53.3486 67.4295C55.2874 62.7502 57.7869 57.9932 60.6719 53.808C64.0538 49.376 71.8294 41.9802 76.8489 39.7555C91.6471 33.0557 108.512 32.5594 123.678 38.3776L122.977 39.6069C119.367 38.8061 115.666 37.3739 112.095 36.7566C109.859 36.3702 105.925 36.1347 103.61 36.1345C101.263 36.1343 96.935 35.9659 94.77 36.2006C88.7527 36.8531 80.6859 39.0011 75.6064 42.2176C67.8605 47.1227 61.0217 54.7107 57.1452 63.0118C56.088 65.2758 54.9437 67.1802 54.4597 69.7185C53.0924 76.8875 51.489 84.194 51.4217 91.5163Z" fill="#1E1E1E"/>
</svg>
