<svg width="200" height="200" viewBox="0 0 200 200" fill="none" xmlns="http://www.w3.org/2000/svg">
<path d="M116.367 88.3952C116.473 88.3818 116.58 88.372 116.687 88.3661C119.357 88.2093 127.626 89.5125 127.726 93.0737L127.485 93.3015C126.655 93.3562 124.291 92.7377 123.172 92.5603C120.954 92.0231 118.686 91.7202 116.404 91.6562C114.956 91.619 112.54 91.6951 111.202 91.4215L110.973 91.053C111.345 89.1101 114.737 88.5768 116.367 88.3952Z" fill="#864845"/>
<path d="M80.6872 87.2386C82.7811 87.0627 83.5024 87.2801 85.4583 88.1667C86.2744 88.5364 88.206 90.0171 87.6964 91.0095C86.8234 91.3702 82.7054 90.6595 81.471 90.5255C79.5038 90.344 72.5837 90.9877 71.6432 90.5403C71.6218 90.0937 71.684 89.9608 72.0416 89.5742C73.9956 87.4621 78.0567 87.4116 80.6872 87.2386Z" fill="#864845"/>
<path d="M116.91 57.8739C118.67 59.6781 121.039 61.6156 122.929 63.3587C125.003 65.2025 130.938 75.7073 132.548 78.5907C135.527 83.9247 137.888 90.3754 141.784 95.3688C142.589 96.9659 143.514 98.2596 144.003 99.9626C143.58 102.048 143.277 102.766 142.039 104.558C142.476 103.024 143.108 101.632 143.481 100.112L142.702 98.3041C142.579 98.4473 142.236 98.8296 142.146 98.9688C142.621 100.571 142.349 101.036 141.71 102.539C141.174 102.599 138.859 102.899 138.497 102.737C133.008 100.121 130.716 93.4301 128.041 88.3661C127.459 87.2639 126.802 85.1573 125.816 84.6634L126.046 84.3896C125.949 83.5959 125.075 81.7134 124.708 80.9428C123.7 79.3738 123.021 77.6889 122.238 75.9844C122.045 75.859 121.882 75.7533 121.75 75.6673C121.71 74.8877 120.649 73.3948 120.205 72.7032L119.908 71.7583C121.293 70.2712 121.82 66.2456 122.894 63.9932C119.828 61.7026 118.873 61.4101 116.91 57.8739Z" fill="#B47861"/>
<path d="M116.91 57.8739C118.67 59.6781 121.039 61.6156 122.929 63.3587C125.003 65.2025 130.938 75.7073 132.548 78.5907C135.527 83.9247 137.888 90.3754 141.784 95.3688C142.589 96.9659 143.514 98.2596 144.003 99.9626C143.58 102.048 143.277 102.766 142.039 104.558C142.476 103.024 143.108 101.632 143.481 100.112L142.702 98.3041C141.615 96.365 141.12 95.6824 139.536 94.086C137.944 92.3385 137.574 91.4022 136.977 89.159C136.243 86.3972 124.708 65.0247 122.894 63.9932C119.828 61.7026 118.873 61.4101 116.91 57.8739Z" fill="#864845"/>
<path d="M142.146 98.9688C141.887 97.866 139.089 95.6831 139.536 94.086C141.12 95.6824 141.615 96.365 142.702 98.3041C142.579 98.4473 142.236 98.8296 142.146 98.9688Z" fill="#B47861"/>
<path d="M112.065 65.2522C113.532 65.3021 119.708 70.5696 119.908 71.7583L120.205 72.7032C119.905 73.0065 119.464 73.4214 119.219 73.7534C118.964 73.3093 118.293 72.044 118.005 71.7209C116.072 69.5489 112.886 66.7412 110.18 65.8199L110.288 65.6193C110.959 65.4066 111.366 65.3544 112.065 65.2522Z" fill="#864845"/>
<path d="M120.205 72.7032C120.649 73.3948 121.71 74.8877 121.75 75.6673L122.11 79.573C121.19 77.4926 120.278 75.7728 119.219 73.7534C119.464 73.4214 119.905 73.0065 120.205 72.7032Z" fill="#B47861"/>
<path d="M69.3748 90.9485L70.6303 91.9229C69.7699 93.2021 68.9169 94.4863 68.0714 95.7754C67.8932 95.1256 67.7076 94.3737 67.5065 93.7402C67.658 93.2519 68.9292 91.7471 69.3748 90.9485Z" fill="#864845"/>
<path d="M48.3268 94.5431L48.5317 94.4225C49.9083 95.9529 52.5675 96.0005 53.271 96.9882L53.1439 97.1474C51.3338 96.9682 49.4993 95.9457 48.3268 94.5431Z" fill="#B47861"/>
<path d="M42.4769 157.989C43.5512 156.03 46.9436 147.703 46.9436 147.703C48.7184 139.812 48.8938 133.813 48.9112 125.724L51.385 126.094C52.1534 126.845 52.8094 127.364 53.2056 127.408C53.6604 127.106 53.57 127.066 53.8293 126.49C54.347 126.753 54.3308 127.327 54.696 127.587C56.7722 129.063 57.3516 130.548 58.5336 132.689C62.8581 140.525 71.5275 144.907 78.8979 149.373C80.0814 150.09 81.4259 150.573 82.565 151.255C83.7298 154.991 82.9457 160.104 81.4063 163.715C81.1968 164.206 80.7266 164.337 80.2827 164.569L80.2166 164.602C78.06 165.637 75.8479 166.332 73.699 167.28C71.9925 167.28 69.1046 168.488 68.39 170.693C67.3144 174.019 63.0026 171.933 61.8801 175.244L58.4672 176.065C58.4672 176.065 36.0302 167.091 35.4614 166.016C34.8926 164.942 41.4026 159.949 42.4769 157.989Z" fill="#864845"/>
<path d="M50.4774 128.014C51.9875 128.777 53.4195 128.96 54.8626 129.643C56.1425 131.275 56.8687 133.404 58.1187 135.218C61.3613 139.923 66.6563 143.791 71.459 146.825C74.5354 148.768 78.0487 150.28 81.0056 152.427C82.8926 153.691 80.837 161.285 80.222 163.117C79.6599 162.918 79.0143 162.707 78.4709 162.482C76.3391 163.01 69.4683 165.639 68.7666 167.345C67.2671 170.992 64.6543 170.794 61.5352 172.953C60.758 173.491 59.5285 174.256 58.6135 174.813C54.6514 173.485 49.92 171.856 46.45 169.473C50.3794 170.077 54.1449 170.644 58.0789 171.308L58.4485 170.975C55.883 170.266 52.7621 169.151 50.2363 168.602C46.0354 167.69 42.2288 167.286 37.9929 166.13C39.7934 162.645 43.1236 160.292 45.0389 157.179C50.2452 148.716 49.9036 137.417 50.4774 128.014Z" fill="#B47861"/>
<path d="M58.4485 170.975C59.1003 171.227 60.4636 171.683 60.7602 172.301C59.6367 172.08 59.0091 171.556 58.0789 171.308L58.4485 170.975Z" fill="#B47861"/>
<path d="M49.1766 93.2383C47.7109 90.427 47.5576 90.1769 47.572 86.9319C47.607 79.1007 49.6988 72.3251 51.8141 64.8997C52.2529 63.3594 53.6736 57.5325 54.4235 56.2726C56.6837 52.4758 60.1897 47.1542 63.2308 43.949C64.9215 42.1673 67.4482 41.3268 69.3984 39.9713C78.5397 33.6167 87.9094 30.2062 99.2826 30.3244C100.409 31.2721 101.086 31.602 102.443 32.0581C103.734 31.5485 104.534 31.2365 105.734 30.5566C108.614 31.3898 111.163 31.2213 113.648 31.8129C116.676 32.5337 122.092 34.8133 124.905 36.33C126.467 37.1725 129.02 39.1413 130.622 40.1813L130.749 40.2792C130.13 41.7308 129.556 43.8732 129.031 45.4368C127.674 49.4064 126.351 53.3876 125.063 57.38C124.687 58.5282 123.41 62.5137 122.929 63.3587C121.039 61.6156 118.67 59.6781 116.91 57.8739C118.873 61.4101 119.828 61.7026 122.894 63.9932C121.82 66.2456 121.293 70.2712 119.908 71.7583C119.708 70.5696 113.532 65.3021 112.065 65.2522C112.014 65.1688 111.849 64.9494 111.768 64.8991C107.674 62.3515 102.935 61.8427 98.2059 62.1342C96.7485 62.2239 93.5315 62.5047 92.5144 63.6257C93.0336 63.8981 94.0917 63.5572 94.5339 63.9806C94.2454 64.3405 94.0577 64.3945 93.6245 64.5339C93.2474 64.7064 92.7574 64.9473 92.3719 65.0815C85.339 67.5311 81.3246 72.4614 78.4121 79.1659C77.4366 80.4236 77.0946 82.0732 76.7148 82.5858C76.5754 82.6371 76.4066 82.6993 76.2086 82.7722C75.4474 84.1497 74.4337 86.0022 73.6754 87.3106C72.877 88.704 72.0032 90.0528 71.0576 91.3507L70.6303 91.9229L69.3748 90.9485C68.9292 91.7471 67.658 93.2519 67.5065 93.7402C66.2321 94.8308 65.2618 96.0757 63.8064 97.1841C62.4496 98.2173 59.7888 98.4895 58.3909 99.372C58.2884 99.6872 58.2004 99.9575 58.1272 100.183C55.3757 99.1127 55.5441 99.2295 55.1118 96.3012C55.0631 96.1611 54.9863 95.8426 54.8271 95.799C52.2798 95.1021 51.1073 95.1689 49.1766 93.2383Z" fill="#B47861"/>
<path d="M71.0112 89.0298C71.0023 88.9564 70.978 88.8217 71.0173 88.7612C76.3797 80.523 79.6967 69.8696 88.7745 64.8437C90.3238 63.986 91.7164 63.7124 93.4315 64.168L93.6245 64.5339C93.2474 64.7064 92.7574 64.9473 92.3719 65.0815C85.339 67.5311 81.3246 72.4614 78.4121 79.1659C77.4366 80.4236 77.0946 82.0732 76.7148 82.5858C76.5754 82.6371 76.4066 82.6993 76.2086 82.7722C75.4474 84.1497 74.4337 86.0022 73.6754 87.3106C72.877 88.704 72.0032 90.0528 71.0576 91.3507C70.7908 90.9082 70.9933 89.7043 71.0112 89.0298Z" fill="#864845"/>
<path d="M55.1118 96.3012C55.1508 93.3378 58.8189 90.8799 60.5601 88.5777C62.219 86.3843 63.7134 84.1489 65.2834 81.8985L65.6875 82.0476C63.7643 84.9603 63.0036 85.9005 61.9021 89.2372C61.3236 90.9894 55.9436 94.1819 56.7559 96.9072C57.167 98.7247 58.2943 98.0497 58.1272 100.183C55.3757 99.1127 55.5441 99.2295 55.1118 96.3012Z" fill="#B47861"/>
<path d="M65.2834 81.8985C69.2275 75.5141 73.603 68.2686 78.6658 62.7155C80.0199 61.2303 82.2199 60.0377 83.7748 58.7489C84.6548 58.0601 85.4746 57.2721 86.3099 56.6065C83.5578 60.8338 80.9226 60.5222 78.312 63.5965C73.6804 69.0512 69.4095 75.8993 65.6875 82.0476L65.2834 81.8985Z" fill="#864845"/>
<path d="M69.3748 90.9485C69.6506 90.2364 70.3301 89.411 71.0112 89.0298C70.9933 89.7043 70.7908 90.9082 71.0576 91.3507L70.6303 91.9229L69.3748 90.9485Z" fill="#B47861"/>
<path d="M130.749 40.2792L130.865 40.389C133.201 42.5737 136.997 44.3422 139.276 46.7223C141.46 49.0034 142.719 52.1638 144.5 54.7186C147.637 59.05 148.281 62.1893 149.138 67.2842C149.987 72.3359 151.042 76.9456 151.432 82.1217C151.738 86.1731 152.194 89.459 151.298 93.5778C151.25 93.7963 150.736 96.0719 150.726 95.9464C149.62 96.8222 148.931 98.8068 147.411 99.295C144.798 100.134 143.956 94.6787 141.784 95.3688C137.888 90.3754 135.527 83.9247 132.548 78.5907C130.938 75.7073 125.003 65.2025 122.929 63.3587C123.41 62.5137 124.687 58.5282 125.063 57.38C126.351 53.3876 127.674 49.4064 129.031 45.4368C129.556 43.8732 130.13 41.7308 130.749 40.2792Z" fill="#B47861"/>
<path d="M144.376 133.967C145.187 133.692 145.999 133.421 146.813 133.154C146.93 137.37 146.911 141.397 147.14 145.616C147.599 154.051 149.506 158.295 154.956 164.93C155.776 165.929 157.095 167.841 157.97 168.583C158.031 169.481 157.414 170.042 157.187 171.069C153.377 172.056 153.209 171.888 149.281 171.366C147.982 171.194 146.593 171.477 145.554 172.384L145.573 172.621C146.334 172.913 149.402 172.616 150.889 172.778C146.415 174.688 141.45 176.052 136.722 177.257C135.858 176.901 126.952 171.706 126.98 171.24C127.236 166.999 121.361 166.219 118.489 164.31C118.218 164.13 117.481 164.54 116.874 164.221C115.564 162.631 113.741 156.104 115.605 154.541C116.659 153.658 119.054 153 120.342 152.346C122.644 151.179 125.077 150.41 127.453 149.433C132.539 146.835 138.08 143.16 141.629 138.661C142.111 138.051 143.837 134.848 144.376 133.967Z" fill="#B47861"/>
<path d="M139.276 46.7223C136.997 44.3422 133.201 42.5737 130.865 40.389L130.749 40.2792L130.622 40.1813C131.043 39.7765 131.301 39.4234 131.656 38.9631C133.333 40.1617 139.079 43.9986 140.2 45.3541C143.522 49.3695 149.199 58.1527 150.088 63.1932C152.089 74.5405 154.647 84.6064 152.405 96.1399L150.732 95.9471C150.789 95.8396 151.253 93.7849 151.298 93.5778C152.194 89.459 151.738 86.1731 151.432 82.1217C151.042 76.9456 149.987 72.3359 149.138 67.2842C148.281 62.1893 147.637 59.05 144.5 54.7186C142.719 52.1638 141.46 49.0034 139.276 46.7223Z" fill="#864845"/>
<path d="M146.234 131.887L148.541 132.499C148.525 137.241 148.316 148.781 149.559 152.994C150.348 155.673 156.537 165.164 158.482 167.938C158.275 168.15 158.077 168.31 157.97 168.583C157.095 167.841 155.776 165.929 154.956 164.93C149.506 158.295 147.599 154.051 147.14 145.616C146.911 141.397 146.93 137.37 146.813 133.154C145.999 133.421 145.187 133.692 144.376 133.967C143.837 134.848 142.111 138.051 141.629 138.661C138.08 143.16 132.539 146.835 127.453 149.433C125.077 150.41 122.644 151.179 120.342 152.346C119.054 153 116.659 153.658 115.605 154.541C113.741 156.104 115.564 162.631 116.874 164.221C117.481 164.54 118.218 164.13 118.489 164.31C121.361 166.219 127.236 166.999 126.98 171.24C126.952 171.706 135.858 176.901 136.722 177.257C141.45 176.052 146.415 174.688 150.889 172.778C149.402 172.616 146.334 172.913 145.573 172.621L145.554 172.384C146.593 171.477 147.982 171.194 149.281 171.366C153.209 171.888 153.377 172.056 157.187 171.069L157.255 171.902C155.706 172.675 151.112 174.064 149.254 174.66C145.492 175.868 141.665 177.296 137.93 178.491H135.419C133.747 177.188 131.859 176.023 129.699 175.01C128.806 174.591 127.253 173.668 126.449 173.075L125.505 169.765C124.799 169.218 118.178 165.765 117.692 165.766L117.214 166.34C116.496 165.72 115.767 165.114 115.026 164.521C113.853 161.21 111.985 156.543 114.111 153.233C115.124 152.502 117.859 151.856 118.774 151.313C121.197 149.875 124.331 149.262 126.642 148.028C131.505 145.431 136.891 142.19 140.303 137.823C141.228 136.639 142.282 134.22 143.094 132.862C143.836 132.437 144.05 132.355 144.871 132.102C145.338 132.149 145.771 132.001 146.234 131.887Z" fill="#864845"/>
<path d="M48.3268 94.5431L47.3126 93.1766C46.5238 91.4316 46.3458 89.7289 46.2714 87.8363C45.9394 79.3738 47.9332 73.3515 49.9946 65.3421C50.8083 62.1805 51.492 58.6891 52.8683 55.7247C53.9845 53.3206 59.4476 45.635 61.2644 43.6867C63.2139 41.5963 65.676 40.3616 68.0621 38.8477C78.7289 32.0795 86.3605 29.0242 99.1929 28.5917C100.177 29.2143 101.179 29.8079 102.197 30.3718C103.42 29.9722 104.336 29.6783 105.351 28.8752C106.113 29.0567 107.343 29.3482 108.104 29.3981C116.484 29.9488 125.097 33.911 131.656 38.9631C131.301 39.4234 131.043 39.7765 130.622 40.1813C129.02 39.1413 126.467 37.1725 124.905 36.33C122.092 34.8133 116.676 32.5337 113.648 31.8129C111.163 31.2213 108.614 31.3898 105.734 30.5566C104.534 31.2365 103.734 31.5485 102.443 32.0581C101.086 31.602 100.409 31.2721 99.2826 30.3244C87.9094 30.2062 78.5397 33.6167 69.3984 39.9713C67.4482 41.3268 64.9215 42.1673 63.2308 43.949C60.1897 47.1542 56.6837 52.4758 54.4235 56.2726C53.6736 57.5325 52.2529 63.3594 51.8141 64.8997C49.6988 72.3251 47.607 79.1007 47.572 86.9319C47.5576 90.1769 47.7109 90.427 49.1766 93.2383C49.0059 93.5627 48.7254 94.1385 48.5317 94.4225L48.3268 94.5431Z" fill="#864845"/>
<path d="M157.97 168.583C158.077 168.31 158.275 168.15 158.482 167.938C158.767 168.383 159.144 168.936 159.367 169.402C158.727 170.927 158.827 171.266 157.255 171.902L157.187 171.069C157.414 170.042 158.031 169.481 157.97 168.583Z" fill="#864845"/>
</svg>
