<svg width="200" height="200" viewBox="0 0 200 200" fill="none" xmlns="http://www.w3.org/2000/svg">
<path d="M116.367 88.9893C116.473 88.9759 116.58 88.9662 116.687 88.9603C119.357 88.8035 127.626 90.1066 127.726 93.6679L127.485 93.8956C126.655 93.9503 124.291 93.3319 123.172 93.1544C120.954 92.6172 118.686 92.3143 116.404 92.2503C114.956 92.2131 112.54 92.2892 111.202 92.0156L110.973 91.6471C111.345 89.7042 114.737 89.1709 116.367 88.9893Z" fill="#FFE69E"/>
<path d="M80.6872 87.8327C82.7811 87.6568 83.5024 87.8743 85.4583 88.7608C86.2744 89.1305 88.206 90.6112 87.6964 91.6036C86.8234 91.9643 82.7054 91.2537 81.471 91.1196C79.5038 90.9382 72.5837 91.5818 71.6432 91.1344C71.6218 90.6878 71.684 90.5549 72.0416 90.1683C73.9956 88.0563 78.0567 88.0057 80.6872 87.8327Z" fill="#FFE69E"/>
<path d="M116.91 58.468C118.67 60.2722 121.039 62.2097 122.929 63.9528C125.003 65.7966 130.938 76.3014 132.548 79.1849C135.527 84.5188 137.888 90.9695 141.784 95.9629C142.589 97.5601 143.514 98.8537 144.003 100.557C143.58 102.642 143.277 103.36 142.039 105.152C142.476 103.618 143.108 102.226 143.481 100.706L142.702 98.8982C142.579 99.0414 142.236 99.4237 142.146 99.5629C142.621 101.165 142.349 101.63 141.71 103.133C141.174 103.193 138.859 103.493 138.497 103.331C133.008 100.715 130.716 94.0242 128.041 88.9603C127.459 87.858 126.802 85.7514 125.816 85.2575L126.046 84.9838C125.949 84.1901 125.075 82.3075 124.708 81.5369C123.7 79.968 123.021 78.283 122.238 76.5785C122.045 76.4531 121.882 76.3475 121.75 76.2614C121.71 75.4818 120.649 73.989 120.205 73.2973L119.908 72.3524C121.293 70.8653 121.82 66.8398 122.894 64.5873C119.828 62.2968 118.873 62.0042 116.91 58.468Z" fill="#FFE69E"/>
<path d="M116.91 58.468C118.67 60.2722 121.039 62.2097 122.929 63.9528C125.003 65.7966 130.938 76.3014 132.548 79.1849C135.527 84.5188 137.888 90.9695 141.784 95.9629C142.589 97.5601 143.514 98.8537 144.003 100.557C143.58 102.642 143.277 103.36 142.039 105.152C142.476 103.618 143.108 102.226 143.481 100.706L142.702 98.8982C141.615 96.9591 141.12 96.2765 139.536 94.6801C137.944 92.9326 137.574 91.9963 136.977 89.7531C136.243 86.9913 124.708 65.6188 122.894 64.5873C119.828 62.2968 118.873 62.0042 116.91 58.468Z" fill="#C8B975"/>
<path d="M142.146 99.5629C141.887 98.4601 139.089 96.2772 139.536 94.6801C141.12 96.2765 141.615 96.9591 142.702 98.8982C142.579 99.0414 142.236 99.4237 142.146 99.5629Z" fill="#FFE69E"/>
<path d="M112.065 65.8463C113.532 65.8962 119.708 71.1637 119.908 72.3524L120.205 73.2973C119.905 73.6006 119.464 74.0155 119.219 74.3476C118.964 73.9034 118.293 72.6381 118.005 72.315C116.072 70.143 112.886 67.3353 110.18 66.414L110.288 66.2134C110.959 66.0007 111.366 65.9485 112.065 65.8463Z" fill="#C8B975"/>
<path d="M120.205 73.2973C120.649 73.989 121.71 75.4818 121.75 76.2614L122.11 80.1671C121.19 78.0867 120.278 76.3669 119.219 74.3476C119.464 74.0155 119.905 73.6006 120.205 73.2973Z" fill="#FFE69E"/>
<path d="M69.3748 91.5427L70.6303 92.517C69.7699 93.7962 68.9169 95.0804 68.0714 96.3695C67.8932 95.7198 67.7076 94.9678 67.5065 94.3343C67.658 93.8461 68.9292 92.3412 69.3748 91.5427Z" fill="#C8B975"/>
<path d="M48.3268 95.1372L48.5317 95.0166C49.9083 96.547 52.5675 96.5946 53.271 97.5823L53.1439 97.7415C51.3338 97.5623 49.4993 96.5399 48.3268 95.1372Z" fill="#FFE69E"/>
<path d="M42.4769 158.583C43.5512 156.624 46.9436 148.297 46.9436 148.297C48.7184 140.406 48.8938 134.407 48.9112 126.318L51.385 126.688C52.1534 127.439 52.8094 127.958 53.2056 128.002C53.6604 127.7 53.57 127.661 53.8293 127.084C54.347 127.348 54.3308 127.922 54.696 128.181C56.7722 129.657 57.3516 131.142 58.5336 133.284C62.8581 141.119 71.5275 145.501 78.8979 149.967C80.0814 150.684 81.4259 151.167 82.565 151.849C83.7298 155.585 82.9457 160.699 81.4063 164.309C81.1968 164.8 80.7266 164.931 80.2827 165.163L80.2166 165.196C78.06 166.231 75.8479 166.926 73.699 167.874C71.9925 167.874 69.1046 169.082 68.39 171.287C67.3144 174.613 63.0026 172.527 61.8801 175.838L58.4672 176.659C58.4672 176.659 36.0302 167.685 35.4614 166.61C34.8926 165.536 41.4026 160.543 42.4769 158.583Z" fill="#C8B975"/>
<path d="M50.4774 128.608C51.9875 129.371 53.4195 129.554 54.8626 130.237C56.1425 131.869 56.8687 133.998 58.1187 135.812C61.3613 140.517 66.6563 144.385 71.459 147.419C74.5354 149.362 78.0487 150.874 81.0056 153.021C82.8926 154.285 80.837 161.879 80.222 163.711C79.6599 163.512 79.0143 163.301 78.4709 163.076C76.3391 163.604 69.4683 166.233 68.7666 167.94C67.2671 171.586 64.6543 171.388 61.5352 173.547C60.758 174.086 59.5285 174.85 58.6135 175.407C54.6514 174.079 49.92 172.45 46.45 170.067C50.3794 170.671 54.1449 171.238 58.0789 171.902L58.4485 171.569C55.883 170.86 52.7621 169.745 50.2363 169.196C46.0354 168.284 42.2288 167.88 37.9929 166.724C39.7934 163.24 43.1236 160.886 45.0389 157.773C50.2452 149.31 49.9036 138.011 50.4774 128.608Z" fill="#FFE69E"/>
<path d="M58.4485 171.569C59.1003 171.821 60.4636 172.277 60.7602 172.895C59.6367 172.674 59.0091 172.15 58.0789 171.902L58.4485 171.569Z" fill="#FFE69E"/>
<path d="M49.1766 93.8325C47.7109 91.0211 47.5576 90.771 47.572 87.526C47.607 79.6948 49.6988 72.9192 51.8141 65.4938C52.2529 63.9535 53.6736 58.1266 54.4235 56.8667C56.6837 53.0699 60.1897 47.7484 63.2308 44.5431C64.9215 42.7614 67.4482 41.9209 69.3984 40.5654C78.5397 34.2108 87.9094 30.8003 99.2826 30.9185C100.409 31.8662 101.086 32.1961 102.443 32.6523C103.734 32.1426 104.534 31.8306 105.734 31.1507C108.614 31.9839 111.163 31.8155 113.648 32.407C116.676 33.1279 122.092 35.4074 124.905 36.9241C126.467 37.7666 129.02 39.7354 130.622 40.7754L130.749 40.8733C130.13 42.3249 129.556 44.4674 129.031 46.0309C127.674 50.0005 126.351 53.9817 125.063 57.9742C124.687 59.1223 123.41 63.1078 122.929 63.9528C121.039 62.2097 118.67 60.2722 116.91 58.468C118.873 62.0042 119.828 62.2968 122.894 64.5873C121.82 66.8398 121.293 70.8653 119.908 72.3524C119.708 71.1637 113.532 65.8962 112.065 65.8463C112.014 65.7629 111.849 65.5435 111.768 65.4933C107.674 62.9456 102.935 62.4368 98.2059 62.7284C96.7485 62.818 93.5315 63.0988 92.5144 64.2198C93.0336 64.4922 94.0917 64.1513 94.5339 64.5748C94.2454 64.9346 94.0577 64.9886 93.6245 65.1281C93.2474 65.3005 92.7574 65.5414 92.3719 65.6756C85.339 68.1252 81.3246 73.0555 78.4121 79.76C77.4366 81.0177 77.0946 82.6673 76.7148 83.1799C76.5754 83.2312 76.4066 83.2934 76.2086 83.3663C75.4474 84.7439 74.4337 86.5963 73.6754 87.9048C72.877 89.2982 72.0032 90.6469 71.0576 91.9449L70.6303 92.517L69.3748 91.5427C68.9292 92.3412 67.658 93.8461 67.5065 94.3343C66.2321 95.4249 65.2618 96.6699 63.8064 97.7782C62.4496 98.8114 59.7888 99.0836 58.3909 99.9662C58.2884 100.281 58.2004 100.552 58.1272 100.777C55.3757 99.7068 55.5441 99.8236 55.1118 96.8953C55.0631 96.7552 54.9863 96.4368 54.8271 96.3931C52.2798 95.6962 51.1073 95.763 49.1766 93.8325Z" fill="#FFE69E"/>
<path d="M71.0112 89.6239C71.0023 89.5506 70.978 89.4158 71.0173 89.3553C76.3797 81.1171 79.6967 70.4637 88.7745 65.4378C90.3238 64.5801 91.7164 64.3065 93.4315 64.7621L93.6245 65.1281C93.2474 65.3005 92.7574 65.5414 92.3719 65.6756C85.339 68.1252 81.3246 73.0555 78.4121 79.76C77.4366 81.0177 77.0946 82.6673 76.7148 83.1799C76.5754 83.2312 76.4066 83.2934 76.2086 83.3663C75.4474 84.7439 74.4337 86.5963 73.6754 87.9048C72.877 89.2982 72.0032 90.6469 71.0576 91.9449C70.7908 91.5023 70.9933 90.2984 71.0112 89.6239Z" fill="#C8B975"/>
<path d="M55.1118 96.8953C55.1508 93.9319 58.8189 91.474 60.5601 89.1718C62.219 86.9784 63.7134 84.743 65.2834 82.4926L65.6875 82.6418C63.7643 85.5544 63.0036 86.4947 61.9021 89.8313C61.3236 91.5835 55.9436 94.776 56.7559 97.5013C57.167 99.3188 58.2943 98.6439 58.1272 100.777C55.3757 99.7068 55.5441 99.8236 55.1118 96.8953Z" fill="#FFE69E"/>
<path d="M65.2834 82.4926C69.2275 76.1083 73.603 68.8628 78.6658 63.3096C80.0199 61.8245 82.2199 60.6318 83.7748 59.3431C84.6548 58.6542 85.4746 57.8662 86.3099 57.2006C83.5578 61.4279 80.9226 61.1163 78.312 64.1906C73.6804 69.6453 69.4095 76.4935 65.6875 82.6418L65.2834 82.4926Z" fill="#C8B975"/>
<path d="M69.3748 91.5427C69.6506 90.8305 70.3301 90.0051 71.0112 89.6239C70.9933 90.2984 70.7908 91.5023 71.0576 91.9449L70.6303 92.517L69.3748 91.5427Z" fill="#FFE69E"/>
<path d="M130.749 40.8733L130.865 40.9831C133.201 43.1678 136.997 44.9363 139.276 47.3164C141.46 49.5975 142.719 52.7579 144.5 55.3127C147.637 59.6441 148.281 62.7835 149.138 67.8784C149.987 72.93 151.042 77.5397 151.432 82.7158C151.738 86.7672 152.194 90.0531 151.298 94.172C151.25 94.3905 150.736 96.666 150.726 96.5405C149.62 97.4163 148.931 99.4009 147.411 99.8892C144.798 100.729 143.956 95.2728 141.784 95.9629C137.888 90.9695 135.527 84.5188 132.548 79.1849C130.938 76.3014 125.003 65.7966 122.929 63.9528C123.41 63.1078 124.687 59.1223 125.063 57.9742C126.351 53.9817 127.674 50.0005 129.031 46.0309C129.556 44.4674 130.13 42.3249 130.749 40.8733Z" fill="#FFE69E"/>
<path d="M144.376 134.561C145.187 134.286 145.999 134.015 146.813 133.748C146.93 137.964 146.911 141.991 147.14 146.21C147.599 154.645 149.506 158.889 154.956 165.525C155.776 166.524 157.095 168.435 157.97 169.177C158.031 170.075 157.414 170.636 157.187 171.663C153.377 172.65 153.209 172.482 149.281 171.961C147.982 171.788 146.593 172.071 145.554 172.978L145.573 173.215C146.334 173.507 149.402 173.21 150.889 173.372C146.415 175.282 141.45 176.647 136.722 177.851C135.858 177.496 126.952 172.3 126.98 171.834C127.236 167.593 121.361 166.813 118.489 164.904C118.218 164.724 117.481 165.134 116.874 164.816C115.564 163.225 113.741 156.698 115.605 155.135C116.659 154.252 119.054 153.594 120.342 152.94C122.644 151.773 125.077 151.004 127.453 150.028C132.539 147.43 138.08 143.754 141.629 139.255C142.111 138.645 143.837 135.442 144.376 134.561Z" fill="#FFE69E"/>
<path d="M139.276 47.3164C136.997 44.9363 133.201 43.1678 130.865 40.9831L130.749 40.8733L130.622 40.7754C131.043 40.3706 131.301 40.0175 131.656 39.5573C133.333 40.7558 139.079 44.5927 140.2 45.9482C143.522 49.9636 149.199 58.7468 150.088 63.7873C152.089 75.1347 154.647 85.2005 152.405 96.734L150.732 96.5412C150.789 96.4338 151.253 94.379 151.298 94.172C152.194 90.0531 151.738 86.7672 151.432 82.7158C151.042 77.5397 149.987 72.93 149.138 67.8784C148.281 62.7835 147.637 59.6441 144.5 55.3127C142.719 52.7579 141.46 49.5975 139.276 47.3164Z" fill="#C8B975"/>
<path d="M146.234 132.482L148.541 133.093C148.525 137.835 148.316 149.375 149.559 153.588C150.348 156.267 156.537 165.758 158.482 168.532C158.275 168.744 158.077 168.904 157.97 169.177C157.095 168.435 155.776 166.524 154.956 165.525C149.506 158.889 147.599 154.645 147.14 146.21C146.911 141.991 146.93 137.964 146.813 133.748C145.999 134.015 145.187 134.286 144.376 134.561C143.837 135.442 142.111 138.645 141.629 139.255C138.08 143.754 132.539 147.43 127.453 150.028C125.077 151.004 122.644 151.773 120.342 152.94C119.054 153.594 116.659 154.252 115.605 155.135C113.741 156.698 115.564 163.225 116.874 164.816C117.481 165.134 118.218 164.724 118.489 164.904C121.361 166.813 127.236 167.593 126.98 171.834C126.952 172.3 135.858 177.496 136.722 177.851C141.45 176.647 146.415 175.282 150.889 173.372C149.402 173.21 146.334 173.507 145.573 173.215L145.554 172.978C146.593 172.071 147.982 171.788 149.281 171.961C153.209 172.482 153.377 172.65 157.187 171.663L157.255 172.496C155.706 173.269 151.112 174.658 149.254 175.254C145.492 176.462 141.665 177.89 137.93 179.085H135.419C133.747 177.782 131.859 176.617 129.699 175.604C128.806 175.185 127.253 174.262 126.449 173.669L125.505 170.359C124.799 169.812 118.178 166.359 117.692 166.361L117.214 166.934C116.496 166.314 115.767 165.708 115.026 165.115C113.853 161.804 111.985 157.138 114.111 153.827C115.124 153.096 117.859 152.45 118.774 151.907C121.197 150.469 124.331 149.857 126.642 148.622C131.505 146.025 136.891 142.784 140.303 138.417C141.228 137.233 142.282 134.815 143.094 133.456C143.836 133.031 144.05 132.949 144.871 132.696C145.338 132.743 145.771 132.595 146.234 132.482Z" fill="#C8B975"/>
<path d="M48.3268 95.1372L47.3126 93.7708C46.5238 92.0257 46.3458 90.3231 46.2714 88.4304C45.9394 79.9679 47.9332 73.9457 49.9946 65.9362C50.8083 62.7746 51.492 59.2833 52.8683 56.3188C53.9845 53.9148 59.4476 46.2291 61.2644 44.2808C63.2139 42.1904 65.676 40.9557 68.0621 39.4418C78.7289 32.6737 86.3605 29.6183 99.1929 29.1858C100.177 29.8084 101.179 30.4021 102.197 30.966C103.42 30.5663 104.336 30.2724 105.351 29.4693C106.113 29.6508 107.343 29.9423 108.104 29.9922C116.484 30.5429 125.097 34.5051 131.656 39.5573C131.301 40.0175 131.043 40.3706 130.622 40.7754C129.02 39.7354 126.467 37.7666 124.905 36.9241C122.092 35.4074 116.676 33.1279 113.648 32.407C111.163 31.8155 108.614 31.9839 105.734 31.1507C104.534 31.8306 103.734 32.1426 102.443 32.6523C101.086 32.1961 100.409 31.8662 99.2826 30.9185C87.9094 30.8003 78.5397 34.2108 69.3984 40.5654C67.4482 41.9209 64.9215 42.7614 63.2308 44.5431C60.1897 47.7484 56.6837 53.0699 54.4235 56.8667C53.6736 58.1266 52.2529 63.9535 51.8141 65.4938C49.6988 72.9192 47.607 79.6948 47.572 87.526C47.5576 90.771 47.7109 91.0211 49.1766 93.8325C49.0059 94.1568 48.7254 94.7326 48.5317 95.0166L48.3268 95.1372Z" fill="#C8B975"/>
<path d="M157.97 169.177C158.077 168.904 158.275 168.744 158.482 168.532C158.767 168.977 159.144 169.53 159.367 169.996C158.727 171.521 158.827 171.86 157.255 172.496L157.187 171.663C157.414 170.636 158.031 170.075 157.97 169.177Z" fill="#C8B975"/>
</svg>
