<svg width="200" height="200" viewBox="0 0 200 200" fill="none" xmlns="http://www.w3.org/2000/svg">
<path d="M116.367 88.7401C116.473 88.7267 116.58 88.717 116.687 88.7111C119.357 88.5543 127.626 89.8575 127.726 93.4187L127.485 93.6464C126.655 93.7012 124.291 93.0827 123.172 92.9052C120.954 92.3681 118.686 92.0651 116.404 92.0012C114.956 91.964 112.54 92.0401 111.202 91.7665L110.973 91.398C111.345 89.4551 114.737 88.9218 116.367 88.7401Z" fill="#1E1E1E"/>
<path d="M80.6872 87.5836C82.7811 87.4077 83.5024 87.6251 85.4583 88.5116C86.2744 88.8814 88.206 90.362 87.6964 91.3544C86.8234 91.7151 82.7054 91.0045 81.471 90.8705C79.5038 90.689 72.5837 91.3327 71.6432 90.8853C71.6218 90.4387 71.684 90.3057 72.0416 89.9191C73.9956 87.8071 78.0567 87.7565 80.6872 87.5836Z" fill="#1E1E1E"/>
<path d="M116.91 58.2189C118.67 60.023 121.039 61.9605 122.929 63.7037C125.003 65.5475 130.938 76.0523 132.548 78.9357C135.527 84.2696 137.888 90.7204 141.784 95.7138C142.589 97.3109 143.514 98.6045 144.003 100.308C143.58 102.393 143.277 103.111 142.039 104.903C142.476 103.369 143.108 101.977 143.481 100.457L142.702 98.649C142.579 98.7923 142.236 99.1745 142.146 99.3138C142.621 100.916 142.349 101.381 141.71 102.883C141.174 102.944 138.859 103.243 138.497 103.082C133.008 100.466 130.716 93.7751 128.041 88.7111C127.459 87.6089 126.802 85.5022 125.816 85.0084L126.046 84.7346C125.949 83.9409 125.075 82.0584 124.708 81.2878C123.7 79.7188 123.021 78.0339 122.238 76.3293C122.045 76.204 121.882 76.0983 121.75 76.0123C121.71 75.2326 120.649 73.7398 120.205 73.0482L119.908 72.1032C121.293 70.6161 121.82 66.5906 122.894 64.3381C119.828 62.0476 118.873 61.7551 116.91 58.2189Z" fill="#272727"/>
<path d="M116.91 58.2189C118.67 60.023 121.039 61.9605 122.929 63.7037C125.003 65.5475 130.938 76.0523 132.548 78.9357C135.527 84.2696 137.888 90.7204 141.784 95.7138C142.589 97.3109 143.514 98.6045 144.003 100.308C143.58 102.393 143.277 103.111 142.039 104.903C142.476 103.369 143.108 101.977 143.481 100.457L142.702 98.649C141.615 96.71 141.12 96.0274 139.536 94.4309C137.944 92.6834 137.574 91.7472 136.977 89.5039C136.243 86.7422 124.708 65.3696 122.894 64.3381C119.828 62.0476 118.873 61.7551 116.91 58.2189Z" fill="#1E1E1E"/>
<path d="M142.146 99.3138C141.887 98.211 139.089 96.0281 139.536 94.4309C141.12 96.0274 141.615 96.71 142.702 98.649C142.579 98.7923 142.236 99.1745 142.146 99.3138Z" fill="#272727"/>
<path d="M112.065 65.5972C113.532 65.6471 119.708 70.9146 119.908 72.1032L120.205 73.0482C119.905 73.3515 119.464 73.7664 119.219 74.0984C118.964 73.6543 118.293 72.389 118.005 72.0658C116.072 69.8939 112.886 67.0862 110.18 66.1649L110.288 65.9643C110.959 65.7515 111.366 65.6994 112.065 65.5972Z" fill="#1E1E1E"/>
<path d="M120.205 73.0482C120.649 73.7398 121.71 75.2326 121.75 76.0123L122.11 79.918C121.19 77.8376 120.278 76.1178 119.219 74.0984C119.464 73.7664 119.905 73.3515 120.205 73.0482Z" fill="#272727"/>
<path d="M69.3748 91.2935L70.6303 92.2678C69.7699 93.547 68.9169 94.8313 68.0714 96.1204C67.8932 95.4706 67.7076 94.7186 67.5065 94.0852C67.658 93.5969 68.9292 92.0921 69.3748 91.2935Z" fill="#1E1E1E"/>
<path d="M48.3268 94.8881L48.5317 94.7675C49.9083 96.2978 52.5675 96.3455 53.271 97.3332L53.1439 97.4924C51.3338 97.3132 49.4993 96.2907 48.3268 94.8881Z" fill="#272727"/>
<path d="M42.4769 158.334C43.5512 156.375 46.9436 148.048 46.9436 148.048C48.7184 140.157 48.8938 134.158 48.9112 126.069L51.385 126.439C52.1534 127.19 52.8094 127.709 53.2056 127.753C53.6604 127.451 53.57 127.411 53.8293 126.835C54.347 127.098 54.3308 127.672 54.696 127.932C56.7722 129.408 57.3516 130.893 58.5336 133.034C62.8581 140.87 71.5275 145.252 78.8979 149.718C80.0814 150.435 81.4259 150.918 82.565 151.6C83.7298 155.336 82.9457 160.449 81.4063 164.06C81.1968 164.551 80.7266 164.682 80.2827 164.914L80.2166 164.947C78.06 165.982 75.8479 166.677 73.699 167.625C71.9925 167.625 69.1046 168.833 68.39 171.038C67.3144 174.364 63.0026 172.278 61.8801 175.589L58.4672 176.41C58.4672 176.41 36.0302 167.435 35.4614 166.361C34.8926 165.287 41.4026 160.294 42.4769 158.334Z" fill="#1E1E1E"/>
<path d="M50.4774 128.359C51.9875 129.122 53.4195 129.305 54.8626 129.988C56.1425 131.62 56.8687 133.749 58.1187 135.563C61.3613 140.268 66.6563 144.136 71.459 147.17C74.5354 149.113 78.0487 150.625 81.0056 152.772C82.8926 154.036 80.837 161.63 80.222 163.462C79.6599 163.263 79.0143 163.052 78.4709 162.827C76.3391 163.355 69.4683 165.984 68.7666 167.69C67.2671 171.337 64.6543 171.139 61.5352 173.298C60.758 173.836 59.5285 174.601 58.6135 175.158C54.6514 173.83 49.92 172.201 46.45 169.818C50.3794 170.422 54.1449 170.989 58.0789 171.653L58.4485 171.32C55.883 170.611 52.7621 169.496 50.2363 168.947C46.0354 168.035 42.2288 167.631 37.9929 166.475C39.7934 162.99 43.1236 160.637 45.0389 157.524C50.2452 149.061 49.9036 137.762 50.4774 128.359Z" fill="#272727"/>
<path d="M58.4485 171.32C59.1003 171.572 60.4636 172.028 60.7602 172.646C59.6367 172.425 59.0091 171.901 58.0789 171.653L58.4485 171.32Z" fill="#272727"/>
<path d="M49.1766 93.5833C47.7109 90.772 47.5576 90.5219 47.572 87.2768C47.607 79.4457 49.6988 72.6701 51.8141 65.2446C52.2529 63.7043 53.6736 57.8775 54.4235 56.6175C56.6837 52.8208 60.1897 47.4992 63.2308 44.294C64.9215 42.5123 67.4482 41.6718 69.3984 40.3163C78.5397 33.9617 87.9094 30.5512 99.2826 30.6694C100.409 31.6171 101.086 31.947 102.443 32.4031C103.734 31.8935 104.534 31.5814 105.734 30.9016C108.614 31.7347 111.163 31.5663 113.648 32.1578C116.676 32.8787 122.092 35.1583 124.905 36.6749C126.467 37.5175 129.02 39.4863 130.622 40.5263L130.749 40.6241C130.13 42.0758 129.556 44.2182 129.031 45.7818C127.674 49.7513 126.351 53.7325 125.063 57.725C124.687 58.8731 123.41 62.8587 122.929 63.7037C121.039 61.9605 118.67 60.023 116.91 58.2189C118.873 61.7551 119.828 62.0476 122.894 64.3381C121.82 66.5906 121.293 70.6161 119.908 72.1032C119.708 70.9146 113.532 65.6471 112.065 65.5972C112.014 65.5137 111.849 65.2944 111.768 65.2441C107.674 62.6965 102.935 62.1877 98.2059 62.4792C96.7485 62.5689 93.5315 62.8496 92.5144 63.9707C93.0336 64.243 94.0917 63.9022 94.5339 64.3256C94.2454 64.6854 94.0577 64.7395 93.6245 64.8789C93.2474 65.0513 92.7574 65.2923 92.3719 65.4265C85.339 67.876 81.3246 72.8063 78.4121 79.5109C77.4366 80.7685 77.0946 82.4182 76.7148 82.9308C76.5754 82.9821 76.4066 83.0443 76.2086 83.1171C75.4474 84.4947 74.4337 86.3472 73.6754 87.6556C72.877 89.049 72.0032 90.3977 71.0576 91.6957L70.6303 92.2678L69.3748 91.2935C68.9292 92.0921 67.658 93.5969 67.5065 94.0852C66.2321 95.1758 65.2618 96.4207 63.8064 97.529C62.4496 98.5623 59.7888 98.8345 58.3909 99.717C58.2884 100.032 58.2004 100.302 58.1272 100.528C55.3757 99.4577 55.5441 99.5745 55.1118 96.6462C55.0631 96.5061 54.9863 96.1876 54.8271 96.144C52.2798 95.4471 51.1073 95.5139 49.1766 93.5833Z" fill="#272727"/>
<path d="M71.0112 89.3748C71.0023 89.3014 70.978 89.1667 71.0173 89.1062C76.3797 80.868 79.6967 70.2146 88.7745 65.1887C90.3238 64.331 91.7164 64.0574 93.4315 64.513L93.6245 64.8789C93.2474 65.0513 92.7574 65.2923 92.3719 65.4265C85.339 67.876 81.3246 72.8063 78.4121 79.5109C77.4366 80.7685 77.0946 82.4182 76.7148 82.9308C76.5754 82.9821 76.4066 83.0443 76.2086 83.1171C75.4474 84.4947 74.4337 86.3472 73.6754 87.6556C72.877 89.049 72.0032 90.3977 71.0576 91.6957C70.7908 91.2532 70.9933 90.0492 71.0112 89.3748Z" fill="#1E1E1E"/>
<path d="M55.1118 96.6462C55.1508 93.6827 58.8189 91.2248 60.5601 88.9226C62.219 86.7293 63.7134 84.4938 65.2834 82.2435L65.6875 82.3926C63.7643 85.3053 63.0036 86.2455 61.9021 89.5821C61.3236 91.3343 55.9436 94.5269 56.7559 97.2521C57.167 99.0697 58.2943 98.3947 58.1272 100.528C55.3757 99.4577 55.5441 99.5745 55.1118 96.6462Z" fill="#272727"/>
<path d="M65.2834 82.2435C69.2275 75.8591 73.603 68.6136 78.6658 63.0605C80.0199 61.5753 82.2199 60.3827 83.7748 59.0939C84.6548 58.405 85.4746 57.6171 86.3099 56.9515C83.5578 61.1788 80.9226 60.8671 78.312 63.9415C73.6804 69.3962 69.4095 76.2443 65.6875 82.3926L65.2834 82.2435Z" fill="#1E1E1E"/>
<path d="M69.3748 91.2935C69.6506 90.5813 70.3301 89.756 71.0112 89.3748C70.9933 90.0492 70.7908 91.2532 71.0576 91.6957L70.6303 92.2678L69.3748 91.2935Z" fill="#272727"/>
<path d="M130.749 40.6241L130.865 40.734C133.201 42.9187 136.997 44.6872 139.276 47.0673C141.46 49.3484 142.719 52.5088 144.5 55.0635C147.637 59.395 148.281 62.5343 149.138 67.6292C149.987 72.6808 151.042 77.2906 151.432 82.4667C151.738 86.5181 152.194 89.8039 151.298 93.9228C151.25 94.1413 150.736 96.4169 150.726 96.2914C149.62 97.1671 148.931 99.1517 147.411 99.64C144.798 100.479 143.956 95.0237 141.784 95.7138C137.888 90.7204 135.527 84.2696 132.548 78.9357C130.938 76.0523 125.003 65.5475 122.929 63.7037C123.41 62.8587 124.687 58.8731 125.063 57.725C126.351 53.7325 127.674 49.7513 129.031 45.7818C129.556 44.2182 130.13 42.0758 130.749 40.6241Z" fill="#272727"/>
<path d="M144.376 134.312C145.187 134.037 145.999 133.766 146.813 133.499C146.93 137.715 146.911 141.742 147.14 145.961C147.599 154.396 149.506 158.64 154.956 165.275C155.776 166.274 157.095 168.185 157.97 168.928C158.031 169.826 157.414 170.387 157.187 171.414C153.377 172.401 153.209 172.233 149.281 171.711C147.982 171.539 146.593 171.822 145.554 172.729L145.573 172.966C146.334 173.258 149.402 172.961 150.889 173.123C146.415 175.033 141.45 176.397 136.722 177.602C135.858 177.246 126.952 172.051 126.98 171.585C127.236 167.344 121.361 166.564 118.489 164.655C118.218 164.475 117.481 164.885 116.874 164.566C115.564 162.976 113.741 156.449 115.605 154.886C116.659 154.003 119.054 153.345 120.342 152.691C122.644 151.524 125.077 150.755 127.453 149.778C132.539 147.18 138.08 143.505 141.629 139.006C142.111 138.396 143.837 135.193 144.376 134.312Z" fill="#272727"/>
<path d="M139.276 47.0673C136.997 44.6872 133.201 42.9187 130.865 40.734L130.749 40.6241L130.622 40.5263C131.043 40.1214 131.301 39.7684 131.656 39.3081C133.333 40.5067 139.079 44.3436 140.2 45.6991C143.522 49.7145 149.199 58.4977 150.088 63.5382C152.089 74.8855 154.647 84.9514 152.405 96.4849L150.732 96.292C150.789 96.1846 151.253 94.1299 151.298 93.9228C152.194 89.8039 151.738 86.5181 151.432 82.4667C151.042 77.2906 149.987 72.6808 149.138 67.6292C148.281 62.5343 147.637 59.395 144.5 55.0635C142.719 52.5088 141.46 49.3484 139.276 47.0673Z" fill="#1E1E1E"/>
<path d="M146.234 132.232L148.541 132.844C148.525 137.585 148.316 149.126 149.559 153.339C150.348 156.018 156.537 165.509 158.482 168.283C158.275 168.495 158.077 168.655 157.97 168.928C157.095 168.185 155.776 166.274 154.956 165.275C149.506 158.64 147.599 154.396 147.14 145.961C146.911 141.742 146.93 137.715 146.813 133.499C145.999 133.766 145.187 134.037 144.376 134.312C143.837 135.193 142.111 138.396 141.629 139.006C138.08 143.505 132.539 147.18 127.453 149.778C125.077 150.755 122.644 151.524 120.342 152.691C119.054 153.345 116.659 154.003 115.605 154.886C113.741 156.449 115.564 162.976 116.874 164.566C117.481 164.885 118.218 164.475 118.489 164.655C121.361 166.564 127.236 167.344 126.98 171.585C126.952 172.051 135.858 177.246 136.722 177.602C141.45 176.397 146.415 175.033 150.889 173.123C149.402 172.961 146.334 173.258 145.573 172.966L145.554 172.729C146.593 171.822 147.982 171.539 149.281 171.711C153.209 172.233 153.377 172.401 157.187 171.414L157.255 172.247C155.706 173.02 151.112 174.409 149.254 175.005C145.492 176.213 141.665 177.641 137.93 178.836H135.419C133.747 177.533 131.859 176.368 129.699 175.355C128.806 174.936 127.253 174.013 126.449 173.42L125.505 170.11C124.799 169.563 118.178 166.11 117.692 166.111L117.214 166.685C116.496 166.065 115.767 165.458 115.026 164.866C113.853 161.555 111.985 156.888 114.111 153.578C115.124 152.847 117.859 152.201 118.774 151.658C121.197 150.219 124.331 149.607 126.642 148.373C131.505 145.776 136.891 142.535 140.303 138.168C141.228 136.984 142.282 134.565 143.094 133.207C143.836 132.782 144.05 132.7 144.871 132.447C145.338 132.494 145.771 132.346 146.234 132.232Z" fill="#1E1E1E"/>
<path d="M48.3268 94.8881L47.3126 93.5216C46.5238 91.7766 46.3458 90.0739 46.2714 88.1813C45.9394 79.7188 47.9332 73.6965 49.9946 65.687C50.8083 62.5255 51.492 59.0341 52.8683 56.0697C53.9845 53.6656 59.4476 45.98 61.2644 44.0317C63.2139 41.9412 65.676 40.7065 68.0621 39.1927C78.7289 32.4245 86.3605 29.3691 99.1929 28.9366C100.177 29.5593 101.179 30.1529 102.197 30.7168C103.42 30.3172 104.336 30.0232 105.351 29.2202C106.113 29.4016 107.343 29.6931 108.104 29.743C116.484 30.2937 125.097 34.256 131.656 39.3081C131.301 39.7684 131.043 40.1214 130.622 40.5263C129.02 39.4863 126.467 37.5175 124.905 36.6749C122.092 35.1583 116.676 32.8787 113.648 32.1578C111.163 31.5663 108.614 31.7347 105.734 30.9016C104.534 31.5814 103.734 31.8935 102.443 32.4031C101.086 31.947 100.409 31.6171 99.2826 30.6694C87.9094 30.5512 78.5397 33.9617 69.3984 40.3163C67.4482 41.6718 64.9215 42.5123 63.2308 44.294C60.1897 47.4992 56.6837 52.8208 54.4235 56.6175C53.6736 57.8775 52.2529 63.7043 51.8141 65.2446C49.6988 72.6701 47.607 79.4457 47.572 87.2768C47.5576 90.5219 47.7109 90.772 49.1766 93.5833C49.0059 93.9077 48.7254 94.4834 48.5317 94.7675L48.3268 94.8881Z" fill="#1E1E1E"/>
<path d="M157.97 168.928C158.077 168.655 158.275 168.495 158.482 168.283C158.767 168.728 159.144 169.281 159.367 169.747C158.727 171.272 158.827 171.611 157.255 172.247L157.187 171.414C157.414 170.387 158.031 169.826 157.97 168.928Z" fill="#1E1E1E"/>
</svg>
