<svg width="200" height="200" viewBox="0 0 200 200" fill="none" xmlns="http://www.w3.org/2000/svg">
<path d="M96.6762 76.6357C97.5817 77.3279 98.2629 77.962 99.3645 78.2711C101.227 79.07 103.245 82.0616 104.846 83.4349C106.29 84.6734 107.59 85.3796 109.231 86.3161C112.631 88.257 115.161 89.8549 119.064 90.5945C118.853 91.3336 118.964 91.626 118.227 91.9227C115.348 91.6093 114.216 90.8441 111.675 89.466C109.877 88.4906 106.48 86.8396 105.028 85.5875C101.966 82.9464 99.3902 79.6981 96.3357 76.8487L96.6762 76.6357Z" fill="#1E1E1E"/>
<path d="M79.1354 63.6506L78.9463 63.6094L78.8802 63.378C78.9856 63.1322 79.3164 62.1647 79.5679 62.1487C82.0147 61.9933 84.498 62.9186 86.9144 63.1649C87.3985 63.2143 87.7217 63.2311 88.1622 63.2935C88.8422 63.8374 89.2152 64.1423 89.4685 65.0104C90.1697 69.5999 93.1435 73.7424 96.6762 76.6357L96.3357 76.8487C90.1394 71.5003 90.9794 70.806 87.7065 63.8084C84.6912 63.0943 82.7834 62.6964 79.676 62.3269L79.1354 63.6506Z" fill="#1E1E1E"/>
<path d="M149.289 111.622L150.421 111.644C150.938 111.667 151.317 111.645 151.781 111.897C150.977 112.091 148.373 112.664 147.774 112.068C148.204 111.708 148.711 111.707 149.289 111.622Z" fill="#1E1E1E"/>
<path d="M76.344 85.6241C78.8811 85.4412 83.4489 85.3842 85.0252 88.3474C85.122 88.5296 84.9697 88.701 84.871 88.8865C83.6328 89.5237 79.3767 88.7361 77.1956 88.8437C75.5855 89.0977 70.177 90.4069 69.1677 89.418C69.5315 87.05 74.2541 85.866 76.344 85.6241Z" fill="#1E1E1E"/>
<path d="M70.5432 36.5748C72.9587 35.4287 75.2021 34.5385 77.768 33.8361C79.5819 31.4458 80.6243 27.4133 84.1155 27.1335C86.4949 26.9426 89.6102 26.192 91.9406 26.5687C94.1979 26.9339 96.5908 27.8628 98.8061 28.4669C103.79 29.9853 108.756 31.2242 113.58 33.2374C115.172 33.7558 116.925 33.9256 118.528 34.3731C120.726 34.9867 122.979 35.6962 125.141 36.4185C128.621 37.5805 132.246 38.4059 135.242 40.6025C134.922 41.3585 134.903 41.4679 134.869 42.2892L134.916 42.4171C133.2 46.4261 119.173 89.209 119.204 90.5517L119.064 90.5945C115.161 89.8549 112.631 88.257 109.231 86.3161C107.59 85.3796 106.29 84.6734 104.846 83.4349C103.245 82.0616 101.227 79.07 99.3645 78.2711C98.2629 77.962 97.5817 77.3279 96.6762 76.6357C93.1435 73.7424 90.1697 69.5999 89.4685 65.0104C89.2152 64.1423 88.8422 63.8374 88.1622 63.2935C87.7217 63.2311 87.3985 63.2143 86.9144 63.1649C84.498 62.9186 82.0147 61.9933 79.5679 62.1487C79.3164 62.1647 78.9856 63.1322 78.8802 63.378L78.9463 63.6094L79.1354 63.6506C77.7229 68.12 73.6575 74.3567 70.9743 78.3481C69.8894 79.9619 67.4391 82.5998 66.1476 84.3064C64.7671 86.1309 62.6609 89.1124 61.1434 90.607C57.3522 94.341 54.2051 94.2812 51.9072 99.4965L46.072 102.557C46.1255 101.287 44.8589 97.0045 44.1427 95.8988C42.5826 95.1215 41.8699 94.5256 40.5276 93.444C41.0213 90.7356 40.8584 89.8652 41.7715 86.8919C41.723 86.7417 41.6775 86.5907 41.6352 86.4386C41.1596 84.7198 40.8928 80.8865 40.858 79.0239C40.8024 76.0416 40.0184 70.5632 41.5196 68.0735C44.1239 63.7542 46.7944 59.5328 49.4625 55.2637C50.3416 53.8569 51.0376 52.354 52.0748 51.0493C55.7302 46.9116 59.6438 42.7203 64.2772 39.6764C66.2773 38.3624 68.4275 37.5786 70.5432 36.5748Z" fill="#272727"/>
<path d="M70.5432 36.5748C72.9587 35.4287 75.2021 34.5385 77.768 33.8361C79.5819 31.4458 80.6243 27.4133 84.1155 27.1335C86.4949 26.9426 89.6102 26.192 91.9406 26.5687C94.1979 26.9339 96.5908 27.8628 98.8061 28.4669C103.79 29.9853 108.756 31.2242 113.58 33.2374C115.172 33.7558 116.925 33.9256 118.528 34.3731C120.726 34.9867 122.979 35.6962 125.141 36.4185C128.621 37.5805 132.246 38.4059 135.242 40.6025C134.922 41.3585 134.903 41.4679 134.869 42.2892C133.448 41.2676 130.863 39.635 129.163 39.3724C127.649 39.1386 120.72 36.2864 119.746 36.415L119.671 36.6485C120.182 37.2946 128.878 41.0708 129.735 42.324C129.143 42.3662 127.75 41.6027 127.065 41.3797C121.045 39.4202 115.572 36.1988 109.863 33.5295C106.993 32.1875 103.35 31.6328 100.328 30.6338C95.386 29.2378 92.2602 27.373 86.9943 28.0928C84.9247 28.1914 82.9707 28.6637 81.563 30.374C80.1488 32.0924 78.9568 34.8292 78.1805 36.9572C77.8436 37.8806 77.4245 42.3605 76.4097 42.4729C75.8927 41.3342 76.207 36.9605 76.3145 35.5643C73.3743 37.1919 69.2454 38.4352 66.6451 39.9973C61.9524 42.9259 55.954 48.3676 52.771 52.7535C51.735 54.1809 46.7115 63.2901 46.4659 64.6482C45.1577 71.8852 46.6992 79.4682 43.4455 86.6774C39.9103 94.5103 44.3163 94.1122 50.1839 96.151C51.6157 96.6849 52.513 95.0311 53.7716 94.2325C58.1574 91.45 61.4728 88.5628 64.4295 84.2497C65.6913 82.4732 67.7202 80.5248 69.1381 78.6306C73.1343 73.3257 76.4005 67.5087 78.8494 61.335C81.8889 61.9215 84.152 61.8191 87.1905 62.8777L87.2554 62.9009L87.9961 62.8086L88.1622 63.2935C87.7217 63.2311 87.3985 63.2143 86.9144 63.1649C84.498 62.9186 82.0147 61.9933 79.5679 62.1487C79.3164 62.1647 78.9856 63.1322 78.8802 63.378L78.9463 63.6094L79.1354 63.6506C77.7229 68.12 73.6575 74.3567 70.9743 78.3481C69.8894 79.9619 67.4391 82.5998 66.1476 84.3064C64.7671 86.1309 62.6609 89.1124 61.1434 90.607C57.3522 94.341 54.2051 94.2812 51.9072 99.4965L46.072 102.557C46.1255 101.287 44.8589 97.0045 44.1427 95.8988C42.5826 95.1215 41.8699 94.5256 40.5276 93.444C41.0213 90.7356 40.8584 89.8652 41.7715 86.8919C41.723 86.7417 41.6775 86.5907 41.6352 86.4386C41.1596 84.7198 40.8928 80.8865 40.858 79.0239C40.8024 76.0416 40.0184 70.5632 41.5196 68.0735C44.1239 63.7542 46.7944 59.5328 49.4625 55.2637C50.3416 53.8569 51.0376 52.354 52.0748 51.0493C55.7302 46.9116 59.6438 42.7203 64.2772 39.6764C66.2773 38.3624 68.4275 37.5786 70.5432 36.5748Z" fill="#1E1E1E"/>
<path d="M46.4058 96.7068C47.6726 96.8681 50.1318 97.1125 50.8466 98.2559C51.2679 98.93 51.125 99.1171 51.9072 99.4965C51.9112 101.613 52.9514 102.609 53.196 104.408C53.7464 108.456 54.3667 112.364 55.2336 116.362C55.433 117.281 55.1641 117.818 54.2962 118.098C54.2845 118.388 54.2499 118.45 54.4032 118.693L54.1973 118.973L54.0544 118.937C53.7477 118.975 53.5536 118.941 53.3568 119.104C53.3048 119.009 52.3799 117.976 52.0814 117.536C49.9357 114.817 49.6303 109.384 47.6679 106.082C47.0343 105.041 47.4861 104.415 48.253 103.681C48.3664 103.183 46.7021 97.8075 46.4058 96.7068Z" fill="#272727"/>
<path d="M48.253 103.681C48.4493 104.144 48.7425 105.682 49.0531 106.562C50.2472 109.944 51.3543 113.417 52.5984 116.778L52.0814 117.536C49.9357 114.817 49.6303 109.384 47.6679 106.082C47.0343 105.041 47.4861 104.415 48.253 103.681Z" fill="#272727"/>
<path d="M52.5984 116.778C53.1159 117.417 53.7773 118.17 54.0544 118.937C53.7477 118.975 53.5536 118.941 53.3568 119.104C53.3048 119.009 52.3799 117.976 52.0814 117.536L52.5984 116.778Z" fill="#272727"/>
<path d="M47.6679 106.082C49.6303 109.384 49.9357 114.817 52.0814 117.536C52.3799 117.976 53.3048 119.009 53.3568 119.104L52.5721 119.108C50.8032 118.366 48.6935 109.465 47.7679 107.461C47.7063 107.328 47.4913 107.328 47.2963 107.286C47.3236 107.108 47.5984 106.3 47.6679 106.082Z" fill="#1E1E1E"/>
<path d="M44.2597 66.7498L44.4514 67.0439C44.5677 69.3736 44.5027 83.1371 42.6398 83.8769C42.1366 80.0153 42.5037 74.4633 42.0432 70.2267C42.681 69.0513 43.5098 67.8677 44.2597 66.7498Z" fill="#272727"/>
<path d="M89.4685 65.0104C90.2783 65.4819 91.8074 69.4391 92.3586 70.5542C93.2851 72.4291 99.2407 76.82 99.3645 78.2711C98.2629 77.962 97.5817 77.3279 96.6762 76.6357C93.1435 73.7424 90.1697 69.5999 89.4685 65.0104Z" fill="#1E1E1E"/>
<path d="M87.2554 62.9009C86.4886 60.7831 84.3734 55.7727 84.17 53.9355C85.3919 56.8081 86.6758 60.0057 87.9961 62.8086L87.2554 62.9009Z" fill="#1E1E1E"/>
<path d="M134.916 42.4171C136.583 43.4286 137.896 44.3936 139.382 45.6658C141.968 47.8799 145.035 49.1523 147.756 51.309C150.143 53.2011 150.349 54.8565 151.678 57.2379C154.256 61.8553 154.288 65.7845 155.181 70.8668C154.527 69.982 151.703 65.6623 151.231 65.295C150.813 65.5551 150.845 65.7112 150.602 66.2207C150.529 67.8232 157.451 75.2497 157.222 76.5339C156.185 82.3745 148.165 88.3646 143.301 91.4176C142.616 91.8473 141.294 91.744 140.846 91.9236C137.394 92.9643 128.954 92.7011 125.436 91.7432C123.366 91.3114 121.288 90.9141 119.204 90.5517C119.173 89.209 133.2 46.4261 134.916 42.4171Z" fill="#272727"/>
<path d="M125.436 91.7432C127.008 91.116 138.02 91.4965 140.393 91.6079C140.499 91.6128 140.752 91.8316 140.846 91.9236C137.394 92.9643 128.954 92.7011 125.436 91.7432Z" fill="#1E1E1E"/>
<path d="M141.796 48.279C141.898 48.3002 141.995 48.3238 142.092 48.3623C143.651 48.9816 150.611 61.4006 151.822 63.9008C151.568 63.8319 151.296 63.6348 151.164 63.4053C148.207 58.2546 144.972 53.2972 141.796 48.279Z" fill="#1E1E1E"/>
<path d="M134.869 42.2892C134.903 41.4679 134.922 41.3585 135.242 40.6025C137.633 42.0936 140.667 44.4844 143.063 46.1286C144.632 47.2048 149.399 50.3312 150.373 51.4608C152.122 54.2158 154.506 58.9144 155.434 61.9457C156.462 65.306 155.877 71.1915 157.554 74.1652C159.151 76.997 159.996 76.193 157.584 79.6552C157.708 81.621 158.087 83.5588 158.313 85.5069C159.042 91.7647 159.566 98.0184 158.682 104.288L156.476 105.701C155.226 106.099 152.95 111.456 151.781 111.897C151.317 111.645 150.938 111.667 150.421 111.644L149.289 111.622L149.553 111.354C149.241 111.004 148.218 110.869 147.547 110.626C147.378 110.331 147.238 110.055 147.328 109.695C148.152 106.968 148.232 103.667 148.97 101.021C149.767 98.1606 150.299 97.6488 150.399 94.4789C150.054 92.3153 149.958 90.7138 149.475 88.4667C148.751 89.258 144.402 92.2426 143.17 93.1496C139.459 93.4107 135.573 93.1237 131.844 93.0653C128.898 93.0193 125.811 93.207 122.907 92.7587C121.343 92.5174 119.808 92.1436 118.227 91.9227C118.964 91.626 118.853 91.3336 119.064 90.5945L119.204 90.5517C121.288 90.9141 123.366 91.3114 125.436 91.7432C128.954 92.7011 137.394 92.9643 140.846 91.9236C141.294 91.744 142.616 91.8473 143.301 91.4176C148.165 88.3646 156.185 82.3745 157.222 76.5339C157.451 75.2497 150.529 67.8232 150.602 66.2207C150.845 65.7112 150.813 65.5551 151.231 65.295C151.703 65.6623 154.527 69.982 155.181 70.8668C154.288 65.7845 154.256 61.8553 151.678 57.2379C150.349 54.8565 150.143 53.2011 147.756 51.309C145.035 49.1523 141.968 47.8799 139.382 45.6658C137.896 44.3936 136.583 43.4286 134.916 42.4171L134.869 42.2892Z" fill="#1E1E1E"/>
<path d="M150.824 87.7602C153.991 85.044 154.329 85.2802 156.474 81.605C156.937 86.3936 158.235 98.7232 156.942 103.097C156.715 103.998 155.822 104.727 155.1 105.378C153.65 106.898 151.078 111.187 150.421 111.644L149.289 111.622L149.553 111.354C149.241 111.004 148.218 110.869 147.547 110.626C147.378 110.331 147.238 110.055 147.328 109.695C148.152 106.968 148.232 103.667 148.97 101.021C149.767 98.1606 150.299 97.6488 150.399 94.4789C151.414 92.7719 151.247 89.6789 150.824 87.7602Z" fill="#272727"/>
<path d="M155.1 105.378C155.086 104.251 155.582 102.843 156.942 103.097C156.715 103.998 155.822 104.727 155.1 105.378Z" fill="#272727"/>
</svg>
