<svg width="200" height="200" viewBox="0 0 200 200" fill="none" xmlns="http://www.w3.org/2000/svg">
<path d="M87.9446 152.934L88.5405 153.02C91.051 153.121 93.718 153.525 96.2079 153.943C99.7891 154.544 102.76 153.959 106.271 153.324C106.738 153.486 107.604 153.679 107.793 154.023L107.474 154.108L107.15 154.134C104.374 153.935 101.871 154.805 99.3594 154.728C96.6734 154.646 94.228 153.967 91.331 153.951C89.9449 153.935 89.3057 153.982 87.9309 154.17C88.039 153.551 88.1838 153.397 87.9446 152.934Z" fill="#828282"/>
<path d="M129.062 152.059C129.831 152.218 130.609 152.39 131.385 152.511C134.897 155.402 134.932 158.649 136.296 162.261C132.006 160.184 130.249 159.251 125.465 159.634C132.031 161.069 138.688 164.643 143.284 169.456C144.434 170.66 145.832 171.738 146.928 172.998C148.915 176.032 151.268 178.939 153.221 182.024C155.073 184.95 156.376 188.148 158.006 191.188C158.97 192.986 160.449 194.933 161.526 196.7C161.846 197.227 163.118 199.04 163.049 199.556C162.654 199.663 162.616 199.676 162.212 199.666L162.161 199.828C159.032 199.831 139.468 199.572 138.3 199.962C137.833 200.022 137.776 200.022 137.328 199.878C129.826 199.544 121.592 199.878 114.033 199.866C100.541 199.845 86.9894 199.741 73.5031 199.89C70.0783 199.391 64.1078 200.123 60.2363 199.598C59.5087 199.871 59.0489 199.729 58.3456 199.515C57.2381 199.953 43.3336 199.789 41.2321 199.706C43.0816 195.701 43.884 191.95 45.4634 188.007C46.9772 185.051 48.5606 180.039 50.4929 177.456C52.2837 175.06 57.2439 168.318 59.5452 166.796C62.5208 164.829 67.567 162.122 70.7536 160.708C67.2604 161.423 64.0166 161.891 61.1296 164.129C61.7278 160.431 62.1413 152.834 68.0541 154.383C70.4536 154.5 86.3107 154.548 87.9309 154.17C89.3057 153.982 89.9449 153.935 91.331 153.951C94.228 153.967 96.6734 154.646 99.3594 154.728C101.871 154.805 104.374 153.935 107.15 154.134L107.474 154.108C109.948 155.208 125.957 153.266 128.562 152.267C128.731 152.204 128.898 152.134 129.062 152.059Z" fill="#A6ABBD"/>
<path d="M125.486 182.872C129.894 186.773 134.112 190.884 138.125 195.19C138.24 196.693 138.397 198.194 138.594 199.689C146.346 199.861 154.574 199.424 162.212 199.666L162.161 199.828C159.032 199.831 139.468 199.572 138.3 199.962C137.833 200.022 137.776 200.022 137.328 199.878C137.242 198.936 136.713 196.089 136.269 195.451C132.943 190.67 128.048 188.329 125.486 182.872Z" fill="#828282"/>
<path d="M69.9208 185.04L70.0752 185.433C68.2147 187.755 66.3179 190.069 64.4271 192.367C62.7 194.467 62.418 196.214 61.7151 198.701L60.2363 199.598C59.5087 199.871 59.0489 199.729 58.3456 199.515C58.6837 199.207 59.949 198.401 60.3898 198.105C62.3535 191.715 65.2085 189.888 69.9208 185.04Z" fill="#828282"/>
<path d="M91.331 153.951C94.228 153.967 96.6734 154.646 99.3594 154.728C101.871 154.805 104.374 153.935 107.15 154.134L106.99 154.39C103.933 154.621 100.624 155.134 97.5521 155.046C96.9551 155.03 96.8148 154.841 96.0825 154.902L95.9652 155.113C97.8476 155.303 100.699 155.384 102.611 155.418C102.902 155.111 102.961 155.008 103.336 154.836L103.617 154.963L103.518 155.23L103.899 155.46L103.894 155.738C102.396 155.92 101.087 156.04 99.6333 156.484C97.733 155.913 97.0358 156.053 95.1649 155.775C94.4148 155.664 93.5634 155.288 93.194 154.614C92.8705 154.023 91.4392 154.52 90.4192 154.194L91.331 153.951Z" fill="#A6ABBD"/>
<path d="M69.9208 185.04C70.5035 184.272 71.0298 183.908 71.7787 183.323C71.1678 184.192 70.8463 184.687 70.0752 185.433L69.9208 185.04Z" fill="#828282"/>
<path d="M85.8773 158.747C89.6613 158.27 93.4963 159.134 97.3767 159.324C103.089 159.602 108.305 158.451 113.932 158.639C116.936 158.738 120.219 159.596 123.151 160.286C117.783 160.604 112.98 160.378 107.626 160.006C105.076 159.829 101.983 160.576 99.3766 160.441C96.6023 160.406 93.7181 159.741 90.9348 159.591C89.1344 159.494 87.5498 159.981 85.8771 160.097C85.9809 159.685 86.0313 159.387 86.0944 158.966L85.8773 158.747Z" fill="#828282"/>
<path d="M81.7159 159.022C83.0961 158.857 84.4885 158.811 85.8773 158.747L86.0944 158.966C86.0313 159.387 85.9809 159.685 85.8771 160.097C85.0825 160.495 81.5157 160.54 80.3016 160.72C79.1688 160.674 78.1688 160.713 77.038 160.753L76.7418 160.155C78.527 159.318 79.7621 159.253 81.7159 159.022Z" fill="#828282"/>
<path d="M77.038 160.753C75.958 161.003 75.4054 161.221 74.2465 161.357C73.838 161.431 76.7175 160.165 76.7418 160.155L77.038 160.753Z" fill="#828282"/>
<path d="M83.1216 152.86L87.9446 152.934C88.1838 153.397 88.039 153.551 87.9309 154.17C86.3107 154.548 70.4536 154.5 68.0541 154.383C62.1413 152.834 61.7278 160.431 61.1296 164.129C64.0166 161.891 67.2604 161.423 70.7536 160.708C67.567 162.122 62.5208 164.829 59.5452 166.796C57.2439 168.318 52.2837 175.06 50.4929 177.456C48.5606 180.039 46.9772 185.051 45.4634 188.007C43.884 191.95 43.0816 195.701 41.2321 199.706C40.6146 199.819 40.1551 199.767 39.5316 199.73C41.4408 195.4 42.1703 192.299 43.7044 187.993C44.5063 185.742 46.7305 181.52 47.9782 179.047L50.4929 174.697C51.4124 173.92 54.8309 169.533 55.7141 168.554C56.9003 167.239 58.2141 165.92 59.5203 164.625C60.454 159.722 59.1931 160.569 61.883 155.395L64.9806 152.907C65.3225 152.777 65.8386 152.622 66.1049 152.639C71.1561 152.955 76.2935 153.019 81.3543 152.682L83.126 152.841L83.1216 152.86Z" fill="#828282"/>
<path d="M113.905 152.674L118.537 151.539C121.958 151.442 125.725 150.763 129.096 150.666C135.389 150.484 136.707 158.582 138.335 163.1C140.153 164.572 146.218 169.75 147.549 171.493C147.363 172.014 147.207 172.52 146.928 172.998C145.832 171.738 144.434 170.66 143.284 169.456C138.688 164.643 132.031 161.069 125.465 159.634C130.249 159.251 132.006 160.184 136.296 162.261C134.932 158.649 134.897 155.402 131.385 152.511C130.609 152.39 129.831 152.218 129.062 152.059C128.898 152.134 128.731 152.204 128.562 152.267C125.957 153.266 109.948 155.208 107.474 154.108L107.793 154.023C107.604 153.679 106.738 153.486 106.271 153.324C108.08 152.964 112.022 152.79 113.905 152.674Z" fill="#828282"/>
<path d="M147.549 171.493C152.404 177.538 155.756 182.572 158.953 189.537C159.759 191.294 164.202 198.128 165.456 199.657C164.733 200.019 163.092 199.824 162.161 199.828L162.212 199.666C162.616 199.676 162.654 199.663 163.049 199.556C163.118 199.04 161.846 197.227 161.526 196.7C160.449 194.933 158.97 192.986 158.006 191.188C156.376 188.148 155.073 184.95 153.221 182.024C151.268 178.939 148.915 176.032 146.928 172.998C147.207 172.52 147.363 172.014 147.549 171.493Z" fill="#828282"/>
</svg>
