<svg width="200" height="200" viewBox="0 0 200 200" fill="none" xmlns="http://www.w3.org/2000/svg">
<g clip-path="url(#clip0_275_253)">
<path d="M109.12 154.356L109.618 153.799L109.87 153.798C109.601 155.261 108.672 155.477 108.72 157.371C108.758 158.167 107.835 159.886 107.341 160.519L106.899 160.727C106.658 160.629 106.633 160.653 106.467 160.482C106.948 159.042 109.071 155.047 109.12 154.356Z" fill="#C1C1C1"/>
<path d="M109.12 154.356C108.993 154.225 108.764 153.966 108.776 153.765C109.054 149.344 111.544 150.71 114.417 150.165C114.722 150.197 115.121 150.258 115.419 150.228L115.605 150.188C116.128 150.241 116.651 150.304 117.172 150.375C117.079 150.826 116.836 151.473 117.056 151.779C117.619 152.561 119.098 152.498 119.723 152.968C121.474 154.285 122.806 157.283 123.773 159.255L123.702 159.88C127.472 162.694 130.778 164.435 134.817 166.609C139.274 169.008 144.631 174.734 147.201 179.106C147.582 179.754 151.571 189.676 151.656 190.208C153.083 193.709 154.111 195.991 156.153 199.285C155.11 199.525 150.775 199.508 149.719 199.381C149.09 199.337 148.188 199.384 147.537 199.398L134.286 199.407C132.772 199.527 130.853 199.504 129.336 199.402C124.321 199.332 119.286 199.423 114.269 199.395C113.46 199.39 112.713 199.403 111.908 199.506C110.905 200.177 98.8923 199.989 96.9747 199.932C96.8763 199.866 96.6466 199.72 96.578 199.643L96.4189 199.431C96.7994 197.66 96.6623 194.011 96.8983 192.04C97.5259 186.801 98.0308 179.227 99.3618 174.272C97.4268 171.444 95.6012 164.923 92.0093 164.133L91.9962 163.753C92.4589 163.835 92.9151 163.779 93.3874 163.751C93.4452 163.866 93.4809 163.843 93.6453 163.927C94.6857 163.121 94.8797 159.746 95.8342 158.352L95.8722 158.245C96.1816 158.198 96.4314 158.003 96.6997 157.832C97.1636 158.33 98.2679 159.476 98.5422 160.029C99.4884 159.928 105.65 160.244 106.467 160.482C106.633 160.653 106.658 160.629 106.899 160.727L107.341 160.519C107.835 159.886 108.758 158.167 108.72 157.371C108.672 155.477 109.601 155.261 109.87 153.798L109.618 153.799L109.12 154.356Z" fill="white"/>
<path d="M108.72 157.371C110.292 157.587 110.237 153.835 112.253 153.576C113.946 153.933 114.798 156.794 115.419 158.279C114.386 159.678 111.727 162.969 111.456 164.45C111.841 164.852 111.456 164.271 111.32 164.894C110.648 165.58 110.992 165.243 110.75 165.681C110.005 167.027 106.762 172.703 106.751 173.864C106.818 173.981 106.926 174.19 107.008 174.283C107.395 173.591 107.566 172.748 107.765 171.974C108.302 174.542 109.258 177.348 109.681 179.738C110.801 186.052 110.963 193.271 111.908 199.506C110.905 200.177 98.8923 199.989 96.9747 199.932C96.8763 199.866 96.6466 199.72 96.578 199.643L96.4189 199.431C96.7994 197.66 96.6623 194.011 96.8983 192.04C97.5259 186.801 98.0308 179.227 99.3618 174.272C97.4268 171.444 97.2373 165.035 93.6454 164.245L93.3874 163.751C93.8501 163.832 92.9151 163.779 93.3874 163.751C93.4452 163.866 93.4809 163.843 93.6453 163.927C94.6857 163.121 94.8797 159.746 95.8342 158.352L95.8722 158.245C96.1816 158.198 96.4314 158.003 96.6997 157.832C97.1636 158.33 98.2679 159.476 98.5422 160.029C99.4884 159.928 105.65 160.244 106.467 160.482C106.633 160.653 106.658 160.629 106.899 160.727L107.341 160.519C107.835 159.886 108.758 158.167 108.72 157.371Z" fill="#010101"/>
<path d="M107.765 171.974C108.302 174.542 109.258 177.348 109.681 179.738C110.801 186.052 110.963 193.271 111.908 199.506C110.905 200.177 98.8923 199.989 96.9747 199.932C96.8763 199.866 96.6466 199.72 96.578 199.643C99.9953 199.483 107.438 200.08 110.592 199.393C110.477 199.296 110.321 199.15 110.307 198.988C110.007 195.584 109.876 192.165 109.324 188.788C109.099 187.321 107.959 180.006 108.407 179.151C108.903 177.725 108.034 175.306 107.008 174.283C107.395 173.591 107.566 172.748 107.765 171.974Z" fill="black"/>
<path d="M109.324 188.788C109.099 187.321 107.959 180.006 108.407 179.151C108.979 180.428 109.929 186.182 110.038 187.682C110.282 189.309 111.365 198.249 110.81 199.257L110.592 199.393C110.477 199.296 110.321 199.15 110.307 198.988C110.007 195.584 109.876 192.165 109.324 188.788Z" fill="#555555"/>
<path d="M96.6997 157.832C97.1636 158.33 98.2679 159.476 98.5422 160.029C96.7377 159.959 97.1435 159.621 95.9189 158.433L95.8342 158.352L95.8722 158.245C96.1816 158.198 96.4314 158.003 96.6997 157.832Z" fill="#C1C1C1"/>
<path d="M150.28 190.905C146.667 181.722 144.644 175.516 136.296 169.27C133.571 167.231 123.347 162.936 122.414 160.525C122.811 160.027 122.973 160.113 123.702 159.88C127.472 162.694 130.778 164.435 134.817 166.609C139.274 169.008 144.631 174.734 147.201 179.106C147.582 179.754 151.571 189.676 151.656 190.208C151.198 190.474 150.784 190.75 150.28 190.905Z" fill="#C1C1C1"/>
<path d="M150.28 190.905C150.784 190.75 151.198 190.474 151.656 190.208C153.083 193.709 154.111 195.991 156.153 199.285C155.11 199.525 150.775 199.508 149.719 199.381C150.649 199.25 153.137 199.27 154.185 199.252C152.494 196.184 151.566 194.129 150.28 190.905Z" fill="#C1C1C1"/>
<path d="M129.252 190.326C130.256 191.303 130.906 192 131.659 193.203C131.457 194.355 131.185 196.198 130.862 197.264C132.514 198.522 132.461 199.216 134.286 199.407C132.772 199.527 130.853 199.504 129.336 199.402C129.9 199.303 130.966 199.242 131.573 199.188C130.709 198.352 130.337 198.103 129.346 197.446C129.574 196.195 129.742 194.72 129.919 193.445L128.609 191.277C128.711 190.861 128.962 190.653 129.252 190.326Z" fill="#C1C1C1"/>
<path d="M128.609 191.277C128.247 190.971 128.152 190.907 127.906 190.505C128.905 188.807 129.206 186.86 130.446 185.369C129.663 187.388 129.161 188.172 129.252 190.326C128.962 190.653 128.711 190.861 128.609 191.277Z" fill="#C1C1C1"/>
<path d="M83.0995 149.053L84.4757 148.5C86.4914 149.95 92.4468 148.246 93.2412 151.192C93.4127 151.828 93.3914 152.693 92.7127 153.049L92.726 153.153C93.8491 154.237 95.8675 156.502 96.6997 157.832C96.4314 158.003 96.1816 158.198 95.8722 158.245L95.8342 158.352C94.8797 159.746 94.6857 163.121 93.6453 163.927C93.4809 163.843 93.4452 163.866 93.3874 163.751C92.9151 163.779 92.4589 163.835 91.9962 163.753L92.0093 164.133C95.6012 164.923 97.4268 171.444 99.3618 174.272C98.0308 179.227 97.5259 186.801 96.8983 192.04C96.6623 194.011 96.7994 197.66 96.4189 199.431C87.8685 199.098 78.4599 199.596 69.6955 199.278L68.5409 199.37C60.4257 199.16 51.9483 199.57 43.847 199.243C44.9889 196.782 46.5635 194.423 47.488 191.91C50.0885 184.835 51.0352 178.202 56.1954 172.386C58.3666 169.939 59.6326 168.536 62.4573 166.624C66.1421 164.129 71.2312 162.89 74.7558 160.555C75.3395 160.318 76.0779 160.053 76.4207 159.587C76.6037 158.416 76.7645 157.963 77.4866 157.028C78.0842 154.569 80.2075 152.061 81.8919 150.275C82.4786 149.999 82.7152 149.578 83.0995 149.053Z" fill="white"/>
<path d="M90.2822 152.789C91.0253 153.626 92.8345 155.854 93.8572 155.929C94.2909 157.174 95.1477 157.464 95.8722 158.245L95.8342 158.352C94.8797 159.746 94.6857 163.121 93.6453 163.927C93.4809 163.843 93.4452 163.866 93.3874 163.751C92.3964 161.763 89.6153 159.729 87.8281 158.296C88.5101 156.343 89.3735 154.635 90.2822 152.789Z" fill="black"/>
<path d="M68.5409 199.37C69.2035 197.173 70.0692 196.043 70.809 194.06C71.0664 193.37 69.6231 189.683 70.2733 189.132C71.2811 190.382 71.7412 191.986 71.549 193.58C71.3515 195.263 70.1269 197.22 69.6955 199.278L68.5409 199.37Z" fill="#C1C1C1"/>
<path d="M90.6478 151.32C91.3478 151.824 92.0576 152.477 92.7127 153.049L92.726 153.153C93.8491 154.237 95.8675 156.502 96.6997 157.832C96.4314 158.003 96.1816 158.198 95.8722 158.245C95.1477 157.464 94.2909 157.174 93.8572 155.929C93.4362 154.853 93.2523 154.594 92.4869 153.721C91.5792 152.898 91.2401 152.341 90.6478 151.32Z" fill="#C1C1C1"/>
<path d="M77.4866 157.028C78.0672 158.136 77.3288 159.03 76.4207 159.587C76.6037 158.416 76.7645 157.963 77.4866 157.028Z" fill="#FED2D0"/>
<path d="M83.5356 150.993C84.3613 150.946 85.1694 150.861 85.9836 151.007C85.7538 151.302 84.746 151.48 84.2898 151.603C83.6124 151.662 83.3122 152.226 82.4427 151.964L82.4879 151.689C83.0206 151.051 82.7548 151.219 83.5356 150.993Z" fill="#C1C1C1"/>
<path d="M117.172 150.375L117.329 149.874C119.297 149.045 125.157 156.497 125.165 158.625C124.829 159.037 124.294 159.114 123.773 159.255C122.806 157.283 121.474 154.285 119.723 152.968C119.098 152.498 117.619 152.561 117.056 151.779C116.836 151.473 117.079 150.826 117.172 150.375Z" fill="#C1C1C1"/>
<path d="M74.9165 158.962C75.451 157.906 79.4826 147.701 81.7174 149.225L81.8919 150.275C80.2075 152.061 78.0842 154.569 77.4866 157.028C76.7645 157.963 76.6037 158.416 76.4207 159.587C76.0779 160.053 75.3395 160.318 74.7558 160.555C75.0754 159.87 75.2741 160.091 75.5826 159.438C75.3998 159.172 75.5135 159.292 75.1693 159.131C75.095 159.017 75.0738 159.042 74.9165 158.962Z" fill="#C1C1C1"/>
</g>
<defs>
<clipPath id="clip0_275_253">
<rect width="200" height="200" fill="white"/>
</clipPath>
</defs>
</svg>
