<svg width="200" height="200" viewBox="0 0 200 200" fill="none" xmlns="http://www.w3.org/2000/svg">
<g clip-path="url(#clip0_275_249)">
<path d="M41.307 200.466C42.7945 198.448 44.9644 192.845 46.0181 190.365C47.2691 187.418 48.7865 185.03 50.1559 182.203C52.2568 177.764 54.4262 172.721 57.7784 169.097C63.3736 163.049 71.8498 162.987 78.6272 159.192C78.9377 159.018 80.0782 156.911 80.5503 156.333C81.1717 156.166 81.3784 156.362 82.1043 156.576L83.0164 156.829L83.0468 157.085L82.9258 157.242L83.0402 157.331C83.4824 157.68 83.5561 157.755 83.6938 158.313C83.6142 158.946 81.575 165.366 81.2505 166.406C79.0752 173.59 76.7761 180.734 74.3547 187.839C73.497 190.45 72.6545 193.066 71.8272 195.685C71.4201 196.967 70.6047 199.338 70.437 200.598L70.2005 200.666C68.6425 200.591 63.1054 200.855 61.9797 200.427C61.3645 200.657 60.9979 200.572 60.4545 200.278C60.1493 200.497 59.6998 200.593 59.2946 200.594C53.3865 200.631 47.4346 200.744 41.5333 200.514C41.4579 200.499 41.3824 200.483 41.307 200.466Z" fill="#96A2B3"/>
<path d="M60.4545 200.278C61.1192 199.696 63.5903 197.679 63.7452 197.13C64.8527 193.207 63.369 185.457 63.6011 181.567C64.7341 185.748 65.5993 189.714 65.5664 194.083C65.541 197.446 64.2548 198.204 61.9797 200.427C61.3645 200.657 60.9979 200.572 60.4545 200.278Z" fill="#0C0B4A"/>
<path d="M70.437 200.598C70.6047 199.338 71.4201 196.967 71.8272 195.685C72.6545 193.066 73.497 190.45 74.3547 187.839C76.7761 180.734 79.0752 173.59 81.2505 166.406C81.575 165.366 83.6142 158.946 83.6938 158.313C83.5561 157.755 83.4824 157.68 83.0402 157.331L82.9258 157.242L83.0468 157.085C85.6897 158.206 91.1801 159.52 94.0458 159.894C99.1675 160.464 103.607 161.011 108.809 160.614C111.732 160.215 113.184 159.99 115.745 158.556C116.487 158.274 117.404 157.895 118.143 157.655C118.721 158.601 119.593 160.158 120.196 161.02C122.216 161.911 124.088 162.707 126.177 163.497C131.341 165.449 134.904 165.916 139.064 169.772C141.024 171.588 142.759 174.804 143.771 175.765L144.126 176.321C143.82 176.87 135.76 200.155 135.721 200.634L135.509 200.732L135.299 200.885C135.334 201.125 135.389 201.603 135.455 201.811C133.009 201.804 125.777 201.634 123.752 201.909C118.714 202.109 112.181 201.926 107.037 201.924L69.5446 201.943C69.932 201.453 70.1267 201.284 70.2005 200.666L70.437 200.598Z" fill="#96A2B3"/>
<path d="M133.618 180.321C134.093 181.313 134.634 182.374 134.763 183.479C134.873 185.426 133.983 191.581 133.368 193.386C134.29 194.349 134.644 194.802 135.405 195.899C135.36 196.968 135.126 199.59 135.246 200.455L135.509 200.732L135.299 200.885C134.73 200.84 134.214 200.777 133.649 200.702C133.834 199.112 133.916 197.488 134.014 195.887C133.043 194.609 132.707 193.928 132.123 192.471C132.435 189.739 133.442 186.419 134.009 183.664C133.844 182.582 133.624 181.405 133.618 180.321Z" fill="#0C0B4A"/>
<path d="M144.126 176.321C146.397 179.069 148.526 184.453 150.112 187.717C151.991 191.583 154.658 196.946 157.146 200.476C154.782 200.742 151.248 200.648 148.784 200.648L135.721 200.634C135.76 200.155 143.82 176.87 144.126 176.321Z" fill="#96A2B3"/>
</g>
<defs>
<clipPath id="clip0_275_249">
<rect width="200" height="200" fill="white"/>
</clipPath>
</defs>
</svg>
