<svg width="200" height="200" viewBox="0 0 200 200" fill="none" xmlns="http://www.w3.org/2000/svg">
<g clip-path="url(#clip0_275_251)">
<path d="M41.3101 200.466C42.7975 198.448 44.9674 192.845 46.0211 190.365C47.2722 187.418 48.7895 185.03 50.159 182.203C52.2598 177.764 54.4292 172.721 57.7815 169.097C63.3767 163.049 71.8529 162.987 78.6303 159.192C78.9407 159.018 80.0812 156.911 80.5533 156.333C81.1748 156.166 81.3814 156.362 82.1073 156.576L83.0194 156.829L83.0498 157.085L82.9289 157.242L83.0432 157.331C83.4855 157.68 83.5592 157.755 83.6968 158.313C83.6172 158.946 81.578 165.366 81.2535 166.406C79.0782 173.59 76.7792 180.734 74.3577 187.839C73.5001 190.45 72.6575 193.066 71.8303 195.685C71.4232 196.967 70.6077 199.338 70.44 200.598L70.2036 200.666C68.6456 200.591 63.1085 200.855 61.9827 200.427C61.3676 200.657 61.001 200.572 60.4576 200.278C60.1523 200.497 59.7028 200.593 59.2976 200.594C53.3895 200.631 47.4377 200.744 41.5364 200.514C41.4609 200.499 41.3855 200.483 41.3101 200.466Z" fill="#9F7777"/>
<path d="M60.4576 200.278C61.1223 199.696 63.5934 197.679 63.7483 197.13C64.8557 193.207 63.3721 185.457 63.6042 181.567C64.7372 185.748 65.6023 189.714 65.5695 194.083C65.5441 197.446 64.2578 198.204 61.9827 200.427C61.3676 200.657 61.001 200.572 60.4576 200.278Z" fill="#774949"/>
<path d="M70.44 200.598C70.6077 199.338 71.4232 196.967 71.8303 195.685C72.6575 193.066 73.5001 190.45 74.3577 187.839C76.7792 180.734 79.0782 173.59 81.2535 166.406C81.578 165.366 83.6172 158.946 83.6968 158.313C83.5592 157.755 83.4855 157.68 83.0432 157.331L82.9289 157.242L83.0498 157.085C85.6927 158.206 91.1831 159.52 94.0489 159.894C99.1705 160.464 103.61 161.011 108.812 160.614C111.735 160.215 113.187 159.99 115.748 158.556C116.49 158.274 117.408 157.895 118.146 157.655C118.724 158.601 119.596 160.158 120.199 161.02C122.219 161.911 124.091 162.707 126.18 163.497C131.344 165.449 134.907 165.916 139.067 169.772C141.027 171.588 142.762 174.804 143.774 175.765L144.129 176.321C143.823 176.87 135.763 200.155 135.724 200.634L135.512 200.732L135.302 200.885C135.337 201.125 135.392 201.603 135.458 201.811C133.012 201.804 125.78 201.634 123.755 201.909C118.717 202.109 112.184 201.926 107.04 201.924L69.5476 201.943C69.9351 201.453 70.1297 201.284 70.2036 200.666L70.44 200.598Z" fill="#9F7777"/>
<path d="M133.621 180.321C134.096 181.313 134.637 182.374 134.766 183.479C134.876 185.426 133.986 191.581 133.371 193.386C134.293 194.349 134.647 194.802 135.408 195.899C135.363 196.968 135.129 199.59 135.249 200.455L135.512 200.732L135.302 200.885C134.733 200.84 134.217 200.777 133.652 200.702C133.837 199.112 133.919 197.488 134.017 195.887C133.046 194.609 132.71 193.928 132.126 192.471C132.438 189.739 133.445 186.419 134.012 183.664C133.847 182.582 133.627 181.405 133.621 180.321Z" fill="#774949"/>
<path d="M144.129 176.321C146.4 179.069 148.529 184.453 150.115 187.717C151.994 191.583 154.661 196.946 157.149 200.476C154.785 200.742 151.251 200.648 148.787 200.648L135.724 200.634C135.763 200.155 143.823 176.87 144.129 176.321Z" fill="#9F7777"/>
</g>
<defs>
<clipPath id="clip0_275_251">
<rect width="200" height="200" fill="white"/>
</clipPath>
</defs>
</svg>
