<svg width="200" height="200" viewBox="0 0 200 200" fill="none" xmlns="http://www.w3.org/2000/svg">
<g clip-path="url(#clip0_275_247)">
<path d="M41.307 200.464C42.7945 198.445 44.9644 192.843 46.0181 190.362C47.2691 187.416 48.7865 185.028 50.1559 182.201C52.2568 177.762 54.4262 172.719 57.7784 169.095C63.3736 163.047 71.8498 162.985 78.6272 159.19C78.9377 159.016 80.0782 156.909 80.5503 156.33C81.1717 156.164 81.3784 156.36 82.1043 156.574L83.0164 156.827L83.0468 157.083L82.9258 157.24L83.0402 157.329C83.4824 157.678 83.5561 157.753 83.6938 158.311C83.6142 158.944 81.575 165.364 81.2505 166.404C79.0752 173.587 76.7761 180.732 74.3547 187.837C73.497 190.448 72.6545 193.064 71.8272 195.683C71.4201 196.964 70.6047 199.335 70.437 200.596L70.2005 200.663C68.6425 200.589 63.1054 200.853 61.9797 200.425C61.3645 200.655 60.9979 200.57 60.4545 200.276C60.1493 200.495 59.6998 200.59 59.2946 200.592C53.3865 200.629 47.4346 200.742 41.5333 200.512C41.4579 200.497 41.3824 200.481 41.307 200.464Z" fill="#AFB173"/>
<path d="M60.4545 200.276C61.1192 199.693 63.5903 197.677 63.7452 197.128C64.8527 193.204 63.369 185.455 63.6011 181.565C64.7341 185.746 65.5993 189.712 65.5664 194.081C65.541 197.444 64.2548 198.202 61.9797 200.425C61.3645 200.655 60.9979 200.57 60.4545 200.276Z" fill="#52541D"/>
<path d="M70.437 200.596C70.6047 199.335 71.4201 196.964 71.8272 195.683C72.6545 193.064 73.497 190.448 74.3547 187.837C76.7761 180.732 79.0752 173.587 81.2505 166.404C81.575 165.364 83.6142 158.944 83.6938 158.311C83.5561 157.753 83.4824 157.678 83.0402 157.329L82.9258 157.24L83.0468 157.083C85.6897 158.204 91.1801 159.518 94.0458 159.891C99.1675 160.462 103.607 161.009 108.809 160.612C111.732 160.212 113.184 159.988 115.745 158.554C116.487 158.272 117.404 157.892 118.143 157.653C118.721 158.599 119.593 160.156 120.196 161.018C122.216 161.908 124.088 162.705 126.177 163.495C131.341 165.447 134.904 165.914 139.064 169.77C141.024 171.586 142.759 174.802 143.771 175.763L144.126 176.319C143.82 176.868 135.76 200.153 135.721 200.632L135.509 200.73L135.299 200.883C135.334 201.122 135.389 201.6 135.455 201.809C133.009 201.802 125.777 201.632 123.752 201.906C118.714 202.106 112.181 201.924 107.037 201.922L69.5446 201.941C69.932 201.451 70.1267 201.282 70.2005 200.663L70.437 200.596Z" fill="#AFB173"/>
<path d="M133.618 180.319C134.093 181.311 134.634 182.372 134.763 183.477C134.873 185.424 133.983 191.579 133.368 193.384C134.29 194.347 134.644 194.8 135.405 195.897C135.36 196.966 135.126 199.587 135.246 200.453L135.509 200.73L135.299 200.883C134.73 200.837 134.214 200.775 133.649 200.7C133.834 199.109 133.916 197.486 134.014 195.885C133.043 194.607 132.707 193.926 132.123 192.469C132.435 189.737 133.442 186.416 134.009 183.661C133.844 182.58 133.624 181.403 133.618 180.319Z" fill="#52541D"/>
<path d="M144.126 176.319C146.397 179.067 148.526 184.451 150.112 187.715C151.991 191.581 154.658 196.944 157.146 200.474C154.782 200.74 151.248 200.646 148.784 200.646L135.721 200.632C135.76 200.153 143.82 176.868 144.126 176.319Z" fill="#AFB173"/>
</g>
<defs>
<clipPath id="clip0_275_247">
<rect width="200" height="200" fill="white"/>
</clipPath>
</defs>
</svg>
