<svg width="200" height="200" viewBox="0 0 200 200" fill="none" xmlns="http://www.w3.org/2000/svg">
<g clip-path="url(#clip0_275_245)">
<path d="M87.9431 152.934L88.5389 153.02C91.0494 153.121 93.7164 153.525 96.2063 153.943C99.7875 154.544 102.759 153.959 106.27 153.324C106.737 153.486 107.602 153.679 107.791 154.023L107.473 154.108L107.149 154.134C104.373 153.935 101.869 154.805 99.3578 154.728C96.6718 154.646 94.2264 153.967 91.3294 153.951C89.9433 153.935 89.3041 153.982 87.9293 154.17C88.0374 153.551 88.1822 153.397 87.9431 152.934Z" fill="#851717"/>
<path d="M129.06 152.059C129.83 152.218 130.608 152.39 131.383 152.511C134.895 155.402 134.93 158.649 136.295 162.261C132.005 160.184 130.247 159.251 125.463 159.634C132.03 161.069 138.686 164.643 143.283 169.456C144.433 170.66 145.83 171.738 146.927 172.998C148.914 176.032 151.266 178.939 153.219 182.024C155.072 184.95 156.375 188.148 158.005 191.188C158.968 192.986 160.448 194.933 161.524 196.7C161.845 197.227 163.116 199.04 163.047 199.556C162.652 199.663 162.615 199.676 162.21 199.666L162.159 199.828C159.031 199.831 139.466 199.572 138.298 199.962C137.832 200.022 137.774 200.022 137.327 199.878C129.824 199.544 121.591 199.878 114.032 199.866C100.54 199.845 86.9878 199.741 73.5015 199.89C70.0767 199.391 64.1063 200.123 60.2348 199.598C59.5071 199.871 59.0473 199.729 58.344 199.515C57.2366 199.953 43.3321 199.789 41.2305 199.706C43.08 195.701 43.8824 191.95 45.4618 188.007C46.9757 185.051 48.5591 180.039 50.4913 177.456C52.2821 175.06 57.2423 168.318 59.5436 166.796C62.5192 164.829 67.5654 162.122 70.752 160.708C67.2588 161.423 64.015 161.891 61.1281 164.129C61.7262 160.431 62.1397 152.834 68.0525 154.383C70.452 154.5 86.3091 154.548 87.9293 154.17C89.3041 153.982 89.9433 153.935 91.3294 153.951C94.2264 153.967 96.6718 154.646 99.3578 154.728C101.869 154.805 104.373 153.935 107.149 154.134L107.473 154.108C109.947 155.208 125.955 153.266 128.561 152.267C128.73 152.204 128.896 152.134 129.06 152.059Z" fill="#C22222"/>
<path d="M125.484 182.872C129.893 186.773 134.111 190.884 138.123 195.19C138.238 196.693 138.395 198.194 138.593 199.689C146.344 199.861 154.572 199.424 162.21 199.666L162.159 199.828C159.031 199.831 139.466 199.572 138.298 199.962C137.832 200.022 137.774 200.022 137.327 199.878C137.24 198.936 136.711 196.089 136.268 195.451C132.942 190.67 128.046 188.329 125.484 182.872Z" fill="#851717"/>
<path d="M69.9192 185.04L70.0736 185.433C68.2131 187.755 66.3163 190.069 64.4255 192.367C62.6984 194.467 62.4164 196.214 61.7135 198.701L60.2348 199.598C59.5071 199.871 59.0473 199.729 58.344 199.515C58.6821 199.207 59.9474 198.4 60.3882 198.105C62.3519 191.715 65.2069 189.888 69.9192 185.04Z" fill="#851717"/>
<path d="M91.3294 153.951C94.2264 153.967 96.6718 154.646 99.3578 154.728C101.869 154.805 104.373 153.935 107.149 154.134L106.988 154.39C103.931 154.621 100.622 155.134 97.5505 155.046C96.9535 155.03 96.8133 154.841 96.0809 154.902L95.9636 155.113C97.846 155.303 100.697 155.384 102.61 155.418C102.9 155.111 102.96 155.008 103.334 154.836L103.615 154.963L103.516 155.23L103.897 155.46L103.893 155.738C102.395 155.92 101.085 156.04 99.6317 156.484C97.7314 155.913 97.0342 156.053 95.1633 155.775C94.4132 155.664 93.5618 155.288 93.1924 154.614C92.8689 154.023 91.4376 154.52 90.4176 154.194L91.3294 153.951Z" fill="#C22222"/>
<path d="M69.9192 185.04C70.5019 184.272 71.0282 183.908 71.7771 183.323C71.1662 184.192 70.8447 184.687 70.0736 185.433L69.9192 185.04Z" fill="#851717"/>
<path d="M85.8757 158.747C89.6597 158.27 93.4947 159.134 97.3751 159.324C103.087 159.602 108.303 158.451 113.93 158.639C116.935 158.738 120.218 159.596 123.149 160.286C117.782 160.604 112.978 160.378 107.625 160.006C105.074 159.829 101.982 160.576 99.375 160.441C96.6007 160.406 93.7165 159.741 90.9332 159.591C89.1329 159.494 87.5482 159.981 85.8755 160.097C85.9793 159.685 86.0297 159.387 86.0928 158.966L85.8757 158.747Z" fill="#851717"/>
<path d="M81.7143 159.022C83.0945 158.857 84.4869 158.811 85.8757 158.747L86.0928 158.966C86.0297 159.387 85.9793 159.685 85.8755 160.097C85.0809 160.495 81.5141 160.54 80.3001 160.72C79.1672 160.674 78.1672 160.713 77.0364 160.753L76.7402 160.155C78.5254 159.318 79.7605 159.253 81.7143 159.022Z" fill="#851717"/>
<path d="M77.0364 160.753C75.9564 161.003 75.4038 161.221 74.2449 161.357C73.8364 161.431 76.7159 160.165 76.7402 160.155L77.0364 160.753Z" fill="#851717"/>
<path d="M83.1201 152.86L87.9431 152.934C88.1822 153.397 88.0374 153.551 87.9293 154.17C86.3091 154.548 70.452 154.5 68.0525 154.383C62.1397 152.834 61.7262 160.431 61.1281 164.129C64.015 161.891 67.2588 161.423 70.752 160.708C67.5654 162.122 62.5192 164.829 59.5436 166.796C57.2423 168.318 52.2821 175.06 50.4913 177.456C48.5591 180.039 46.9757 185.051 45.4618 188.007C43.8824 191.95 43.08 195.701 41.2305 199.706C40.613 199.819 40.1536 199.767 39.53 199.73C41.4392 195.4 42.1687 192.299 43.7028 187.993C44.5047 185.742 46.7289 181.52 47.9766 179.047L50.4913 174.697C51.4108 173.92 54.8293 169.533 55.7126 168.554C56.8988 167.239 58.2126 165.92 59.5187 164.625C60.4524 159.722 59.1915 160.569 61.8814 155.395L64.979 152.907C65.3209 152.777 65.837 152.622 66.1033 152.639C71.1545 152.955 76.2919 153.019 81.3528 152.682L83.1244 152.841L83.1201 152.86Z" fill="#851717"/>
<path d="M113.903 152.674L118.535 151.539C121.956 151.442 125.724 150.763 129.095 150.666C135.388 150.484 136.705 158.582 138.334 163.1C140.152 164.572 146.216 169.75 147.547 171.493C147.362 172.014 147.205 172.52 146.927 172.998C145.83 171.738 144.433 170.66 143.283 169.456C138.686 164.643 132.03 161.069 125.463 159.634C130.247 159.251 132.005 160.184 136.295 162.261C134.93 158.649 134.895 155.402 131.383 152.511C130.608 152.39 129.83 152.218 129.06 152.059C128.896 152.134 128.73 152.204 128.561 152.267C125.955 153.266 109.947 155.208 107.473 154.108L107.791 154.023C107.602 153.679 106.737 153.486 106.27 153.324C108.078 152.964 112.021 152.79 113.903 152.674Z" fill="#851717"/>
<path d="M147.547 171.493C152.402 177.538 155.755 182.572 158.952 189.537C159.757 191.294 164.2 198.128 165.454 199.657C164.732 200.019 163.09 199.824 162.159 199.828L162.21 199.666C162.615 199.676 162.652 199.663 163.047 199.556C163.116 199.04 161.845 197.227 161.524 196.7C160.448 194.933 158.968 192.986 158.005 191.188C156.375 188.148 155.072 184.95 153.219 182.024C151.266 178.939 148.914 176.032 146.927 172.998C147.205 172.52 147.362 172.014 147.547 171.493Z" fill="#851717"/>
</g>
<defs>
<clipPath id="clip0_275_245">
<rect width="200" height="200" fill="white"/>
</clipPath>
</defs>
</svg>
