<svg width="200" height="200" viewBox="0 0 200 200" fill="none" xmlns="http://www.w3.org/2000/svg">
<path d="M46.4302 109.556C47.4908 108.02 52.1643 103.651 52.3957 102.615C53.3981 97.3709 53.9069 91.6459 54.7437 86.3264C56.6233 74.38 58.7018 67.0481 66.8321 57.6385C73.7332 49.6514 83.9966 48.7366 93.9016 46.7351C98.2644 45.8536 106.131 47.0197 110.693 47.064C115.669 47.6865 123.023 50.6275 127.986 52.0374C129.251 52.453 132.984 55.0462 134.028 55.9091C134.37 55.6289 134.829 55.3092 135.193 55.0417C136.996 56.8375 143.553 65.7726 144.643 68.0207C149.144 77.3075 150.114 88.6371 151.397 98.7605C151.644 100.717 151.522 102.891 151.754 104.836C153.391 107.224 155.239 109.333 157.146 111.504C156.902 114.977 156.995 119.909 156.609 123.086C155.272 124.798 150.632 129.32 148.922 130.952L145.657 131.723C143.997 133.615 143.498 135.933 141.97 137.635C137.231 142.916 131.11 147.043 124.463 149.501C123.131 149.994 121.583 151.11 120.188 151.598C117.405 152.885 116.096 152.658 116.251 156.213C116.335 158.113 117.611 161.812 118.732 163.246C118.813 163.312 119.872 164.12 119.777 164.002C119.587 164.14 119.26 164.359 119.109 164.514C115.892 169.495 110.993 170.126 105.604 171.325C101.309 172.28 97.098 171.055 92.9581 169.902C91.0286 169.364 82.6609 165.674 81.7937 163.979C82.2061 163.84 82.8382 163.651 83.0224 163.255C84.2311 160.658 84.4682 157.084 85.0435 154.266C84.6218 153.719 83.8572 152.861 83.7329 152.229C84.3029 151.969 84.1989 152.29 84.7188 152.337L84.5989 152.301L84.6116 152.039C84.2217 151.533 84.0774 151.026 83.8591 150.426C80.8315 149.433 79.5012 148.467 76.73 146.974C70.9821 143.877 65.253 140.242 60.9962 135.218C58.5615 132.345 58.8588 129.593 55.4418 127.677C55.163 127.018 55.0432 126.673 54.6115 126.106C54.1492 126.437 54.8272 126.938 54.4981 127.704L54.159 127.699C52.8102 127.076 47.3927 121.275 46.4539 119.946C46.2787 117.052 46.364 112.458 46.4302 109.556Z" fill="#FEB1A7"/>
<path d="M135.193 55.0417C136.996 56.8375 143.553 65.7726 144.643 68.0207C149.144 77.3075 150.114 88.6371 151.397 98.7605C151.644 100.717 151.522 102.891 151.754 104.836C153.391 107.224 155.239 109.333 157.146 111.504C156.902 114.977 156.995 119.909 156.609 123.086C155.272 124.798 150.632 129.32 148.922 130.952L145.657 131.723C143.997 133.615 143.498 135.933 141.97 137.635C137.231 142.916 131.11 147.043 124.463 149.501C123.131 149.994 121.583 151.11 120.188 151.598C117.405 152.885 116.096 152.658 116.251 156.213C116.335 158.113 117.611 161.812 118.732 163.246C118.813 163.312 119.872 164.12 119.777 164.002C119.587 164.14 119.26 164.359 119.109 164.514C118.06 164.335 117.671 164.115 116.774 163.555C114.769 159.189 114.222 156.695 115.163 152.087C116.718 151.064 118.713 150.456 120.43 149.712C129.297 145.869 139.093 141.296 143.449 132.072C143.79 131.35 145.863 129.107 146.508 128.376L146.675 128.418C146.682 128.977 146.678 129.086 146.857 129.637L147.183 129.748C149.14 129.105 153.652 124.228 155.31 122.567C155.429 120.082 155.82 114.128 155.517 111.982C154.542 110.543 151.606 107.173 150.395 105.658C149.974 103.604 150.087 100.093 149.769 97.7317C149.215 93.8034 148.603 89.8834 147.933 85.973C146.998 80.3746 146.119 73.721 143.18 68.765C141.078 65.22 136.756 58.983 134.028 55.9091C134.37 55.6289 134.829 55.3092 135.193 55.0417Z" fill="#E17E78"/>
<path d="M45.1073 120.554C44.8289 117.111 45.1577 111.941 45.3545 108.405C46.6459 107.08 50.4164 103.494 51.1397 102.124C51.7875 100.896 51.8515 95.6011 52.0698 93.8482C52.4297 90.9603 53.1723 87.5362 53.5267 84.7504C55.0211 73.0055 58.0005 65.5699 65.7129 56.6652C68.5164 53.4282 72.6655 50.2812 76.7948 48.9137C78.8025 48.2488 82.8715 47.6614 85.2429 47.0116C88.2024 46.4413 91.5709 45.4183 94.5439 45.2346C103.641 44.6724 110.951 45.042 119.664 47.7747C126.52 49.9246 129.352 50.1474 135.193 55.0417C134.829 55.3092 134.37 55.6289 134.028 55.9091C132.984 55.0462 129.251 52.453 127.986 52.0374C123.023 50.6275 115.669 47.6865 110.693 47.064C106.131 47.0197 98.2644 45.8536 93.9016 46.7351C83.9966 48.7366 73.7332 49.6514 66.8321 57.6385C58.7018 67.0481 56.6233 74.38 54.7437 86.3264C53.9069 91.6459 53.3981 97.3709 52.3957 102.615C52.1643 103.651 47.4908 108.02 46.4302 109.556C46.364 112.458 46.2787 117.052 46.4539 119.946C47.3927 121.275 52.8102 127.076 54.159 127.699L54.4981 127.704C54.8272 126.938 54.1492 126.437 54.6115 126.106C55.0432 126.673 55.163 127.018 55.4418 127.677C58.8588 129.593 58.5615 132.345 60.9962 135.218C65.253 140.242 70.9821 143.877 76.73 146.974C79.5012 148.467 80.8315 149.433 83.8591 150.426C84.0774 151.026 84.2217 151.533 84.6116 152.039L84.5989 152.301L84.7188 152.337C84.1989 152.29 84.3029 151.969 83.7329 152.229C83.8572 152.861 84.6218 153.719 85.0435 154.266C84.4682 157.084 84.2311 160.658 83.0224 163.255C82.8382 163.651 82.2061 163.84 81.7937 163.979L80.6738 162.182C81.0113 162.232 81.3422 162.26 81.6163 162.182C82.2015 161.536 83.1925 155.959 83.4945 154.625L82.5193 151.768C80.4031 151.095 78.7968 149.733 76.8317 148.736C70.7341 145.644 64.6239 141.756 60.0185 136.65C58.3708 134.823 57.2756 132.042 56.0362 129.902C55.3531 129.645 53.7278 129.073 53.2141 128.745C50.6352 127.097 47.01 122.947 45.1073 120.554Z" fill="#E17E78"/>
<path d="M118.256 94.0677C119.528 94.1586 120.276 94.2676 121.38 94.9772C122.796 95.8816 123.776 97.3301 124.089 98.9809C124.44 100.703 124.073 102.493 123.072 103.937C121.913 105.598 120.788 106.003 118.957 106.34C111.071 106.552 111.056 95.2188 118.256 94.0677Z" fill="#302D2D"/>
<path d="M116.004 95.9041C116.487 95.4078 116.701 95.2265 117.608 95.0946C118.548 94.8309 119.388 95.3088 120.244 96.1692C120.684 97.0784 120.533 98.1238 119.795 98.8251C119.487 99.2652 119.421 99.7763 117.903 100.592C116.57 99.9246 115.76 99.1032 116.004 95.9041Z" fill="#EDDCCB"/>
<path d="M78.9726 92.8181C86.1132 92.417 87.3429 101.956 80.3858 104.872C75.5455 106.247 73.3572 100.792 74.7668 96.8764C75.6239 94.4953 76.8552 93.8562 78.9726 92.8181Z" fill="#302D2D"/>
<path d="M78.7631 94.4496C79.1483 94.492 79.9984 93.7186 80.2873 93.9875C81.1652 93.9875 81.8068 94.4496 82.4662 95.1895C82.5839 96.0237 81.8825 97.1642 81.4696 97.8943C81.1533 98.3273 81.0422 98.5425 80.5437 98.7734C78.6239 98.8132 77.6821 96.1439 78.7631 94.4496Z" fill="#EDDCCB"/>
<path d="M90.5642 122.457C92.7115 123.992 98.8114 126.217 106.032 122.831" stroke="#E17E78" stroke-width="2" stroke-linecap="round"/>
</svg>
